<svg id="ey6ojavzp9h1" xmlns="http://www.w3.org/2000/svg" xmlns:xlink="http://www.w3.org/1999/xlink" viewBox="0 0 635 371" shape-rendering="geometricPrecision" text-rendering="geometricPrecision"><rect id="ey6ojavzp9h2" width="635" height="371" rx="0" ry="0" transform="matrix(1 0 0 1 0.00000000000011 -0.00000000000010)" fill="rgb(250,252,252)" stroke="none" stroke-width="1"/><g id="ey6ojavzp9h3" transform="matrix(1 0 0 1 -1504.53466298000035 -267.33343871500028)"><rect id="ey6ojavzp9h4" width="197.436150" height="100.446707" rx="0" ry="0" transform="matrix(1 0 0 1 1563.02407188500069 356.95092935534376)" fill="rgb(235,235,255)" stroke="none" stroke-width="2"/><g id="ey6ojavzp9h5" transform="matrix(1 0 0 1 301.23470193499861 -0.00000000000023)" opacity="0"><g id="ey6ojavzp9h6"><rect id="ey6ojavzp9h7" width="197.436150" height="100.446707" rx="0" ry="0" transform="matrix(1 0 0 1 1563.02407188500069 356.95092935534376)" fill="rgb(235,235,255)" stroke="none" stroke-width="2"/><rect id="ey6ojavzp9h8" width="10.008761" height="10.138194" rx="4" ry="4" transform="matrix(1 0 0 1 1583.39138438503096 398.34166205853199)" fill="rgb(204,211,220)" stroke="none" stroke-width="1"/><rect id="ey6ojavzp9h9" width="10.008761" height="10.138194" rx="4" ry="4" transform="matrix(1 0 0 1 1583.39138438503096 435.05875895353205)" fill="rgb(204,211,220)" stroke="none" stroke-width="1"/><rect id="ey6ojavzp9h10" width="10.008761" height="10.138194" rx="4" ry="4" transform="matrix(1 0 0 1 1583.39138438503096 422.94175894853225)" fill="rgb(204,211,220)" stroke="none" stroke-width="1"/><rect id="ey6ojavzp9h11" width="10.008761" height="10.138194" rx="4" ry="4" transform="matrix(1 0 0 1 1583.39138438503096 410.84669338353200)" fill="rgb(204,211,220)" stroke="none" stroke-width="1"/><rect id="ey6ojavzp9h12" width="10.008761" height="10.138194" rx="4" ry="4" transform="matrix(1 0 0 1 1717.60278638503064 369.21522995353183)" fill="rgb(158,197,247)" stroke="none" stroke-width="1"/><rect id="ey6ojavzp9h13" width="10.008761" height="10.138194" rx="4" ry="4" transform="matrix(1 0 0 1 1733.73039338503099 369.21522995353183)" fill="rgb(247,167,158)" stroke="none" stroke-width="1"/></g></g><rect id="ey6ojavzp9h14" width="10.008761" height="10.138194" rx="4" ry="4" transform="matrix(1 0 0 1 1583.39138438503096 398.34166205853199)" fill="rgb(204,211,220)" stroke="none" stroke-width="1"/><rect id="ey6ojavzp9h15" width="10.008761" height="10.138194" rx="4" ry="4" transform="matrix(1 0 0 1 1583.39138438503096 435.05875895353205)" fill="rgb(204,211,220)" stroke="none" stroke-width="1"/><rect id="ey6ojavzp9h16" width="10.008761" height="10.138194" rx="4" ry="4" transform="matrix(1 0 0 1 1583.39138438503096 422.94175894853225)" fill="rgb(204,211,220)" stroke="none" stroke-width="1"/><rect id="ey6ojavzp9h17" width="10.008761" height="10.138194" rx="4" ry="4" transform="matrix(1 0 0 1 1583.39138438503096 410.84669338353200)" fill="rgb(204,211,220)" stroke="none" stroke-width="1"/><rect id="ey6ojavzp9h18" width="10.008761" height="10.138194" rx="4" ry="4" transform="matrix(1 0 0 1 1717.60278638503064 369.21522995353183)" fill="rgb(158,197,247)" stroke="none" stroke-width="1"/><rect id="ey6ojavzp9h19" width="10.008761" height="10.138194" rx="4" ry="4" transform="matrix(1 0 0 1 1733.73039338503099 369.21522995353183)" fill="rgb(247,167,158)" stroke="none" stroke-width="1"/></g><rect id="ey6ojavzp9h20" width="635" height="34.329698" rx="0" ry="0" transform="matrix(1 0 0 1 0.00000000000011 -0.00000000000010)" fill="rgb(15,83,165)" stroke="none" stroke-width="1"/><rect id="ey6ojavzp9h21" width="635" height="21.784826" rx="0" ry="0" transform="matrix(1 0 0 1 0.00000000000011 33.45127956499989)" fill="rgb(223,236,252)" stroke="none" stroke-width="1"/><g id="ey6ojavzp9h22"><rect id="ey6ojavzp9h23" width="40.895176" height="9.757935" rx="4" ry="4" transform="matrix(1 0 0 1 555.46945299975539 39.46472526500001)" fill="rgb(15,83,165)" stroke="none" stroke-width="1"/><g id="ey6ojavzp9h24" transform="matrix(1 0 0 1 -6.27504499999998 0.09506405000000)"><rect id="ey6ojavzp9h25" width="10.008761" height="10.138194" rx="4" ry="4" transform="matrix(1 0 0 1 541.62338800003101 39.27459566853157)" fill="rgb(15,83,165)" stroke="none" stroke-width="1"/><g id="ey6ojavzp9h26" transform="matrix(0.63302379724339 0 0 0.63302379724339 -45.33117694556336 -122.95792169281484)"><path id="ey6ojavzp9h27" d="M166.423000,294.691000C166.572000,294.493000,166.650000,294.281000,166.650000,294.065000L166.650000,291.893000C166.650000,290.814000,164.791000,290,162.325000,290C159.859000,290,158,290.814000,158,291.893000L158,293.813000L158,294.065000L158,295.733000L158,295.985000L158,297.906000C158,298.984000,159.859000,299.798000,162.325000,299.798000C162.648000,299.798000,162.968000,299.781000,163.280000,299.751000C163.837000,300.365000,164.631000,300.752000,165.514000,300.752000C167.194000,300.752000,168.560000,299.361000,168.560000,297.651000C168.560000,296.263000,167.660000,295.085000,166.423000,294.691000ZM162.325000,290.448000C164.615000,290.448000,166.210000,291.209000,166.210000,291.893000C166.210000,292.576000,164.615000,293.337000,162.325000,293.337000C160.036000,293.337000,158.440000,292.576000,158.440000,291.893000C158.440000,291.209000,160.036000,290.448000,162.325000,290.448000ZM158.440000,293.813000L158.440000,292.748000C159.130000,293.373000,160.572000,293.785000,162.325000,293.785000C164.078000,293.785000,165.520000,293.373000,166.210000,292.748000L166.210000,294.065000C166.210000,294.271000,166.067000,294.451000,165.924000,294.581000C165.790000,294.562000,165.654000,294.549000,165.514000,294.549000C164.678000,294.549000,163.920000,294.895000,163.369000,295.452000C163.030000,295.489000,162.680000,295.509000,162.325000,295.509000C160.036000,295.509000,158.440000,294.748000,158.440000,294.065000L158.440000,293.813000ZM158.440000,295.733000L158.440000,294.920000C159.130000,295.545000,160.572000,295.957000,162.325000,295.957000C162.545000,295.957000,162.763000,295.949000,162.979000,295.935000C162.695000,296.368000,162.518000,296.878000,162.479000,297.427000C162.428000,297.428000,162.377000,297.430000,162.325000,297.430000C160.036000,297.430000,158.440000,296.669000,158.440000,295.985000L158.440000,295.733000ZM162.325000,299.350000C160.036000,299.350000,158.440000,298.589000,158.440000,297.906000L158.440000,296.840000C159.130000,297.465000,160.572000,297.878000,162.325000,297.878000C162.377000,297.878000,162.428000,297.876000,162.479000,297.875000C162.517000,298.408000,162.686000,298.903000,162.956000,299.328000C162.748000,299.341000,162.538000,299.350000,162.325000,299.350000ZM165.514000,300.304000C164.077000,300.304000,162.908000,299.114000,162.908000,297.651000C162.908000,296.188000,164.077000,294.997000,165.514000,294.997000C166.951000,294.997000,168.120000,296.188000,168.120000,297.651000C168.120000,299.114000,166.951000,300.304000,165.514000,300.304000Z" transform="matrix(1 0 0 1 771.84905561018809 -30.84538685974655)" fill="rgb(223,236,252)" stroke="none" stroke-width="1"/><path id="ey6ojavzp9h28" d="M164.828000,295.986000L164.031000,295.986000L164.031000,296.434000L164.467000,296.434000L164.930000,298.832000L166.892000,298.832000L166.892000,298.384000L165.292000,298.384000L165.268000,298.262000L167.092000,297.866000L167.244000,296.536000L164.935000,296.536000L164.828000,295.986000ZM166.750000,296.984000L166.692000,297.495000L165.183000,297.823000L165.021000,296.984000L166.750000,296.984000L166.750000,296.984000Z" transform="matrix(1 0 0 1 771.84905561018809 -30.84538685974655)" fill="rgb(223,236,252)" stroke="none" stroke-width="1"/><path id="ey6ojavzp9h29" d="M165.575000,299.091000L165.269000,299.091000L165.269000,299.539000L165.575000,299.539000L165.575000,299.091000Z" transform="matrix(1 0 0 1 771.84905561018809 -30.84538685974655)" fill="rgb(223,236,252)" stroke="none" stroke-width="1"/><path id="ey6ojavzp9h30" d="M166.765000,299.091000L166.460000,299.091000L166.460000,299.539000L166.765000,299.539000L166.765000,299.091000Z" transform="matrix(1 0 0 1 771.84905561018809 -30.84538685974655)" fill="rgb(223,236,252)" stroke="none" stroke-width="1"/></g></g><g id="ey6ojavzp9h31" transform="matrix(1 0 0 1 -20.83255399999996 0.09506425999999)"><rect id="ey6ojavzp9h32" width="10.008761" height="10.138194" rx="4" ry="4" transform="matrix(1 0 0 1 541.62338800003101 39.08446605853157)" fill="rgb(15,83,165)" stroke="none" stroke-width="1"/><path id="ey6ojavzp9h33" d="M145,322.312526L147.866182,322.312526L147.866182,322.996949L145,322.996949L145,322.312526ZM149.557735,316.658611C147.651611,316.658611,146.100845,318.253479,146.100845,320.214306L145,320.214306L146.433303,321.970738L147.866182,320.214306L146.765762,320.214306C146.765762,318.630887,148.017994,317.342610,149.557735,317.342610C151.097051,317.342610,152.349707,318.630887,152.349707,320.214306C152.349707,321.797724,151.097051,323.086001,149.557735,323.086001L149.557735,323.770000C151.463858,323.770000,153.014624,322.174708,153.014624,320.214306C153.014624,318.253479,151.463858,316.658611,149.557735,316.658611ZM147.679174,318.524025L148.113406,318.970979C148.184647,318.883199,148.263521,318.802205,148.348756,318.728844L147.914100,318.282315C147.830986,318.357372,147.752112,318.437942,147.679174,318.524025ZM150.664516,317.912539C150.565711,317.862501,150.463090,317.818823,150.357077,317.781931L150.122151,318.365429C150.229012,318.400202,150.331633,318.444303,150.429166,318.496886L150.664516,317.912539ZM151.200945,318.282315L150.766713,318.728844C150.851524,318.802205,150.930398,318.883199,151.001639,318.970979L151.436295,318.524025C151.362933,318.438367,151.284483,318.357372,151.200945,318.282315ZM151.200945,322.146296C151.284483,322.071239,151.362933,321.990245,151.436295,321.904586L151.001639,321.457632C150.930398,321.545412,150.851524,321.625982,150.766713,321.699767L151.200945,322.146296ZM152.054142,320.214306C152.054142,320.156634,152.051597,320.099811,152.047781,320.043412L151.433326,320.043412C151.438415,320.099811,151.441383,320.156634,151.441383,320.214306C151.441383,320.271977,151.438415,320.328800,151.433326,320.385199L152.047781,320.385199C152.051597,320.328800,152.054142,320.271977,152.054142,320.214306ZM151.227236,319.317855C151.278547,319.418356,151.321376,319.523521,151.354876,319.633351L151.922685,319.392064C151.886640,319.283082,151.844235,319.177493,151.795469,319.075720L151.227236,319.317855ZM149.723964,322.143752C149.669261,322.148417,149.613710,322.151809,149.557735,322.151809C149.501759,322.151809,149.446208,322.148417,149.391505,322.143752L149.391505,322.775593C149.446632,322.779409,149.501759,322.781954,149.557735,322.781954C149.613710,322.781954,149.669261,322.779409,149.723964,322.775593L149.723964,322.143752ZM150.357077,322.646680C150.463090,322.609788,150.565711,322.566110,150.664516,322.515648L150.429166,321.931725C150.331633,321.983884,150.229012,322.028409,150.122151,322.062758L150.357077,322.646680ZM151.227236,321.110756L151.795469,321.352467C151.844235,321.251118,151.886640,321.145529,151.922685,321.036547L151.354876,320.794836C151.321376,320.904666,151.278547,321.010255,151.227236,321.110756ZM148.450529,317.912539L148.686303,318.496886C148.783836,318.444303,148.886457,318.400202,148.992894,318.365429L148.757968,317.781931C148.652379,317.818823,148.549758,317.862077,148.450529,317.912539ZM147.192784,319.391640L147.760169,319.633351C147.793669,319.523521,147.836923,319.418356,147.888233,319.317855L147.320001,319.075720C147.270810,319.177493,147.228405,319.283082,147.192784,319.391640ZM149.723964,318.284859L149.723964,317.653018C149.668837,317.649202,149.613710,317.646657,149.557735,317.646657C149.501759,317.646657,149.446632,317.649202,149.391505,317.653018L149.391505,318.284859C149.446208,318.279770,149.501759,318.277226,149.557735,318.277226C149.613710,318.277226,149.669261,318.279770,149.723964,318.284859Z" transform="matrix(1 0 0 1 397.43275430000097 -275.87061275000002)" fill="rgb(223,236,252)" stroke="none" stroke-width="1"/></g></g><g id="ey6ojavzp9h34" transform="matrix(1 0 0 1 1009.66488196000023 401.73261452000031)" opacity="0"><rect id="ey6ojavzp9h35" width="512.088195" height="378.183363" rx="0" ry="0" transform="matrix(1 0 0 1 -941.77908899999977 -30.73261482021947)" fill="rgb(235,240,247)" stroke="rgb(102,93,93)" stroke-width="1"/><rect id="ey6ojavzp9h36" width="346.115613" height="17.164163" rx="0" ry="0" transform="matrix(1 0 0 1 -861.11137400000007 0.00068632320085)" fill="rgb(222,228,235)" stroke="rgb(215,206,206)" stroke-width="1"/><rect id="ey6ojavzp9h37" width="41.930684" height="12.161567" rx="0" ry="0" transform="matrix(1 0 0 1 -574.69343449999928 241.28213099820104)" fill="rgb(198,205,213)" stroke="none" stroke-width="1"/><rect id="ey6ojavzp9h38" width="41.930684" height="12.161567" rx="0" ry="0" transform="matrix(1 0 0 1 -517.70482549999929 241.28213099820104)" fill="rgb(26,91,170)" stroke="none" stroke-width="1"/><g id="ey6ojavzp9h39"><rect id="ey6ojavzp9h40" width="37.960517" height="9.117099" rx="0" ry="0" transform="matrix(1 0 0 1 -904.55877200000168 34.90617559320086)" fill="rgb(217,191,191)" stroke="none" stroke-width="1"/><rect id="ey6ojavzp9h41" width="37.960517" height="9.117099" rx="0" ry="0" transform="matrix(1 0 0 1 -863.10523800000158 35.13152807320094)" fill="rgb(217,191,191)" stroke="none" stroke-width="1"/><rect id="ey6ojavzp9h42" width="37.960517" height="9.117099" rx="0" ry="0" transform="matrix(1 0 0 1 -821.87212500000157 35.13152807320094)" fill="rgb(217,191,191)" stroke="none" stroke-width="1"/><rect id="ey6ojavzp9h43" width="37.960517" height="9.117099" rx="0" ry="0" transform="matrix(1 0 0 1 -779.94144100000153 35.13152807320097)" fill="rgb(217,191,191)" stroke="none" stroke-width="1"/><rect id="ey6ojavzp9h44" width="37.960517" height="9.117099" rx="0" ry="0" transform="matrix(1 0 0 1 -738.45213200000160 35.13152807320097)" fill="rgb(217,191,191)" stroke="none" stroke-width="1"/><rect id="ey6ojavzp9h45" width="37.960517" height="1.950000" rx="0" ry="0" transform="matrix(1 0 0 1 -904.55877200000168 43.02041973820096)" fill="rgb(26,91,170)" stroke="none" stroke-width="1"/><rect id="ey6ojavzp9h46" width="37.960517" height="1.953751" rx="0" ry="0" transform="matrix(1 0 0 1 -863.10523800000112 43.02041973820093)" opacity="0" fill="rgb(26,91,170)" stroke="none" stroke-width="1"/><rect id="ey6ojavzp9h47" width="37.960517" height="1.950000" rx="0" ry="0" transform="matrix(1 0 0 1 -821.96082491500147 43.02041973820099)" opacity="0" fill="rgb(26,91,170)" stroke="none" stroke-width="1"/><rect id="ey6ojavzp9h48" width="37.960517" height="1.950000" rx="0" ry="0" transform="matrix(1 0 0 1 -779.94144100000153 43.02041973820096)" opacity="0" fill="rgb(26,91,170)" stroke="none" stroke-width="1"/><rect id="ey6ojavzp9h49" width="37.960517" height="1.950000" rx="0" ry="0" transform="matrix(1 0 0 1 -738.45213200000148 43.02041973820099)" opacity="0" fill="rgb(26,91,170)" stroke="none" stroke-width="1"/><g id="ey6ojavzp9h50"><rect id="ey6ojavzp9h51" width="197.838586" height="54.209355" rx="0" ry="0" transform="matrix(1 0 0 1 -901.81115950000185 66.24014832713453)" fill="rgb(225,232,249)" stroke="none" stroke-width="1"/><rect id="ey6ojavzp9h52" width="197.838586" height="54.209355" rx="0" ry="0" transform="matrix(1 0 0 1 -904.55877200000168 145.20692316213444)" fill="rgb(225,232,249)" stroke="none" stroke-width="1"/><rect id="ey6ojavzp9h53" width="197.838586" height="54.209355" rx="0" ry="0" transform="matrix(1 0 0 1 -665.22963800000184 145.20692316213444)" fill="rgb(225,232,249)" stroke="none" stroke-width="1"/><rect id="ey6ojavzp9h54" width="197.838586" height="54.209355" rx="0" ry="0" transform="matrix(1 0 0 1 -665.22963800000184 66.24014832713453)" fill="rgb(225,232,249)" stroke="none" stroke-width="1"/><g id="ey6ojavzp9h55" transform="matrix(1 0 0 1 19.92890172000011 -3.41342675999994)" opacity="0"><rect id="ey6ojavzp9h56" width="13.105513" height="1.464228" rx="0" ry="0" transform="matrix(0.69262943944728 -0.72129360153196 0.72084359724189 0.69219731829923 -910.17262331725760 86.54445311781285)" opacity="0.98" fill="rgb(26,91,170)" stroke="none" stroke-width="1"/><rect id="ey6ojavzp9h57" width="4.876930" height="1.464228" rx="0" ry="0" transform="matrix(0.93067888357863 0.35883714046819 -0.35952631530020 0.93246632526431 -913.00542954580192 84.29179922373791)" opacity="0.98" fill="rgb(26,91,170)" stroke="none" stroke-width="1"/><g id="ey6ojavzp9h58" transform="matrix(1 0 0 1 241.39273292999974 -0.83349652999991)" opacity="0"><rect id="ey6ojavzp9h59" width="13.105513" height="1.464228" rx="0" ry="0" transform="matrix(0.69262943944728 -0.72129360153196 0.72084359724189 0.69219731829923 -910.17262331725760 86.54445311781285)" opacity="0.98" fill="rgb(26,91,170)" stroke="none" stroke-width="1"/><rect id="ey6ojavzp9h60" width="4.876930" height="1.464228" rx="0" ry="0" transform="matrix(0.93067888357863 0.35883714046819 -0.35952631530020 0.93246632526431 -913.00542954580192 84.29179922373791)" opacity="0.98" fill="rgb(26,91,170)" stroke="none" stroke-width="1"/></g></g><rect id="ey6ojavzp9h61" width="7.651587" height="7.651587" rx="0" ry="0" transform="matrix(1 0 0 1 -889.40430713999967 75.50390436239297)" fill="none" stroke="rgb(26,91,170)" stroke-width="1"/><rect id="ey6ojavzp9h62" width="7.651587" height="7.651587" rx="0" ry="0" transform="matrix(1 0 0 1 -649.29001713999980 73.67811072239289)" fill="none" stroke="rgb(26,91,170)" stroke-width="1"/><rect id="ey6ojavzp9h63" width="7.651587" height="7.651587" rx="0" ry="0" transform="matrix(1 0 0 1 -649.29001713999980 155.35075681239294)" fill="none" stroke="rgb(26,91,170)" stroke-width="1"/><rect id="ey6ojavzp9h64" width="7.651587" height="7.651587" rx="0" ry="0" transform="matrix(1 0 0 1 -885.57851350000010 158.81552423726552)" fill="none" stroke="rgb(26,91,170)" stroke-width="1"/></g></g></g><rect id="ey6ojavzp9h65" width="154.151497" height="96.064198" rx="0" ry="0" transform="matrix(1 0 0 1 926.89618299500034 441.80889000034381)" opacity="0" fill="rgb(232,244,249)" stroke="rgb(240,205,205)" stroke-width="2"/><g id="ey6ojavzp9h66" transform="matrix(1 0 0 1 -441.20612899999998 84.08106927500000)"><g id="ey6ojavzp9h67" transform="matrix(1 0 0 1 0.00000801999954 -2.14856754000041)"><rect id="ey6ojavzp9h68" width="154.151497" height="96.064198" rx="0" ry="0" transform="matrix(1 0 0 1 1563.02407188500069 356.95092935534376)" fill="rgb(245,245,252)" stroke="none" stroke-width="2"/><rect id="ey6ojavzp9h69" width="10.008761" height="10.138194" rx="4" ry="4" transform="matrix(1 0 0 1 1583.39138438503096 398.34166205853199)" fill="rgb(204,211,220)" stroke="none" stroke-width="1"/><rect id="ey6ojavzp9h70" width="10.008761" height="10.138194" rx="4" ry="4" transform="matrix(1 0 0 1 1583.39138438503096 435.05875895353205)" fill="rgb(204,211,220)" stroke="none" stroke-width="1"/><rect id="ey6ojavzp9h71" width="10.008761" height="10.138194" rx="4" ry="4" transform="matrix(1 0 0 1 1583.39138438503096 422.94175894853225)" fill="rgb(204,211,220)" stroke="none" stroke-width="1"/><rect id="ey6ojavzp9h72" width="10.008761" height="10.138194" rx="4" ry="4" transform="matrix(1 0 0 1 1583.39138438503096 410.84669338353200)" fill="rgb(204,211,220)" stroke="none" stroke-width="1"/><rect id="ey6ojavzp9h73" width="10.008761" height="10.138194" rx="4" ry="4" transform="matrix(1 0 0 1 1583.39138438503096 385.94175895353186)" fill="rgb(158,197,247)" stroke="none" stroke-width="1"/></g><g id="ey6ojavzp9h74"><rect id="ey6ojavzp9h75" width="154.151497" height="96.064198" rx="0" ry="0" transform="matrix(1 0 0 1 1757.76069438500031 356.80235961534379)" fill="rgb(245,245,252)" stroke="none" stroke-width="2"/><rect id="ey6ojavzp9h76" width="10.008761" height="10.138194" rx="4" ry="4" transform="matrix(1 0 0 1 1778.79676638503133 436.16075894853208)" fill="rgb(204,211,220)" stroke="none" stroke-width="1"/><rect id="ey6ojavzp9h77" width="10.008761" height="10.138194" rx="4" ry="4" transform="matrix(1 0 0 1 1778.79676638503133 424.04375894353228)" fill="rgb(204,211,220)" stroke="none" stroke-width="1"/><rect id="ey6ojavzp9h78" width="10.008761" height="10.138194" rx="4" ry="4" transform="matrix(1 0 0 1 1778.79676638503133 411.94869337853203)" fill="rgb(204,211,220)" stroke="none" stroke-width="1"/><rect id="ey6ojavzp9h79" width="10.008761" height="10.138194" rx="4" ry="4" transform="matrix(1 0 0 1 1778.79676638503133 387.04375894853189)" fill="rgb(158,197,247)" stroke="none" stroke-width="1"/><rect id="ey6ojavzp9h80" width="10.008761" height="10.138194" rx="4" ry="4" transform="matrix(1 0 0 1 1778.79676638503133 399.44366205353202)" fill="rgb(204,211,220)" stroke="none" stroke-width="1"/><g id="ey6ojavzp9h81" transform="matrix(1 0 0 1 -389.65838239000027 129.54295813000039)"><rect id="ey6ojavzp9h82" width="154.151497" height="96.064198" rx="0" ry="0" transform="matrix(1 0 0 1 1757.76069438500031 356.80235961534379)" fill="rgb(245,245,252)" stroke="none" stroke-width="2"/><rect id="ey6ojavzp9h83" width="10.008761" height="10.138194" rx="4" ry="4" transform="matrix(1 0 0 1 1778.79676638503133 436.16075894853208)" fill="rgb(204,211,220)" stroke="none" stroke-width="1"/><rect id="ey6ojavzp9h84" width="10.008761" height="10.138194" rx="4" ry="4" transform="matrix(1 0 0 1 1778.79676638503133 424.04375894353228)" fill="rgb(204,211,220)" stroke="none" stroke-width="1"/><rect id="ey6ojavzp9h85" width="10.008761" height="10.138194" rx="4" ry="4" transform="matrix(1 0 0 1 1778.79676638503133 411.94869337853203)" fill="rgb(204,211,220)" stroke="none" stroke-width="1"/><rect id="ey6ojavzp9h86" width="10.008761" height="10.138194" rx="4" ry="4" transform="matrix(1 0 0 1 1778.79676638503133 387.04375894853189)" fill="rgb(158,197,247)" stroke="none" stroke-width="1"/><rect id="ey6ojavzp9h87" width="10.008761" height="10.138194" rx="4" ry="4" transform="matrix(1 0 0 1 1778.79676638503133 399.44366205353202)" fill="rgb(204,211,220)" stroke="none" stroke-width="1"/><g id="ey6ojavzp9h88" transform="matrix(1 0 0 1 194.92175849999967 0)"><rect id="ey6ojavzp9h89" width="154.151497" height="96.064198" rx="0" ry="0" transform="matrix(1 0 0 1 1757.76069438500031 356.80235961534379)" fill="rgb(245,245,252)" stroke="none" stroke-width="2"/><rect id="ey6ojavzp9h90" width="10.008761" height="10.138194" rx="4" ry="4" transform="matrix(1 0 0 1 1778.79676638503133 436.16075894853208)" fill="rgb(204,211,220)" stroke="none" stroke-width="1"/><rect id="ey6ojavzp9h91" width="10.008761" height="10.138194" rx="4" ry="4" transform="matrix(1 0 0 1 1778.79676638503133 424.04375894353228)" fill="rgb(204,211,220)" stroke="none" stroke-width="1"/><rect id="ey6ojavzp9h92" width="10.008761" height="10.138194" rx="4" ry="4" transform="matrix(1 0 0 1 1778.79676638503133 411.94869337853203)" fill="rgb(204,211,220)" stroke="none" stroke-width="1"/><rect id="ey6ojavzp9h93" width="10.008761" height="10.138194" rx="4" ry="4" transform="matrix(1 0 0 1 1778.79676638503133 387.04375894853189)" fill="rgb(158,197,247)" stroke="none" stroke-width="1"/><rect id="ey6ojavzp9h94" width="10.008761" height="10.138194" rx="4" ry="4" transform="matrix(1 0 0 1 1778.79676638503133 399.44366205353202)" fill="rgb(204,211,220)" stroke="none" stroke-width="1"/><g id="ey6ojavzp9h95" transform="matrix(1 0 0 1 194.73662249999984 0)"><rect id="ey6ojavzp9h96" width="154.151497" height="96.064198" rx="0" ry="0" transform="matrix(1 0 0 1 1757.76069438500031 356.80235961534379)" fill="rgb(245,245,252)" stroke="none" stroke-width="2"/><rect id="ey6ojavzp9h97" width="10.008761" height="10.138194" rx="4" ry="4" transform="matrix(1 0 0 1 1778.79676638503133 436.16075894853208)" fill="rgb(204,211,220)" stroke="none" stroke-width="1"/><rect id="ey6ojavzp9h98" width="10.008761" height="10.138194" rx="4" ry="4" transform="matrix(1 0 0 1 1778.79676638503133 424.04375894353228)" fill="rgb(204,211,220)" stroke="none" stroke-width="1"/><rect id="ey6ojavzp9h99" width="10.008761" height="10.138194" rx="4" ry="4" transform="matrix(1 0 0 1 1778.79676638503133 411.94869337853203)" fill="rgb(204,211,220)" stroke="none" stroke-width="1"/><rect id="ey6ojavzp9h100" width="10.008761" height="10.138194" rx="4" ry="4" transform="matrix(1 0 0 1 1778.79676638503133 387.04375894853189)" fill="rgb(158,197,247)" stroke="none" stroke-width="1"/><rect id="ey6ojavzp9h101" width="10.008761" height="10.138194" rx="4" ry="4" transform="matrix(1 0 0 1 1778.79676638503133 399.44366205353202)" fill="rgb(204,211,220)" stroke="none" stroke-width="1"/></g></g></g></g></g><g id="ey6ojavzp9h102" transform="matrix(1 0 0 1 -455.76363799999996 84.08106948500000)" opacity="0"><rect id="ey6ojavzp9h103" width="10.008761" height="10.138194" rx="4" ry="4" transform="matrix(1 0 0 1 1399.47671421003088 396.57722719353177)" fill="rgb(204,211,220)" stroke="none" stroke-width="1"/><rect id="ey6ojavzp9h104" width="10.008761" height="10.138194" rx="4" ry="4" transform="matrix(1 0 0 1 1399.48300738503099 384.17732430353163)" fill="rgb(158,197,247)" stroke="none" stroke-width="1"/><rect id="ey6ojavzp9h105" width="10.008761" height="10.138194" rx="4" ry="4" transform="matrix(1 0 0 1 1399.48300738503099 409.08225873353189)" fill="rgb(204,211,220)" stroke="none" stroke-width="1"/><rect id="ey6ojavzp9h106" width="10.008761" height="10.138194" rx="4" ry="4" transform="matrix(1 0 0 1 1399.48300738503099 421.17732429853214)" fill="rgb(204,211,220)" stroke="none" stroke-width="1"/><rect id="ey6ojavzp9h107" width="10.008761" height="10.138194" rx="4" ry="4" transform="matrix(1 0 0 1 1399.48300738503099 433.29432430353194)" fill="rgb(204,211,220)" stroke="none" stroke-width="1"/><rect id="ey6ojavzp9h108" width="10.008761" height="10.138194" rx="4" ry="4" transform="matrix(1 0 0 1 1500.20732538503171 364.26535667353170)" fill="rgb(187,198,212)" stroke="none" stroke-width="1"/><rect id="ey6ojavzp9h109" width="10.008761" height="10.138194" rx="4" ry="4" transform="matrix(1 0 0 1 1516.13000736503136 364.43708440853169)" fill="rgb(230,138,138)" stroke="none" stroke-width="1"/></g><g id="ey6ojavzp9h110"/><rect id="ey6ojavzp9h111" width="94" height="94" rx="47" ry="47" transform="matrix(1 0 0 1 1279.07618300000013 34.32969800000001)" fill="rgb(196,196,196)" stroke="none" stroke-width="1"/><g id="ey6ojavzp9h112" transform="matrix(1 0 0 1 -623.74876696499996 -133.74113543000004)"><path id="ey6ojavzp9h113" d="M7.289060,222.881000C7,223.295000,6.595700,223.605000,6.076170,223.812000C5.560550,224.016000,4.958980,224.117000,4.271480,224.117000C3.576170,224.117000,2.958980,223.955000,2.419920,223.631000C1.880860,223.303000,1.462890,222.838000,1.166020,222.236000C0.873047,221.635000,0.722656,220.938000,0.714844,220.145000L0.714844,219.400000C0.714844,218.115000,1.013670,217.119000,1.611330,216.412000C2.212890,215.705000,3.056640,215.352000,4.142580,215.352000C5.033200,215.352000,5.750000,215.580000,6.292970,216.037000C6.835940,216.490000,7.167970,217.135000,7.289060,217.971000L6.164060,217.971000C5.953120,216.842000,5.281250,216.277000,4.148440,216.277000C3.394530,216.277000,2.822270,216.543000,2.431640,217.074000C2.044920,217.602000,1.849610,218.367000,1.845700,219.371000L1.845700,220.068000C1.845700,221.025000,2.064450,221.787000,2.501950,222.354000C2.939450,222.916000,3.531250,223.197000,4.277340,223.197000C4.699220,223.197000,5.068360,223.150000,5.384770,223.057000C5.701170,222.963000,5.962890,222.805000,6.169920,222.582000L6.169920,220.666000L4.195310,220.666000L4.195310,219.752000L7.289060,219.752000L7.289060,222.881000Z" transform="matrix(1 0 0 1 779.37090300000000 -29.79350000000011)" opacity="0" fill="rgb(0,0,0)" stroke="none" stroke-width="1"/><path id="ey6ojavzp9h114" d="M34.119100,180.549000L32.115200,180.549000L32.115200,184L30.984400,184L30.984400,175.469000L33.808600,175.469000C34.769500,175.469000,35.507800,175.688000,36.023400,176.125000C36.543000,176.562000,36.802700,177.199000,36.802700,178.035000C36.802700,178.566000,36.658200,179.029000,36.369100,179.424000C36.084000,179.818000,35.685500,180.113000,35.173800,180.309000L37.177700,183.930000L37.177700,184L35.970700,184L34.119100,180.549000ZM32.115200,179.629000L33.843800,179.629000C34.402300,179.629000,34.845700,179.484000,35.173800,179.195000C35.505900,178.906000,35.671900,178.520000,35.671900,178.035000C35.671900,177.508000,35.513700,177.104000,35.197300,176.822000C34.884800,176.541000,34.431600,176.398000,33.837900,176.395000L32.115200,176.395000L32.115200,179.629000Z" transform="matrix(1 0 0 1 760.02738299999987 10.14800000000008)" opacity="0" fill="rgb(0,0,0)" stroke="none" stroke-width="1"/><path id="ey6ojavzp9h115" d="M87.552700,353.010000C87.552700,353.846000,87.412100,354.576000,87.130900,355.201000C86.849600,355.822000,86.451200,356.297000,85.935500,356.625000C85.419900,356.953000,84.818400,357.117000,84.130900,357.117000C83.459000,357.117000,82.863300,356.953000,82.343800,356.625000C81.824200,356.293000,81.419900,355.822000,81.130900,355.213000C80.845700,354.600000,80.699200,353.891000,80.691400,353.086000L80.691400,352.471000C80.691400,351.650000,80.834000,350.926000,81.119100,350.297000C81.404300,349.668000,81.806600,349.188000,82.326200,348.855000C82.849600,348.520000,83.447300,348.352000,84.119100,348.352000C84.802700,348.352000,85.404300,348.518000,85.923800,348.850000C86.447300,349.178000,86.849600,349.656000,87.130900,350.285000C87.412100,350.910000,87.552700,351.639000,87.552700,352.471000L87.552700,353.010000ZM86.433600,352.459000C86.433600,351.447000,86.230500,350.672000,85.824200,350.133000C85.418000,349.590000,84.849600,349.318000,84.119100,349.318000C83.408200,349.318000,82.847700,349.590000,82.437500,350.133000C82.031200,350.672000,81.822300,351.422000,81.810500,352.383000L81.810500,353.010000C81.810500,353.990000,82.015600,354.762000,82.425800,355.324000C82.839800,355.883000,83.408200,356.162000,84.130900,356.162000C84.857400,356.162000,85.419900,355.898000,85.818400,355.371000C86.216800,354.840000,86.421900,354.080000,86.433600,353.092000L86.433600,352.459000Z" transform="matrix(1 0 0 1 719.58108299999992 -162.96899999999997)" opacity="0" fill="rgb(0,0,0)" stroke="none" stroke-width="1"/><path id="ey6ojavzp9h116" d="M159.996000,200.469000L159.996000,206.270000C159.992000,207.074000,159.738000,207.732000,159.234000,208.244000C158.734000,208.756000,158.055000,209.043000,157.195000,209.105000L156.896000,209.117000C155.963000,209.117000,155.219000,208.865000,154.664000,208.361000C154.109000,207.857000,153.828000,207.164000,153.820000,206.281000L153.820000,200.469000L154.934000,200.469000L154.934000,206.246000C154.934000,206.863000,155.104000,207.344000,155.443000,207.688000C155.783000,208.027000,156.268000,208.197000,156.896000,208.197000C157.533000,208.197000,158.020000,208.027000,158.355000,207.688000C158.695000,207.348000,158.865000,206.869000,158.865000,206.252000L158.865000,200.469000L159.996000,200.469000Z" transform="matrix(1 0 0 1 657.63282400000014 -14.85200000499984)" opacity="0" fill="rgb(0,0,0)" stroke="none" stroke-width="1"/><path id="ey6ojavzp9h117" d="M32.115200,105.660000L32.115200,109L30.990200,109L30.990200,100.469000L34.136700,100.469000C35.070300,100.469000,35.800800,100.707000,36.328100,101.184000C36.859400,101.660000,37.125000,102.291000,37.125000,103.076000C37.125000,103.904000,36.865200,104.543000,36.345700,104.992000C35.830100,105.438000,35.089800,105.660000,34.125000,105.660000L32.115200,105.660000ZM32.115200,104.740000L34.136700,104.740000C34.738300,104.740000,35.199200,104.600000,35.519500,104.318000C35.839800,104.033000,36,103.623000,36,103.088000C36,102.580000,35.839800,102.174000,35.519500,101.869000C35.199200,101.564000,34.759800,101.406000,34.201200,101.395000L32.115200,101.395000L32.115200,104.740000Z" transform="matrix(1 0 0 1 790.64916099999994 85.03099999500000)" opacity="0" fill="rgb(0,0,0)" stroke="none" stroke-width="1"/></g><path id="ey6ojavzp9h118" d="M451.476000,64.152400C451.560000,63.889400,451.415000,63.608000,451.152000,63.523800L446.866000,62.152300C446.603000,62.068100,446.322000,62.213100,446.238000,62.476100C446.154000,62.739100,446.299000,63.020600,446.562000,63.104700L450.371000,64.323800L449.152000,68.133500C449.068000,68.396500,449.213000,68.678000,449.476000,68.762100C449.739000,68.846300,450.021000,68.701300,450.105000,68.438300L451.476000,64.152400ZM385.229000,98.444500L451.229000,64.444500L450.771000,63.555500L384.771000,97.555500L385.229000,98.444500Z" transform="matrix(1 0 0 1 773.07618300000013 -29.67030199999999)" fill="rgb(0,0,0)" stroke="none" stroke-width="1"/><path id="ey6ojavzp9h119" d="M583,173L628.033000,245.750000L537.967000,245.750000L583,173Z" transform="matrix(1 0 0 1 773.07618300000013 -29.67030199999999)" fill="rgb(196,196,196)" stroke="none" stroke-width="1"/><path id="ey6ojavzp9h120" d="M303.500000,0L308.776000,16.238100L325.850000,16.238100L312.037000,26.273800L317.313000,42.511900L303.500000,32.476200L289.687000,42.511900L294.963000,26.273800L281.150000,16.238100L298.224000,16.238100L303.500000,0Z" transform="matrix(1 0 0 1 773.07618300000013 -29.67030199999999)" fill="rgb(196,196,196)" stroke="none" stroke-width="1"/><line id="ey6ojavzp9h121" x1="207.500000" y1="198" x2="207.500000" y2="276" transform="matrix(1 0 0 1 773.07618300000013 -29.67030199999999)" fill="none" stroke="rgb(0,0,0)" stroke-width="1"/><path id="ey6ojavzp9h122" d="M90.096299,301L89.300080,298.829606L87,300.522856L87.740185,291.212427L94.340680,297.872870L91.480996,298.041706L92.277215,300.212100L90.096299,301ZM89.625272,297.755419L90.499792,300.141140L91.411504,299.808363L90.536984,297.422642L92.816755,297.288063L88.296364,292.727054L87.790591,299.108551L89.625272,297.755419Z" transform="matrix(1 0 0 1 438.60751250000010 -211.88272863500032)" fill="rgb(0,0,0)" stroke="none" stroke-width="1"/><path id="ey6ojavzp9h123" d="M81.023400,293.287000C80.808000,293.287000,80.605600,293.201000,80.453400,293.045000L76.349600,288.834000C76.193600,288.674000,76.108000,288.459000,76.109000,288.230000C76.110000,288.001000,76.196000,287.785000,76.351400,287.622000L80.380400,283.374000C80.539800,283.206000,80.751400,283.114000,80.976400,283.114000C81.191800,283.114000,81.394200,283.200000,81.546600,283.356000L85.650600,287.566000C85.806800,287.726000,85.892200,287.941000,85.891200,288.171000C85.890200,288.399000,85.804000,288.615000,85.648600,288.779000L81.619600,293.026000C81.460200,293.194000,81.248400,293.287000,81.023400,293.287000ZM80.976400,283.529000C80.859400,283.529000,80.748600,283.578000,80.665000,283.666000L76.636200,287.914000C76.554800,287.999000,76.509600,288.112000,76.509000,288.231000C76.508600,288.348000,76.551600,288.457000,76.630400,288.538000L80.734400,292.749000C80.893400,292.912000,81.172800,292.905000,81.334800,292.734000L85.363800,288.487000C85.445400,288.401000,85.490800,288.288000,85.491200,288.169000C85.491800,288.052000,85.448600,287.943000,85.369800,287.862000L81.265600,283.652000C81.188600,283.573000,81.086000,283.529000,80.976400,283.529000Z" transform="matrix(1 0 0 1 773.07618300000013 -29.67030199999999)" fill="rgb(0,0,0)" stroke="none" stroke-width="1"/><g id="ey6ojavzp9h124" opacity="0"><g id="ey6ojavzp9h125"><path id="ey6ojavzp9h126" d="M125.282082,247.237000L123.479691,247.237000C123.469775,247.237000,123.460114,247.235093,123.450961,247.231406C123.441808,247.227593,123.433544,247.222126,123.426680,247.215134C123.419688,247.208270,123.414221,247.200006,123.410407,247.190853C123.406594,247.181827,123.404687,247.172166,123.404687,247.162377L123.404687,245.365452C123.404687,245.355664,123.406594,245.345875,123.410407,245.336849C123.414221,245.327823,123.419688,245.319560,123.426680,245.312568C123.433544,245.305703,123.441808,245.300237,123.450961,245.296423C123.460114,245.292736,123.469775,245.290702,123.479691,245.290702L125.282082,245.290702C125.291871,245.290702,125.301660,245.292736,125.310813,245.296423C125.319839,245.300237,125.328102,245.305703,125.335094,245.312568C125.342086,245.319560,125.347552,245.327823,125.351366,245.336849C125.355053,245.345875,125.357087,245.355664,125.357087,245.365452L125.357087,247.162377C125.357087,247.172166,125.355053,247.181827,125.351366,247.190853C125.347552,247.200006,125.342086,247.208270,125.335094,247.215134C125.328102,247.222126,125.319839,247.227593,125.310813,247.231406C125.301660,247.235093,125.291871,247.237000,125.282082,247.237000L125.282082,247.237000ZM123.554568,247.087627L125.207078,247.087627L125.207078,245.440202L123.554568,245.440202L123.554568,247.087627L123.554568,247.087627Z" transform="matrix(1 0 0 1 823.19559633500023 275.18241544500017)" fill="rgb(15,83,165)" stroke="rgb(15,83,165)" stroke-width="0.400000"/><path id="ey6ojavzp9h127" d="M111.922268,252.490000L110.076797,252.490000C110.066644,252.490000,110.056752,252.488041,110.047380,252.484124C110.038008,252.480338,110.029547,252.474592,110.022518,252.467542C110.015359,252.460360,110.009762,252.451873,110.005857,252.442602C110.001952,252.433332,110,252.423277,110,252.413223L110,250.567712C110,250.557527,110.001952,250.547604,110.005857,250.538333C110.009762,250.528932,110.015359,250.520575,110.022518,250.513394C110.029547,250.506212,110.038008,250.500598,110.047380,250.496811C110.056752,250.492894,110.066644,250.490935,110.076797,250.490935L111.922268,250.490935C111.932290,250.490935,111.942313,250.492894,111.951685,250.496811C111.960927,250.500598,111.969387,250.506212,111.976546,250.513394C111.983705,250.520575,111.989303,250.528932,111.993207,250.538333C111.996982,250.547604,111.999065,250.557527,111.999065,250.567712L111.999065,252.413223C111.999065,252.423277,111.996982,252.433332,111.993207,252.442602C111.989303,252.451873,111.983705,252.460360,111.976546,252.467542C111.969387,252.474592,111.960927,252.480338,111.951685,252.484124C111.942313,252.488041,111.932290,252.490000,111.922268,252.490000L111.922268,252.490000ZM110.153464,252.336447L111.845471,252.336447L111.845471,250.644358L110.153464,250.644358L110.153464,252.336447L110.153464,252.336447Z" transform="matrix(1 0 0 1 836.60028311500014 272.60191544500015)" fill="rgb(15,83,165)" stroke="rgb(15,83,165)" stroke-width="0.400000"/><path id="ey6ojavzp9h128" d="M130.628393,252.490000L128.782672,252.490000C128.772649,252.490000,128.762625,252.488041,128.753383,252.484124C128.744010,252.480338,128.735549,252.474592,128.728390,252.467542C128.721360,252.460360,128.715633,252.451873,128.711858,252.442602C128.707953,252.433332,128.706000,252.423277,128.706000,252.413223L128.706000,250.567712C128.706000,250.557527,128.707953,250.547604,128.711858,250.538333C128.715633,250.528932,128.721360,250.520575,128.728390,250.513394C128.735549,250.506212,128.744010,250.500598,128.753383,250.496811C128.762625,250.492894,128.772649,250.490935,128.782672,250.490935L130.628393,250.490935C130.638416,250.490935,130.648440,250.492894,130.657682,250.496811C130.667054,250.500598,130.675516,250.506212,130.682675,250.513394C130.689704,250.520575,130.695432,250.528932,130.699207,250.538333C130.703112,250.547604,130.705065,250.557527,130.705065,250.567712L130.705065,252.413223C130.705065,252.423277,130.703112,252.433332,130.699207,252.442602C130.695432,252.451873,130.689704,252.460360,130.682675,252.467542C130.675516,252.474592,130.667054,252.480338,130.657682,252.484124C130.648440,252.488041,130.638416,252.490000,130.628393,252.490000L130.628393,252.490000ZM128.859474,252.336447L130.551591,252.336447L130.551591,250.644358L128.859474,250.644358L128.859474,252.336447L128.859474,252.336447Z" transform="matrix(1 0 0 1 820.58610933500029 272.60191544500015)" fill="rgb(15,83,165)" stroke="rgb(15,83,165)" stroke-width="0.400000"/><path id="ey6ojavzp9h129" d="M126.918516,231.300000C126.910070,231.300000,126.901733,231.298371,126.894045,231.295112C126.886249,231.291962,126.879210,231.287183,126.873363,231.281318L125.787733,230.195669C125.781777,230.189695,125.777121,230.182743,125.773873,230.174923C125.770733,230.167211,125.769000,230.158847,125.769000,230.150483C125.769000,230.142120,125.770733,230.133865,125.773873,230.126044C125.777121,230.118332,125.781777,230.111272,125.787733,230.105406L126.873363,229.019758C126.885274,229.007810,126.901516,229.001075,126.918516,229.001075C126.935408,229.001075,126.951651,229.007810,126.963670,229.019758L128.049192,230.105406C128.055147,230.111272,128.059803,230.118332,128.063052,230.126044C128.066300,230.133865,128.067925,230.142120,128.067925,230.150483C128.067925,230.158847,128.066300,230.167211,128.063052,230.174923C128.059803,230.182743,128.055147,230.189695,128.049192,230.195669L126.963670,231.281318C126.957714,231.287183,126.950676,231.291962,126.942880,231.295112C126.935192,231.298371,126.926854,231.300000,126.918516,231.300000ZM125.923193,230.150483L126.918516,231.145869L127.913840,230.150483L126.918516,229.155206L125.923193,230.150483Z" transform="matrix(1 0 0 1 823.22310933500023 291.11941544500064)" fill="rgb(15,83,165)" stroke="rgb(15,83,165)" stroke-width="0.400000"/></g><g id="ey6ojavzp9h130" transform="matrix(0.90804234622133 -0.00179154839886 0.00193127692252 0.97886343960559 12.54802485992684 2.45624298070865)"><path id="ey6ojavzp9h131" d="M170.114995,265.088005C170.309266,265.088005,170.499854,265.038286,170.668344,264.943453C170.836835,264.848619,170.977244,264.712354,171.075300,264.548006C171.173816,264.383659,171.226297,264.196754,171.228598,264.006167C171.230440,263.815579,171.182102,263.627753,171.087269,263.461104L173.011560,261.571800C173.246342,261.700700,173.520714,261.741672,173.784039,261.687350C174.046902,261.633028,174.281224,261.487095,174.443730,261.276712C174.605775,261.065868,174.684957,260.804846,174.666542,260.541522C174.647668,260.278198,174.533039,260.030066,174.342451,259.843621C174.152324,259.656716,173.900048,259.543929,173.631660,259.525975C173.363272,259.507561,173.097647,259.585361,172.883120,259.744644C172.668594,259.903928,172.519899,260.133646,172.464656,260.392366C172.409413,260.650626,172.451306,260.919935,172.582047,261.150574L170.657756,263.039878C170.509521,262.957934,170.343793,262.910978,170.173461,262.902231C170.003589,262.893024,169.833718,262.922487,169.677196,262.988318C169.520215,263.053688,169.381187,263.153586,169.270241,263.280184C169.158835,263.407242,169.078733,263.556858,169.035919,263.718904C168.993106,263.880489,168.988503,264.049900,169.022569,264.213787C169.056635,264.377674,169.128911,264.531434,169.232952,264.663556C169.337453,264.796139,169.470956,264.902941,169.623795,264.976598C169.776633,265.050256,169.944664,265.088465,170.114995,265.088005L170.114995,265.088005ZM173.558464,260.116152C173.658822,260.116152,173.756417,260.145615,173.839742,260.199937C173.923066,260.254720,173.987977,260.332520,174.026647,260.423210C174.064856,260.513900,174.074984,260.613798,174.055189,260.710473C174.035854,260.806687,173.987516,260.895536,173.916621,260.965050C173.845726,261.034564,173.755496,261.081981,173.657440,261.100855C173.558924,261.120190,173.457185,261.110523,173.364654,261.072774C173.272122,261.035024,173.193401,260.971495,173.137698,260.889552C173.081995,260.808068,173.052071,260.711854,173.052071,260.613338C173.052071,260.481675,173.105473,260.355077,173.200306,260.261625C173.295600,260.168633,173.424500,260.116152,173.558464,260.116152ZM170.114995,263.497012C170.215353,263.497012,170.312949,263.526475,170.396273,263.580797C170.479598,263.635579,170.544508,263.713380,170.583178,263.804070C170.621388,263.894760,170.631516,263.994658,170.611720,264.091333C170.592385,264.187547,170.544048,264.276396,170.473153,264.345910C170.402258,264.415424,170.312028,264.462840,170.213972,264.481715C170.115456,264.501050,170.013717,264.491383,169.921185,264.453633C169.828654,264.415884,169.749933,264.352355,169.694229,264.270411C169.638526,264.188928,169.608603,264.092714,169.608603,263.994197C169.608603,263.862535,169.662004,263.735937,169.756838,263.642485C169.852132,263.549493,169.981032,263.497012,170.114995,263.497012L170.114995,263.497012Z" transform="matrix(0.99994722251302 -0.01027385947442 0.01027385947442 0.99994722251302 855.38195762731152 260.26714538807033)" fill="rgb(15,83,165)" stroke="none" stroke-width="1"/><path id="ey6ojavzp9h132" d="M178.319101,263.373739C178.319101,263.554716,178.245954,263.727495,178.116054,263.855503C177.986154,263.982881,177.809592,264.054767,177.625462,264.054767L175.822000,264.054767L175.822000,264.872000L177.625462,264.872000C178.030295,264.872000,178.418733,264.714355,178.704386,264.433116C178.990670,264.152507,179.151468,263.771005,179.151468,263.373739L179.151468,261.603068L178.319101,261.603068L178.319101,263.373739Z" transform="matrix(0.99994722251302 -0.01027385947442 0.01027385947442 0.99994722251302 851.43632139461715 261.08534300064838)" fill="rgb(15,83,165)" stroke="none" stroke-width="1"/><path id="ey6ojavzp9h133" d="M169.222000,256.545442L169.222000,258.392000L170.090040,258.392000L170.090040,256.545442C170.090040,256.357367,170.166322,256.176525,170.301789,256.043031C170.437914,255.910195,170.622043,255.835228,170.813407,255.835228L172.694160,255.835228L172.694160,254.982970L170.813407,254.982970C170.391224,254.982970,169.986796,255.147372,169.688243,255.440664C169.389690,255.733956,169.222000,256.131150,169.222000,256.545442Z" transform="matrix(0.99994722251302 -0.01027385947442 0.01027385947442 0.99994722251302 854.61757565711264 264.11319764473615)" fill="rgb(15,83,165)" stroke="none" stroke-width="1"/></g><g id="ey6ojavzp9h134" transform="matrix(1 0 0 1 115.69526502000031 -33.46557043500010)"><path id="ey6ojavzp9h135" d="M183.471856,284.034729L183.250000,284.034729L183.250000,284.250000L183.471856,284.250000L183.471856,284.034729Z" transform="matrix(1 0 0 1 649.11707998000031 236.13109832000021)" fill="rgb(15,83,165)" stroke="none" stroke-width="1"/><path id="ey6ojavzp9h136" d="M184.346349,284.034729L184.125000,284.034729L184.125000,284.250000L184.346349,284.250000L184.346349,284.034729Z" transform="matrix(1 0 0 1 649.11707998000031 236.13109832000021)" fill="rgb(15,83,165)" stroke="none" stroke-width="1"/><path id="ey6ojavzp9h137" d="M186.096349,286.584729L185.875000,286.584729L185.875000,286.800000L186.096349,286.800000L186.096349,286.584729Z" transform="matrix(1 0 0 1 647.11707998000031 231.13109832000021)" fill="rgb(15,83,165)" stroke="none" stroke-width="1"/><path id="ey6ojavzp9h138" d="M185.221856,286.584729L185,286.584729L185,286.800000L185.221856,286.800000L185.221856,286.584729Z" transform="matrix(1 0 0 1 647.11707998000031 231.13109832000021)" fill="rgb(15,83,165)" stroke="none" stroke-width="1"/><path id="ey6ojavzp9h139" d="M185.221856,289.134729L185,289.134729L185,289.350000L185.221856,289.350000L185.221856,289.134729Z" transform="matrix(1 0 0 1 648.11707998000031 228.23873393000019)" fill="rgb(15,83,165)" stroke="none" stroke-width="1"/><path id="ey6ojavzp9h140" d="M179.982760,291.259729L178.875000,291.259729L178.875000,291.475000L179.982760,291.475000L179.982760,291.259729Z" transform="matrix(1 0 0 1 651.08225450500026 230.42569693000030)" fill="rgb(15,83,165)" stroke="none" stroke-width="1"/><path id="ey6ojavzp9h141" d="M183.429393,289.730661C183.734825,289.730661,183.983020,289.489050,183.983020,289.192736L183.983020,288.008491L184.869431,288.008491L184.869431,286.501592L182.875260,286.501592L182.875260,288.008491L183.761671,288.008491L183.761671,289.192736C183.761671,289.370524,183.612754,289.515389,183.429393,289.515389L182.633143,289.515389C182.599713,289.424216,182.525761,289.352290,182.432054,289.319872L182.432054,289.065093C182.560711,289.020519,182.653910,288.901993,182.653910,288.761687L182.653910,288.331144C182.653910,288.153356,182.504487,288.008491,182.321126,288.008491L180.548305,288.008491C180.364944,288.008491,180.216027,288.153356,180.216027,288.331144L180.216027,288.761687C180.216027,288.901993,180.309227,289.020519,180.437377,289.065093L180.437377,289.319872C180.343670,289.352290,180.269718,289.424216,180.236288,289.515389L179.440544,289.515389C179.257184,289.515389,179.108267,289.370524,179.108267,289.192736L179.108267,288.008491L179.994678,288.008491L179.994678,286.501592L178,286.501592L178,288.008491L178.886411,288.008491L178.886411,289.192736C178.886411,289.489050,179.135112,289.730661,179.440544,289.730661L180.216027,289.730661L180.216027,289.945932L179.440544,289.945932C179.135112,289.945932,178.886411,290.187542,178.886411,290.484363L178.886411,291.668101L178,291.668101L178,293.175000L179.994678,293.175000L179.994678,291.668101L179.108267,291.668101L179.108267,290.484363C179.108267,290.306068,179.257184,290.161203,179.440544,290.161203L180.236288,290.161203C180.269718,290.252377,180.343670,290.324303,180.437377,290.356720L180.437377,290.611500C180.309227,290.656074,180.216027,290.774599,180.216027,290.914905L180.216027,291.345448C180.216027,291.523237,180.364944,291.668101,180.548305,291.668101L182.321126,291.668101C182.504487,291.668101,182.653910,291.523237,182.653910,291.345448L182.653910,290.914905C182.653910,290.774599,182.560711,290.656074,182.432054,290.611500L182.432054,290.356720C182.525761,290.324303,182.599713,290.252377,182.633143,290.161203L183.429393,290.161203C183.612754,290.161203,183.761671,290.306068,183.761671,290.484363L183.761671,291.668101L182.875260,291.668101L182.875260,293.175000L184.869431,293.175000L184.869431,291.668101L183.983020,291.668101L183.983020,290.484363C183.983020,290.187542,183.734825,289.945932,183.429393,289.945932L182.653910,289.945932L182.653910,289.730661L183.429393,289.730661ZM183.096609,286.716864L184.648082,286.716864L184.648082,287.793220L183.096609,287.793220L183.096609,286.716864ZM178.221856,286.716864L179.772822,286.716864L179.772822,287.793220L178.221856,287.793220L178.221856,286.716864ZM179.772822,292.959729L178.221856,292.959729L178.221856,291.883373L179.772822,291.883373L179.772822,292.959729ZM184.648082,292.959729L183.096609,292.959729L183.096609,291.883373L184.648082,291.883373L184.648082,292.959729ZM182.210198,289.084847L182.210198,289.300118L180.659233,289.300118L180.659233,289.084847L182.210198,289.084847ZM180.437377,288.331651C180.437377,288.271881,180.487522,288.223762,180.548305,288.223762L182.321126,288.223762C182.382415,288.223762,182.432054,288.271881,182.432054,288.331651L182.432054,288.762193C182.432054,288.821456,182.382415,288.869576,182.321126,288.869576L180.548305,288.869576C180.487522,288.869576,180.437377,288.821456,180.437377,288.762193L180.437377,288.331651ZM180.659233,290.591745L180.659233,290.376474L182.210198,290.376474L182.210198,290.591745L180.659233,290.591745ZM182.432054,291.345448C182.432054,291.404711,182.382415,291.452830,182.321126,291.452830L180.548305,291.452830C180.487522,291.452830,180.437377,291.404711,180.437377,291.345448L180.437377,290.914905C180.437377,290.855136,180.487522,290.807017,180.548305,290.807017L182.321126,290.807017C182.382415,290.807017,182.432054,290.855136,182.432054,290.914905L182.432054,291.345448ZM182.432054,290.053821C182.432054,290.113084,182.382415,290.161203,182.321126,290.161203L180.548305,290.161203C180.487522,290.161203,180.437377,290.113084,180.437377,290.053821L180.437377,289.623278C180.437377,289.563509,180.487522,289.515389,180.548305,289.515389L182.321126,289.515389C182.382415,289.515389,182.432054,289.563509,182.432054,289.623278L182.432054,290.053821Z" transform="matrix(1 0 0 1 651.65013631500028 229.35466806500040)" fill="rgb(15,83,165)" stroke="none" stroke-width="1"/><path id="ey6ojavzp9h142" d="M189.608267,291.259729L188.500000,291.259729L188.500000,291.475000L189.608267,291.475000L189.608267,291.259729Z" transform="matrix(1 0 0 1 646.57741798000029 230.31806132000031)" fill="rgb(15,83,165)" stroke="none" stroke-width="1"/></g><g id="ey6ojavzp9h143"><path id="ey6ojavzp9h144" d="M161.699000,275C161.462000,275,160.040000,275,159.327000,275.309000C159.154000,275.383000,159,275.511000,159,275.689000C159,275.692000,159.001000,275.694000,159.001000,275.696000C159,276.288000,159.001000,276.858000,159.001000,277.398000C159.024000,277.428000,159.047000,277.466000,159.065000,277.494000C159.045000,277.533000,159.028000,277.555000,159.001000,277.596000C159,278.197000,159.003000,278.801000,159,279.400000C159,279.646000,159.295000,279.764000,159.495000,279.819000C159.831000,279.935000,160.673000,280.029000,161.583000,280.040000L161.583000,279.586000C160.842000,279.590000,160.130000,279.534000,159.636000,279.400000C159.554000,279.376000,159.500000,279.352000,159.470000,279.335000L159.470000,277.691000C159.481000,277.674000,159.491000,277.658000,159.502000,277.641000C159.731000,277.702000,160.031000,277.751000,160.397000,277.787000C160.766000,277.823000,161.173000,277.842000,161.583000,277.845000C161.583000,277.772000,161.583000,277.698000,161.583000,277.625000C161.180000,277.622000,160.781000,277.604000,160.421000,277.569000C160.051000,277.533000,159.753000,277.481000,159.543000,277.424000C159.528000,277.374000,159.497000,277.338000,159.470000,277.299000L159.470000,276.125000C160.058000,276.325000,161.021000,276.377000,161.699000,276.379000C162.051000,276.379000,163.323000,276.352000,163.929000,276.125000L163.929000,277.303000C163.905000,277.337000,163.880000,277.370000,163.863000,277.413000L164.390000,277.413000C164.394000,277.408000,164.396000,277.405000,164.399000,277.400000C164.399000,276.789000,164.399000,276.285000,164.399000,275.691000L164.399000,275.691000C164.399000,275.691000,164.399000,275.690000,164.399000,275.689000C164.399000,275.493000,164.211000,275.364000,164.072000,275.309000C163.310000,275.068000,162.474000,275.005000,161.699000,275L161.699000,275ZM161.699000,275.438000C162.417000,275.493000,163.181000,275.450000,163.818000,275.689000C163.172000,275.901000,162.323000,275.939000,161.699000,275.940000C160.983000,275.886000,160.120000,275.910000,159.581000,275.689000C160.104000,275.486000,161.076000,275.440000,161.699000,275.438000Z" transform="matrix(1 0 0 1 786.85268300000018 220.71242532500025)" fill="rgb(15,83,165)" stroke="none" stroke-width="1"/><path id="ey6ojavzp9h145" d="M161.695000,277.516000L161.695000,278.172000L161.695000,280.034000L164.400000,280.034000L164.400000,277.517000C163.458000,277.515000,162.502000,277.516000,161.695000,277.516000L161.695000,277.516000ZM161.929000,277.736000L164.154000,277.736000L164.154000,277.954000L161.929000,277.954000L161.929000,277.736000ZM161.929000,278.172000L164.165000,278.172000L164.165000,279.815000L161.929000,279.815000L161.929000,278.172000Z" transform="matrix(1 0 0 1 786.85268300000018 220.71242532500025)" fill="rgb(15,83,165)" stroke="none" stroke-width="1"/><path id="ey6ojavzp9h146" d="M162.164000,278.391000L162.164000,278.501000L162.515000,278.501000L162.515000,278.391000L162.164000,278.391000ZM162.749000,278.391000L162.749000,278.501000L163.217000,278.501000L163.217000,278.391000L162.749000,278.391000ZM163.452000,278.391000L163.452000,278.501000L163.920000,278.501000L163.920000,278.391000L163.452000,278.391000ZM162.164000,278.720000L162.164000,278.828000L162.515000,278.828000L162.515000,278.720000L162.164000,278.720000ZM162.749000,278.720000L162.749000,278.828000L163.217000,278.828000L163.217000,278.720000L162.749000,278.720000ZM163.452000,278.720000L163.452000,278.828000L163.920000,278.828000L163.920000,278.720000L163.452000,278.720000ZM162.164000,279.047000L162.164000,279.157000L162.515000,279.157000L162.515000,279.047000L162.164000,279.047000ZM162.749000,279.047000L162.749000,279.157000L163.217000,279.157000L163.217000,279.047000L162.749000,279.047000ZM163.452000,279.047000L163.452000,279.157000L163.920000,279.157000L163.920000,279.047000L163.452000,279.047000ZM162.164000,279.376000L162.164000,279.485000L162.515000,279.485000L162.515000,279.376000L162.164000,279.376000ZM162.749000,279.376000L162.749000,279.485000L163.217000,279.485000L163.217000,279.376000L162.749000,279.376000ZM163.452000,279.376000L163.452000,279.485000L163.920000,279.485000L163.920000,279.376000L163.452000,279.376000Z" transform="matrix(1 0 0 1 786.85268300000018 220.71242532500025)" fill="rgb(15,83,165)" stroke="none" stroke-width="1"/></g></g><script><![CDATA[!function(t,n){"object"==typeof exports&&"undefined"!=typeof module?module.exports=n():"function"==typeof define&&define.amd?define(n):(t=t||self).__SVGATOR_PLAYER__=n()}(this,(function(){"use strict";function t(n){return(t="function"==typeof Symbol&&"symbol"==typeof Symbol.iterator?function(t){return typeof t}:function(t){return t&&"function"==typeof Symbol&&t.constructor===Symbol&&t!==Symbol.prototype?"symbol":typeof t})(n)}function n(t,n){if(!(t instanceof n))throw new TypeError("Cannot call a class as a function")}function r(t,n){for(var r=0;r<n.length;r++){var e=n[r];e.enumerable=e.enumerable||!1,e.configurable=!0,"value"in e&&(e.writable=!0),Object.defineProperty(t,e.key,e)}}function e(t,n,e){return n&&r(t.prototype,n),e&&r(t,e),t}function i(t){return(i=Object.setPrototypeOf?Object.getPrototypeOf:function(t){return t.__proto__||Object.getPrototypeOf(t)})(t)}function o(t,n){return(o=Object.setPrototypeOf||function(t,n){return t.__proto__=n,t})(t,n)}function u(t,n){return!n||"object"!=typeof n&&"function"!=typeof n?function(t){if(void 0===t)throw new ReferenceError("this hasn't been initialised - super() hasn't been called");return t}(t):n}function a(t){var n=function(){if("undefined"==typeof Reflect||!Reflect.construct)return!1;if(Reflect.construct.sham)return!1;if("function"==typeof Proxy)return!0;try{return Date.prototype.toString.call(Reflect.construct(Date,[],(function(){}))),!0}catch(t){return!1}}();return function(){var r,e=i(t);if(n){var o=i(this).constructor;r=Reflect.construct(e,arguments,o)}else r=e.apply(this,arguments);return u(this,r)}}function l(t,n,r){return(l="undefined"!=typeof Reflect&&Reflect.get?Reflect.get:function(t,n,r){var e=function(t,n){for(;!Object.prototype.hasOwnProperty.call(t,n)&&null!==(t=i(t)););return t}(t,n);if(e){var o=Object.getOwnPropertyDescriptor(e,n);return o.get?o.get.call(r):o.value}})(t,n,r||t)}var f=Math.abs;function s(t){return t}function c(t,n,r){var e=1-r;return 3*r*e*(t*e+n*r)+r*r*r}function h(){var t=arguments.length>0&&void 0!==arguments[0]?arguments[0]:0,n=arguments.length>1&&void 0!==arguments[1]?arguments[1]:0,r=arguments.length>2&&void 0!==arguments[2]?arguments[2]:1,e=arguments.length>3&&void 0!==arguments[3]?arguments[3]:1;return t<0||t>1||r<0||r>1?null:f(t-n)<=1e-5&&f(r-e)<=1e-5?s:function(i){if(i<=0)return t>0?i*n/t:0===n&&r>0?i*e/r:0;if(i>=1)return r<1?1+(i-1)*(e-1)/(r-1):1===r&&t<1?1+(i-1)*(n-1)/(t-1):1;for(var o,u=0,a=1;u<a;){var l=c(t,r,o=(u+a)/2);if(f(i-l)<1e-5)break;l<i?u=o:a=o}return c(n,e,o)}}function v(){return 1}function y(t){return 1===t?1:0}function d(){var t=arguments.length>0&&void 0!==arguments[0]?arguments[0]:1,n=arguments.length>1&&void 0!==arguments[1]?arguments[1]:0;if(1===t){if(0===n)return y;if(1===n)return v}var r=1/t;return function(t){return t>=1?1:(t+=n*r)-t%r}}function g(t){var n=arguments.length>1&&void 0!==arguments[1]?arguments[1]:2;if(Number.isInteger(t))return t;var r=Math.pow(10,n);return Math.round(t*r)/r}var p=Math.PI/180;function m(t,n,r){return t>=.5?r:n}function b(t,n,r){return 0===t||n===r?n:t*(r-n)+n}function w(t,n,r){var e=b(t,n,r);return e<=0?0:e}function k(t,n,r){return 0===t?n:1===t?r:{x:b(t,n.x,r.x),y:b(t,n.y,r.y)}}function x(t,n,r){var e=function(t,n,r){return Math.round(b(t,n,r))}(t,n,r);return e<=0?0:e>=255?255:e}function A(t,n,r){return 0===t?n:1===t?r:{r:x(t,n.r,r.r),g:x(t,n.g,r.g),b:x(t,n.b,r.b),a:b(t,null==n.a?1:n.a,null==r.a?1:r.a)}}function _(t,n,r){if(0===t)return n;if(1===t)return r;var e=n.length;if(e!==r.length)return m(t,n,r);for(var i=[],o=0;o<e;o++)i.push(A(t,n[o],r[o]));return i}function S(t,n){for(var r=[],e=0;e<t;e++)r.push(n);return r}function O(t,n){if(--n<=0)return t;var r=(t=Object.assign([],t)).length;do{for(var e=0;e<r;e++)t.push(t[e])}while(--n>0);return t}var M,j=function(){function t(r){n(this,t),this.list=r,this.length=r.length}return e(t,[{key:"setAttribute",value:function(t,n){for(var r=this.list,e=0;e<this.length;e++)r[e].setAttribute(t,n)}},{key:"removeAttribute",value:function(t){for(var n=this.list,r=0;r<this.length;r++)n[r].removeAttribute(t)}},{key:"style",value:function(t,n){for(var r=this.list,e=0;e<this.length;e++)r[e].style[t]=n}}]),t}(),F=/-./g,P=function(t,n){return n.toUpperCase()};function q(t){return"function"==typeof t?t:m}function B(t){return t?"function"==typeof t?t:Array.isArray(t)?function(t){var n=arguments.length>1&&void 0!==arguments[1]?arguments[1]:s;if(!Array.isArray(t))return n;switch(t.length){case 1:return d(t[0])||n;case 2:return d(t[0],t[1])||n;case 4:return h(t[0],t[1],t[2],t[3])||n}return n}(t,null):function(t,n){var r=arguments.length>2&&void 0!==arguments[2]?arguments[2]:s;switch(t){case"linear":return s;case"steps":return d(n.steps||1,n.jump||0)||r;case"bezier":case"cubic-bezier":return h(n.x1||0,n.y1||0,n.x2||0,n.y2||0)||r}return r}(t.type,t.value,null):null}function I(t,n,r){var e=arguments.length>3&&void 0!==arguments[3]&&arguments[3],i=n.length-1;if(t<=n[0].t)return e?[0,0,n[0].v]:n[0].v;if(t>=n[i].t)return e?[i,1,n[i].v]:n[i].v;var o,u=n[0],a=null;for(o=1;o<=i;o++){if(!(t>n[o].t)){a=n[o];break}u=n[o]}return null==a?e?[i,1,n[i].v]:n[i].v:u.t===a.t?e?[o,1,a.v]:a.v:(t=(t-u.t)/(a.t-u.t),u.e&&(t=u.e(t)),e?[o,t,r(t,u.v,a.v)]:r(t,u.v,a.v))}function R(t,n){var r=arguments.length>2&&void 0!==arguments[2]?arguments[2]:null;return t&&t.length?"function"!=typeof n?null:("function"!=typeof r&&(r=null),function(e){var i=I(e,t,n);return null!=i&&r&&(i=r(i)),i}):null}function E(t,n){return t.t-n.t}function T(n,r,e,i,o){var u,a="@"===e[0],l="#"===e[0],f=M[e],s=m;switch(a?(u=e.substr(1),e=u.replace(F,P)):l&&(e=e.substr(1)),t(f)){case"function":if(s=f(i,o,I,B,e,a,r,n),l)return s;break;case"string":s=R(i,q(f));break;case"object":if((s=R(i,q(f.i),f.f))&&"function"==typeof f.u)return f.u(r,s,e,a,n)}return s?function(t,n,r){var e=arguments.length>3&&void 0!==arguments[3]&&arguments[3];if(e)return t instanceof j?function(e){return t.style(n,r(e))}:function(e){return t.style[n]=r(e)};if(Array.isArray(n)){var i=n.length;return function(e){var o=r(e);if(null==o)for(var u=0;u<i;u++)t[u].removeAttribute(n);else for(var a=0;a<i;a++)t[a].setAttribute(n,o)}}return function(e){var i=r(e);null==i?t.removeAttribute(n):t.setAttribute(n,i)}}(r,e,s,a):null}function z(n,r,e,i){if(!i||"object"!==t(i))return null;var o=null,u=null;return Array.isArray(i)?u=function(t){if(!t||!t.length)return null;for(var n=0;n<t.length;n++)t[n].e&&(t[n].e=B(t[n].e));return t.sort(E)}(i):(u=i.keys,o=i.data||null),u?T(n,r,e,u,o):null}function C(t,n,r){if(!r)return null;var e=[];for(var i in r)if(r.hasOwnProperty(i)){var o=z(t,n,i,r[i]);o&&e.push(o)}return e.length?e:null}function D(t,n){if(!n.duration||n.duration<0)return null;var r=function(t,n){if(!n)return null;var r=[];if(Array.isArray(n))for(var e=n.length,i=0;i<e;i++){var o=n[i];if(2===o.length){var u=null;if("string"==typeof o[0])u=t.getElementById(o[0]);else if(Array.isArray(o[0])){u=[];for(var a=0;a<o[0].length;a++)if("string"==typeof o[0][a]){var l=t.getElementById(o[0][a]);l&&u.push(l)}u=u.length?1===u.length?u[0]:new j(u):null}if(u){var f=C(t,u,o[1]);f&&(r=r.concat(f))}}}else for(var s in n)if(n.hasOwnProperty(s)){var c=t.getElementById(s);if(c){var h=C(t,c,n[s]);h&&(r=r.concat(h))}}return r.length?r:null}(t,n.elements);return r?function(t,n){var r=arguments.length>2&&void 0!==arguments[2]?arguments[2]:1/0,e=arguments.length>3&&void 0!==arguments[3]?arguments[3]:1,i=arguments.length>4&&void 0!==arguments[4]&&arguments[4],o=arguments.length>5&&void 0!==arguments[5]?arguments[5]:1,u=t.length,a=e>0?n:0;i&&r%2==0&&(a=n-a);var l=null;return function(f,s){var c=f%n,h=1+(f-c)/n;s*=e,i&&h%2==0&&(s=-s);var v=!1;if(h>r)c=a,v=!0,-1===o&&(c=e>0?0:n);else if(s<0&&(c=n-c),c===l)return!1;l=c;for(var y=0;y<u;y++)t[y](c);return v}}(r,n.duration,n.iterations||1/0,n.direction||1,!!n.alternate,n.fill||1):null}function N(t,n){if(M=n,!t||!t.root||!Array.isArray(t.animations))return null;for(var r=document.getElementsByTagName("svg"),e=!1,i=0;i<r.length;i++)if(r[i].id===t.root&&!r[i].svgatorAnimation){(e=r[i]).svgatorAnimation=!0;break}if(!e)return null;var o=t.animations.map((function(t){return D(e,t)})).filter((function(t){return!!t}));return o.length?{element:e,animations:o,animationSettings:t.animationSettings,options:t.options||void 0}:null}var L=function(){function t(r,e){var i=arguments.length>2&&void 0!==arguments[2]?arguments[2]:{};n(this,t),this._id=0,this._running=!1,this._rollingBack=!1,this._animations=r,this.duration=e.duration,this.alternate=e.alternate,this.fill=e.fill,this.iterations=e.iterations,this.direction=i.direction||1,this.speed=i.speed||1,this.fps=i.fps||100,this.offset=i.offset||0,this.rollbackStartOffset=0}return e(t,[{key:"_rollback",value:function(){var t=this,n=1/0,r=null;this.rollbackStartOffset=this.offset,this._rollingBack||(this._rollingBack=!0,this._running=!0);this._id=window.requestAnimationFrame((function e(i){if(t._rollingBack){null==r&&(r=i);var o=i-r,u=t.rollbackStartOffset-o,a=Math.round(u*t.speed);if(a>t.duration&&n!=1/0){var l=!!t.alternate&&a/t.duration%2>1,f=a%t.duration;a=(f+=l?t.duration:0)||t.duration}var s=t.fps?1e3/t.fps:0,c=Math.max(0,a);if(c<n-s){t.offset=c,n=c;for(var h=t._animations,v=h.length,y=0;y<v;y++)h[y](c,t.direction)}var d=!1;if(t.iterations>0&&-1===t.fill){var g=t.iterations*t.duration,p=g==a;a=p?0:a,t.offset=p?0:t.offset,d=a>g}a>0&&t.offset>=a&&!d?t._id=window.requestAnimationFrame(e):t.stop()}}))}},{key:"_start",value:function(){var t=this,n=arguments.length>0&&void 0!==arguments[0]?arguments[0]:0,r=-1/0,e=null,i={},o=function o(u){t._running=!0,null==e&&(e=u);var a=Math.round((u-e+n)*t.speed),l=t.fps?1e3/t.fps:0;if(a>r+l&&!t._rollingBack){t.offset=a,r=a;for(var f=t._animations,s=f.length,c=0,h=0;h<s;h++)i[h]?c++:(i[h]=f[h](a,t.direction),i[h]&&c++);if(c===s)return void t._stop()}t._id=window.requestAnimationFrame(o)};this._id=window.requestAnimationFrame(o)}},{key:"_stop",value:function(){this._id&&window.cancelAnimationFrame(this._id),this._running=!1,this._rollingBack=!1}},{key:"play",value:function(){!this._rollingBack&&this._running||(this._rollingBack=!1,this.rollbackStartOffset>this.duration&&(this.offset=this.rollbackStartOffset-(this.rollbackStartOffset-this.offset)%this.duration,this.rollbackStartOffset=0),this._start(this.offset))}},{key:"stop",value:function(){this._stop(),this.offset=0,this.rollbackStartOffset=0;var t=this.direction,n=this._animations;window.requestAnimationFrame((function(){for(var r=0;r<n.length;r++)n[r](0,t)}))}},{key:"reachedToEnd",value:function(){return this.iterations>0&&this.offset>=this.iterations*this.duration}},{key:"restart",value:function(){this._stop(),this.offset=0,this._start()}},{key:"pause",value:function(){this._stop()}},{key:"reverse",value:function(){this.direction=-this.direction}}],[{key:"build",value:function(n,r){return(n=N(n,r))?{el:n.element,options:n.options||{},player:new t(n.animations,n.animationSettings,n.options)}:null}}]),t}();!function(){for(var t=0,n=["ms","moz","webkit","o"],r=0;r<n.length&&!window.requestAnimationFrame;++r)window.requestAnimationFrame=window[n[r]+"RequestAnimationFrame"],window.cancelAnimationFrame=window[n[r]+"CancelAnimationFrame"]||window[n[r]+"CancelRequestAnimationFrame"];window.requestAnimationFrame||(window.requestAnimationFrame=function(n){var r=Date.now(),e=Math.max(0,16-(r-t)),i=window.setTimeout((function(){n(r+e)}),e);return t=r+e,i},window.cancelAnimationFrame=window.clearTimeout)}();var V=/\.0+$/g;function $(t){return Number.isInteger(t)?t+"":t.toFixed(6).replace(V,"")}function G(t){var n=arguments.length>1&&void 0!==arguments[1]?arguments[1]:" ";return t&&t.length?t.map($).join(n):""}function H(t){return t?null==t.a||t.a>=1?"rgb("+t.r+","+t.g+","+t.b+")":"rgba("+t.r+","+t.g+","+t.b+","+t.a+")":"transparent"}var Q={f:null,i:function(t,n,r){return 0===t?n:1===t?r:{x:w(t,n.x,r.x),y:w(t,n.y,r.y)}},u:function(t,n){return function(r){var e=n(r);t.setAttribute("rx",$(e.x)),t.setAttribute("ry",$(e.y))}}},U={f:null,i:function(t,n,r){return 0===t?n:1===t?r:{width:w(t,n.width,r.width),height:w(t,n.height,r.height)}},u:function(t,n){return function(r){var e=n(r);t.setAttribute("width",$(e.width)),t.setAttribute("height",$(e.height))}}},Y=Math.sin,Z=Math.cos,J=Math.acos,K=Math.asin,W=Math.tan,X=Math.atan2,tt=Math.PI/180,nt=180/Math.PI,rt=Math.sqrt,et=function(){function t(){var r=arguments.length>0&&void 0!==arguments[0]?arguments[0]:1,e=arguments.length>1&&void 0!==arguments[1]?arguments[1]:0,i=arguments.length>2&&void 0!==arguments[2]?arguments[2]:0,o=arguments.length>3&&void 0!==arguments[3]?arguments[3]:1,u=arguments.length>4&&void 0!==arguments[4]?arguments[4]:0,a=arguments.length>5&&void 0!==arguments[5]?arguments[5]:0;n(this,t),this.m=[r,e,i,o,u,a],this.i=null,this.w=null,this.s=null}return e(t,[{key:"point",value:function(t,n){var r=this.m;return{x:r[0]*t+r[2]*n+r[4],y:r[1]*t+r[3]*n+r[5]}}},{key:"translateSelf",value:function(){var t=arguments.length>0&&void 0!==arguments[0]?arguments[0]:0,n=arguments.length>1&&void 0!==arguments[1]?arguments[1]:0;if(!t&&!n)return this;var r=this.m;return r[4]+=r[0]*t+r[2]*n,r[5]+=r[1]*t+r[3]*n,this.w=this.s=this.i=null,this}},{key:"rotateSelf",value:function(){var t=arguments.length>0&&void 0!==arguments[0]?arguments[0]:0;if(t%=360){var n=Y(t*=tt),r=Z(t),e=this.m,i=e[0],o=e[1];e[0]=i*r+e[2]*n,e[1]=o*r+e[3]*n,e[2]=e[2]*r-i*n,e[3]=e[3]*r-o*n,this.w=this.s=this.i=null}return this}},{key:"scaleSelf",value:function(){var t=arguments.length>0&&void 0!==arguments[0]?arguments[0]:1,n=arguments.length>1&&void 0!==arguments[1]?arguments[1]:1;if(1!==t||1!==n){var r=this.m;r[0]*=t,r[1]*=t,r[2]*=n,r[3]*=n,this.w=this.s=this.i=null}return this}},{key:"skewSelf",value:function(t,n){if(n%=360,(t%=360)||n){var r=this.m,e=r[0],i=r[1],o=r[2],u=r[3];t&&(t=W(t*tt),r[2]+=e*t,r[3]+=i*t),n&&(n=W(n*tt),r[0]+=o*n,r[1]+=u*n),this.w=this.s=this.i=null}return this}},{key:"resetSelf",value:function(){var t=arguments.length>0&&void 0!==arguments[0]?arguments[0]:1,n=arguments.length>1&&void 0!==arguments[1]?arguments[1]:0,r=arguments.length>2&&void 0!==arguments[2]?arguments[2]:0,e=arguments.length>3&&void 0!==arguments[3]?arguments[3]:1,i=arguments.length>4&&void 0!==arguments[4]?arguments[4]:0,o=arguments.length>5&&void 0!==arguments[5]?arguments[5]:0,u=this.m;return u[0]=t,u[1]=n,u[2]=r,u[3]=e,u[4]=i,u[5]=o,this.w=this.s=this.i=null,this}},{key:"recomposeSelf",value:function(){var t=arguments.length>0&&void 0!==arguments[0]?arguments[0]:null,n=arguments.length>1&&void 0!==arguments[1]?arguments[1]:null,r=arguments.length>2&&void 0!==arguments[2]?arguments[2]:null,e=arguments.length>3&&void 0!==arguments[3]?arguments[3]:null,i=arguments.length>4&&void 0!==arguments[4]?arguments[4]:null;return this.isIdentity||this.resetSelf(),t&&(t.x||t.y)&&this.translateSelf(t.x,t.y),n&&this.rotateSelf(n),r&&(r.x&&this.skewSelf(r.x,0),r.y&&this.skewSelf(0,r.y)),!e||1===e.x&&1===e.y||this.scaleSelf(e.x,e.y),i&&(i.x||i.y)&&this.translateSelf(i.x,i.y),this}},{key:"decompose",value:function(){var t=arguments.length>0&&void 0!==arguments[0]?arguments[0]:0,n=arguments.length>1&&void 0!==arguments[1]?arguments[1]:0,r=this.m,e=r[0]*r[0]+r[1]*r[1],i=[[r[0],r[1]],[r[2],r[3]]],o=rt(e);if(0===o)return{origin:{x:r[4],y:r[5]},translate:{x:t,y:n},scale:{x:0,y:0},skew:{x:0,y:0},rotate:0};i[0][0]/=o,i[0][1]/=o;var u=r[0]*r[3]-r[1]*r[2]<0;u&&(o=-o);var a=i[0][0]*i[1][0]+i[0][1]*i[1][1];i[1][0]-=i[0][0]*a,i[1][1]-=i[0][1]*a;var l=rt(i[1][0]*i[1][0]+i[1][1]*i[1][1]);if(0===l)return{origin:{x:r[4],y:r[5]},translate:{x:t,y:n},scale:{x:o,y:0},skew:{x:0,y:0},rotate:0};i[1][0]/=l,i[1][1]/=l,a/=l;var f=0;return i[1][1]<0?(f=J(i[1][1])*nt,i[0][1]<0&&(f=360-f)):f=K(i[0][1])*nt,u&&(f=-f),a=X(a,rt(i[0][0]*i[0][0]+i[0][1]*i[0][1]))*nt,{origin:{x:r[4],y:r[5]},translate:{x:t,y:n},scale:{x:o,y:l},skew:{x:a,y:0},rotate:f}}},{key:"toString",value:function(){return null===this.s&&(this.s="matrix("+this.m.map(ot).join(" ")+")"),this.s}},{key:"determinant",get:function(){var t=this.m;return t[0]*t[3]-t[1]*t[2]}},{key:"isIdentity",get:function(){if(null===this.i){var t=this.m;this.i=1===t[0]&&0===t[1]&&0===t[2]&&1===t[3]&&0===t[4]&&0===t[5]}return this.i}}]),t}(),it=/\.0+$/;function ot(t){return Number.isInteger(t)?t:t.toFixed(14).replace(it,"")}Object.freeze({M:2,L:2,Z:0,H:1,V:1,C:6,Q:4,T:2,S:4,A:7});function ut(t,n,r){return t+(n-t)*r}function at(t,n,r){var e=arguments.length>3&&void 0!==arguments[3]&&arguments[3],i={x:ut(t.x,n.x,r),y:ut(t.y,n.y,r)};return e&&(i.a=lt(t,n)),i}function lt(t,n){return Math.atan2(n.y-t.y,n.x-t.x)}function ft(t,n,r,e){var i=1-e;return i*i*t+2*i*e*n+e*e*r}function st(t,n,r,e){return 2*(1-e)*(n-t)+2*e*(r-n)}function ct(t,n,r,e){var i=arguments.length>4&&void 0!==arguments[4]&&arguments[4],o={x:ft(t.x,n.x,r.x,e),y:ft(t.y,n.y,r.y,e)};return i&&(o.a=ht(t,n,r,e)),o}function ht(t,n,r,e){return Math.atan2(st(t.y,n.y,r.y,e),st(t.x,n.x,r.x,e))}function vt(t,n,r,e,i){var o=i*i;return i*o*(e-t+3*(n-r))+3*o*(t+r-2*n)+3*i*(n-t)+t}function yt(t,n,r,e,i){var o=1-i;return 3*(o*o*(n-t)+2*o*i*(r-n)+i*i*(e-r))}function dt(t,n,r,e,i){var o=arguments.length>5&&void 0!==arguments[5]&&arguments[5],u={x:vt(t.x,n.x,r.x,e.x,i),y:vt(t.y,n.y,r.y,e.y,i)};return o&&(u.a=gt(t,n,r,e,i)),u}function gt(t,n,r,e,i){return Math.atan2(yt(t.y,n.y,r.y,e.y,i),yt(t.x,n.x,r.x,e.x,i))}function pt(t,n,r){var e=arguments.length>3&&void 0!==arguments[3]&&arguments[3];if(bt(n)){if(wt(r))return ct(n,r.start,r,t,e)}else if(bt(r)){if(n.end)return ct(n,n.end,r,t,e)}else{if(n.end)return r.start?dt(n,n.end,r.start,r,t,e):ct(n,n.end,r,t,e);if(r.start)return ct(n,r.start,r,t,e)}return at(n,r,t,e)}function mt(t,n,r){var e=pt(t,n,r,!0);return e.a=function(t){var n=arguments.length>1&&void 0!==arguments[1]&&arguments[1];return n?t+Math.PI:t}(e.a)/p,e}function bt(t){return!t.type||"corner"===t.type}function wt(t){return null!=t.start&&!bt(t)}var kt=new et;var xt={f:$,i:b},At={f:$,i:function(t,n,r){var e=b(t,n,r);return e<=0?0:e>=1?1:e}};function _t(t,n,r,e,i,o,u,a){return n=function(t,n,r){for(var e,i,o,u=t.length-1,a={},l=0;l<=u;l++)(e=t[l]).e&&(e.e=n(e.e)),e.v&&"g"===(i=e.v).t&&i.r&&(o=r.getElementById(i.r))&&(a[i.r]=o.querySelectorAll("stop"));return a}(t,e,a),function(e){var i,o=r(e,t,St);return o?"c"===o.t?H(o.v):"g"===o.t?(n[o.r]&&function(t,n){for(var r=0,e=t.length;r<e;r++)t[r].setAttribute("stop-color",H(n[r]))}(n[o.r],o.v),(i=o.r)?"url(#"+i+")":"none"):"none":"none"}}function St(t,n,r){if(0===t)return n;if(1===t)return r;if(n&&r){var e=n.t;if(e===r.t)switch(n.t){case"c":return{t:e,v:A(t,n.v,r.v)};case"g":if(n.r===r.r)return{t:e,v:_(t,n.v,r.v),r:n.r}}}return m(t,n,r)}var Ot={fill:_t,"fill-opacity":At,stroke:_t,"stroke-opacity":At,"stroke-width":xt,"stroke-dashoffset":{f:$,i:b},"stroke-dasharray":{f:function(t){var n=arguments.length>1&&void 0!==arguments[1]?arguments[1]:" ";return t&&t.length>0&&(t=t.map((function(t){return Math.floor(1e4*t)/1e4}))),G(t,n)},i:function(t,n,r){var e,i,o,u=n.length,a=r.length;if(u!==a)if(0===u)n=S(u=a,0);else if(0===a)a=u,r=S(u,0);else{var l=(o=(e=u)*(i=a)/function(t,n){for(var r;n;)r=n,n=t%n,t=r;return t||1}(e,i))<0?-o:o;n=O(n,Math.floor(l/u)),r=O(r,Math.floor(l/a)),u=a=l}for(var f=[],s=0;s<u;s++)f.push(g(w(t,n[s],r[s]),6));return f}},opacity:At,transform:function(n,r,e,i){if(!(n=function(n,r){if(!n||"object"!==t(n))return null;var e=!1;for(var i in n)n.hasOwnProperty(i)&&(n[i]&&n[i].length?(n[i].forEach((function(t){t.e&&(t.e=r(t.e))})),e=!0):delete n[i]);return e?n:null}(n,i)))return null;var o=function(t,i,o){var u=arguments.length>3&&void 0!==arguments[3]?arguments[3]:null;return n[t]?e(i,n[t],o):r&&r[t]?r[t]:u};return r&&r.a&&n.o?function(t){var r=e(t,n.o,mt);return kt.recomposeSelf(r,o("r",t,b,0)+r.a,o("k",t,k),o("s",t,k),o("t",t,k)).toString()}:function(t){return kt.recomposeSelf(o("o",t,pt,null),o("r",t,b,0),o("k",t,k),o("s",t,k),o("t",t,k)).toString()}},r:xt,"#size":U,"#radius":Q,_:function(t,n){if(Array.isArray(t))for(var r=0;r<t.length;r++)this[t[r]]=n;else this[t]=n}};return function(t){!function(t,n){if("function"!=typeof n&&null!==n)throw new TypeError("Super expression must either be null or a function");t.prototype=Object.create(n&&n.prototype,{constructor:{value:t,writable:!0,configurable:!0}}),n&&o(t,n)}(u,t);var r=a(u);function u(){return n(this,u),r.apply(this,arguments)}return e(u,null,[{key:"build",value:function(t){var n=l(i(u),"build",this).call(this,t,Ot),r=(n.el,n.options,n.player);return function(t){t.play()}(r),r}}]),u}(L)}));
__SVGATOR_PLAYER__.build({"root":"ey6ojavzp9h1","animations":[{"duration":10000,"direction":1,"iterations":1,"fill":1,"alternate":false,"elements":{"ey6ojavzp9h5":{"opacity":[{"t":9500,"v":0},{"t":9800,"v":1}]},"ey6ojavzp9h23":{"transform":{"data":{"t":{"x":-68.04092900024497,"y":-47}},"keys":{"o":[{"t":1100,"v":{"x":623.5103820000004,"y":86.46472526500001,"type":"corner"}},{"t":1300,"v":{"x":623.5103820000004,"y":84.46472526500001,"type":"corner"}},{"t":1500,"v":{"x":623.5103820000004,"y":86.46472526500001,"type":"corner"}}]}}},"ey6ojavzp9h34":{"transform":{"data":{"t":{"x":685.7350158691406,"y":-158.3590602874756}},"keys":{"o":[{"t":1300,"v":{"x":323.92986609085955,"y":560.0916748074759,"type":"corner"}},{"t":1700,"v":{"x":323.92986609085955,"y":206.2565238024763,"type":"corner"}},{"t":9300,"v":{"x":323.92986609085955,"y":206.2565238024763,"type":"corner"}},{"t":9600,"v":{"x":323.92986609085955,"y":560.0916748074771,"type":"corner"}}]}},"opacity":[{"t":1500,"v":0},{"t":1700,"v":1},{"t":9300,"v":1},{"t":9500,"v":0}]},"ey6ojavzp9h38":{"transform":{"data":{"t":{"x":146.33474399999977,"y":286.48124941320134}},"keys":{"o":[{"t":8800,"v":{"x":-664.0395694999991,"y":-45.1991184150003,"type":"corner"}},{"t":9000,"v":{"x":-664.0395694999991,"y":-48.1991184150003,"type":"corner"}},{"t":9200,"v":{"x":-664.0395694999991,"y":-45.1991184150003,"type":"corner"}}]}}},"ey6ojavzp9h45":{"opacity":[{"t":4300,"v":1},{"t":4600,"v":0}]},"ey6ojavzp9h46":{"opacity":[{"t":4500,"v":0},{"t":4800,"v":1},{"t":5100,"v":0}]},"ey6ojavzp9h47":{"opacity":[{"t":4900,"v":0},{"t":5200,"v":1},{"t":5500,"v":0}]},"ey6ojavzp9h48":{"opacity":[{"t":5300,"v":0},{"t":5600,"v":1},{"t":5900,"v":0}]},"ey6ojavzp9h49":{"opacity":[{"t":5900,"v":0},{"t":6200,"v":0.98}]},"ey6ojavzp9h55":{"opacity":[{"t":6900,"v":0},{"t":7100,"v":1}]},"ey6ojavzp9h58":{"opacity":[{"t":7900,"v":0},{"t":8200,"v":1}]},"ey6ojavzp9h61":{"opacity":[{"t":6900,"v":1},{"t":7200,"v":0}]},"ey6ojavzp9h62":{"opacity":[{"t":7900,"v":1},{"t":8200,"v":0}]},"ey6ojavzp9h112":{"opacity":[{"t":9200,"v":1},{"t":9400,"v":0}]},"ey6ojavzp9h113":{"opacity":[{"t":2600,"v":0},{"t":2700,"v":1}]},"ey6ojavzp9h114":{"opacity":[{"t":2900,"v":0},{"t":3000,"v":1}]},"ey6ojavzp9h115":{"opacity":[{"t":3200,"v":0},{"t":3300,"v":1}]},"ey6ojavzp9h116":{"opacity":[{"t":3500,"v":0},{"t":3600,"v":1}]},"ey6ojavzp9h117":{"opacity":[{"t":3800,"v":0},{"t":3900,"v":1}]},"ey6ojavzp9h122":{"transform":{"data":{"t":{"x":-88.5,"y":-299}},"keys":{"o":[{"t":600,"v":{"x":527.1075125000001,"y":87.11727136499967,"type":"corner"}},{"t":1100,"v":{"x":591.6898959900001,"y":52.40164061499962,"type":"corner"}},{"t":1900,"v":{"x":591.6898959900001,"y":52.40164061499962,"type":"corner"}},{"t":2400,"v":{"x":429.1307674399997,"y":66.77419800499973,"type":"corner"}},{"t":6300,"v":{"x":429.1307674399997,"y":66.77419800499973,"type":"corner"}},{"t":6700,"v":{"x":125.8972757249997,"y":136.11727135999985,"type":"corner"}},{"t":7300,"v":{"x":125.8972757249997,"y":136.11727135999985,"type":"corner"}},{"t":7800,"v":{"x":365.8561120949995,"y":132.54463455999985,"type":"corner"}},{"t":8400,"v":{"x":365.8561120949995,"y":132.54463455999985,"type":"corner"}},{"t":8800,"v":{"x":519.9545347349995,"y":304.2349481899998,"type":"corner"}}]}}}}}],"options":{"start":"load","hover":"freeze","click":"freeze","scroll":25,"exportedIds":"unique","title":"Group 1 (1)"},"animationSettings":{"duration":10000,"direction":1,"iterations":1,"fill":1,"alternate":false}})]]></script></svg>