<svg width="800" height="605" viewBox="0 0 800 605" fill="none" xmlns="http://www.w3.org/2000/svg">
<path d="M621.97 32.194C629.486 48.1892 613.559 52.7198 595.315 61.293C577.07 69.8662 563.417 79.2355 555.901 63.2404C548.385 47.2452 542.286 15.4977 568.096 3.36944C594.795 -9.17666 614.454 16.1989 621.97 32.194Z" fill="#2F2E41"/>
<path d="M584.747 63.6501C598.311 63.6501 609.308 52.6538 609.308 39.0891C609.308 25.5244 598.311 14.5281 584.747 14.5281C571.182 14.5281 560.186 25.5244 560.186 39.0891C560.186 52.6538 571.182 63.6501 584.747 63.6501Z" fill="#FFB8B8"/>
<path d="M706.426 148.012C705.576 146.902 704.726 145.812 703.866 144.752C702.756 143.372 701.64 142.036 700.516 140.742C687.786 126.052 674.246 116.802 659.336 115.812H659.316L659.096 115.792L629.386 144.752L619.286 154.592L619.506 155.132L624.956 168.702H720.446C716.144 161.562 711.464 154.655 706.426 148.012V148.012Z" fill="#2F2E41"/>
<path d="M761.526 494.8H248.688C244.313 494.795 240.119 493.055 237.026 489.962C233.932 486.869 232.192 482.675 232.188 478.3V170.146C232.191 166.942 233.466 163.869 235.732 161.603C237.998 159.336 241.071 158.062 244.275 158.058H765.729C768.989 158.062 772.115 159.359 774.42 161.664C776.726 163.969 778.022 167.095 778.026 170.355V478.3C778.021 482.675 776.281 486.869 773.188 489.962C770.094 493.055 765.901 494.795 761.526 494.8Z" fill="#F2F2F2"/>
<path d="M264.688 478.3H745.526C749.769 478.3 753.839 476.614 756.84 473.614C759.84 470.613 761.526 466.544 761.526 462.3V200.752C761.526 196.509 759.84 192.439 756.84 189.439C753.839 186.438 749.769 184.752 745.526 184.752H264.688C260.444 184.752 256.374 186.438 253.374 189.439C250.373 192.439 248.688 196.509 248.688 200.752V462.3C248.688 466.544 250.373 470.613 253.374 473.614C256.374 476.614 260.444 478.3 264.688 478.3Z" fill="white"/>
<path d="M777.796 169.203H231.956V160.802C231.962 156.413 233.709 152.206 236.814 149.103C239.919 146 244.127 144.256 248.516 144.252H761.236C765.625 144.256 769.834 146 772.938 149.103C776.043 152.206 777.79 156.413 777.796 160.802V169.203Z" fill="var(--primary-color)"/>
<path d="M262.051 161.036C264.417 161.036 266.334 159.118 266.334 156.752C266.334 154.387 264.417 152.469 262.051 152.469C259.685 152.469 257.768 154.387 257.768 156.752C257.768 159.118 259.685 161.036 262.051 161.036Z" fill="white"/>
<path d="M278.31 161.036C280.676 161.036 282.594 159.118 282.594 156.752C282.594 154.387 280.676 152.469 278.31 152.469C275.945 152.469 274.027 154.387 274.027 156.752C274.027 159.118 275.945 161.036 278.31 161.036Z" fill="white"/>
<path d="M294.569 161.036C296.935 161.036 298.852 159.118 298.852 156.752C298.852 154.387 296.935 152.469 294.569 152.469C292.203 152.469 290.286 154.387 290.286 156.752C290.286 159.118 292.203 161.036 294.569 161.036Z" fill="white"/>
<path d="M520.11 421.579H477.11C474.592 421.576 472.177 420.574 470.396 418.793C468.615 417.012 467.613 414.598 467.61 412.079V369.079C467.613 366.56 468.615 364.146 470.396 362.365C472.177 360.584 474.592 359.582 477.11 359.579H520.11C522.629 359.582 525.044 360.584 526.825 362.365C528.606 364.146 529.607 366.56 529.61 369.079V412.079C529.607 414.598 528.606 417.012 526.825 418.793C525.044 420.574 522.629 421.576 520.11 421.579V421.579ZM477.11 361.579C475.122 361.581 473.215 362.372 471.809 363.778C470.403 365.184 469.613 367.091 469.61 369.079V412.079C469.613 414.068 470.403 415.974 471.809 417.38C473.215 418.786 475.122 419.577 477.11 419.579H520.11C522.099 419.577 524.005 418.786 525.411 417.38C526.817 415.974 527.608 414.068 527.61 412.079V369.079C527.608 367.091 526.817 365.184 525.411 363.778C524.005 362.372 522.099 361.581 520.11 361.579H477.11Z" fill="#CCCCCC"/>
<path d="M511.61 409.579H485.61C484.815 409.578 484.052 409.262 483.49 408.699C482.928 408.137 482.611 407.374 482.61 406.579V374.579C482.611 373.784 482.928 373.021 483.49 372.459C484.052 371.896 484.815 371.58 485.61 371.579H504.45C505.133 371.58 505.796 371.813 506.329 372.241L513.489 377.995C513.84 378.275 514.123 378.631 514.317 379.036C514.511 379.441 514.611 379.884 514.61 380.333V406.579C514.609 407.374 514.293 408.137 513.731 408.699C513.168 409.262 512.406 409.578 511.61 409.579V409.579ZM485.61 373.579C485.345 373.579 485.091 373.685 484.904 373.872C484.716 374.06 484.611 374.314 484.61 374.579V406.579C484.611 406.844 484.716 407.098 484.904 407.286C485.091 407.473 485.345 407.579 485.61 407.579H511.61C511.875 407.579 512.13 407.473 512.317 407.286C512.505 407.098 512.61 406.844 512.61 406.579V380.333C512.611 380.183 512.577 380.036 512.513 379.901C512.448 379.766 512.354 379.647 512.237 379.554L505.076 373.799C504.898 373.657 504.677 373.579 504.45 373.579H485.61Z" fill="#CCCCCC"/>
<path d="M506.61 385.579H490.61C490.345 385.579 490.091 385.474 489.903 385.286C489.716 385.099 489.61 384.844 489.61 384.579C489.61 384.314 489.716 384.06 489.903 383.872C490.091 383.684 490.345 383.579 490.61 383.579H506.61C506.876 383.579 507.13 383.684 507.317 383.872C507.505 384.06 507.61 384.314 507.61 384.579C507.61 384.844 507.505 385.099 507.317 385.286C507.13 385.474 506.876 385.579 506.61 385.579Z" fill="#CCCCCC"/>
<path d="M506.61 391.579H490.61C490.345 391.579 490.091 391.474 489.903 391.286C489.716 391.099 489.61 390.844 489.61 390.579C489.61 390.314 489.716 390.06 489.903 389.872C490.091 389.684 490.345 389.579 490.61 389.579H506.61C506.876 389.579 507.13 389.684 507.317 389.872C507.505 390.06 507.61 390.314 507.61 390.579C507.61 390.844 507.505 391.099 507.317 391.286C507.13 391.474 506.876 391.579 506.61 391.579Z" fill="#CCCCCC"/>
<path d="M506.61 397.579H490.61C490.345 397.579 490.091 397.474 489.903 397.286C489.716 397.099 489.61 396.844 489.61 396.579C489.61 396.314 489.716 396.06 489.903 395.872C490.091 395.684 490.345 395.579 490.61 395.579H506.61C506.876 395.579 507.13 395.684 507.317 395.872C507.505 396.06 507.61 396.314 507.61 396.579C507.61 396.844 507.505 397.099 507.317 397.286C507.13 397.474 506.876 397.579 506.61 397.579Z" fill="#CCCCCC"/>
<path d="M622.11 421.579H579.11C576.592 421.576 574.177 420.574 572.396 418.793C570.615 417.012 569.613 414.598 569.61 412.079V369.079C569.613 366.56 570.615 364.146 572.396 362.365C574.177 360.584 576.592 359.582 579.11 359.579H622.11C624.629 359.582 627.044 360.584 628.825 362.365C630.606 364.146 631.607 366.56 631.61 369.079V412.079C631.607 414.598 630.606 417.012 628.825 418.793C627.044 420.574 624.629 421.576 622.11 421.579V421.579ZM579.11 361.579C577.122 361.581 575.215 362.372 573.809 363.778C572.403 365.184 571.613 367.091 571.61 369.079V412.079C571.613 414.068 572.403 415.974 573.809 417.38C575.215 418.786 577.122 419.577 579.11 419.579H622.11C624.099 419.577 626.005 418.786 627.411 417.38C628.817 415.974 629.608 414.068 629.61 412.079V369.079C629.608 367.091 628.817 365.184 627.411 363.778C626.005 362.372 624.099 361.581 622.11 361.579H579.11Z" fill="#CCCCCC"/>
<path d="M614.61 401.579H586.61C585.815 401.578 585.052 401.262 584.49 400.699C583.928 400.137 583.611 399.374 583.61 398.579V382.579C583.611 381.784 583.928 381.021 584.49 380.459C585.052 379.896 585.815 379.58 586.61 379.579H614.61C615.406 379.58 616.168 379.896 616.731 380.459C617.293 381.021 617.609 381.784 617.61 382.579V398.579C617.609 399.374 617.293 400.137 616.731 400.699C616.168 401.262 615.406 401.578 614.61 401.579V401.579ZM586.61 381.579C586.345 381.579 586.091 381.685 585.904 381.872C585.716 382.06 585.611 382.314 585.61 382.579V398.579C585.611 398.844 585.716 399.098 585.904 399.286C586.091 399.473 586.345 399.579 586.61 399.579H614.61C614.875 399.579 615.13 399.473 615.317 399.286C615.505 399.098 615.61 398.844 615.61 398.579V382.579C615.61 382.314 615.505 382.06 615.317 381.872C615.13 381.685 614.875 381.579 614.61 381.579H586.61Z" fill="#CCCCCC"/>
<path d="M600.61 393.217C600.048 393.218 599.497 393.061 599.02 392.765L584.08 383.427C583.855 383.286 583.696 383.062 583.637 382.804C583.577 382.546 583.623 382.275 583.763 382.05C583.904 381.825 584.128 381.665 584.386 381.606C584.644 381.546 584.915 381.591 585.14 381.731L600.081 391.068C600.24 391.167 600.423 391.219 600.61 391.219C600.798 391.219 600.981 391.167 601.14 391.068L616.08 381.731C616.305 381.591 616.576 381.546 616.834 381.606C617.092 381.665 617.316 381.825 617.456 382.05C617.597 382.275 617.642 382.546 617.583 382.804C617.524 383.062 617.365 383.286 617.14 383.427L602.201 392.765C601.723 393.061 601.172 393.218 600.61 393.217V393.217Z" fill="#CCCCCC"/>
<path d="M418.11 421.579H375.11C372.592 421.576 370.177 420.574 368.396 418.793C366.615 417.012 365.613 414.598 365.61 412.079V369.079C365.613 366.56 366.615 364.146 368.396 362.365C370.177 360.584 372.592 359.582 375.11 359.579H418.11C420.629 359.582 423.044 360.584 424.825 362.365C426.606 364.146 427.607 366.56 427.61 369.079V412.079C427.607 414.598 426.606 417.012 424.825 418.793C423.044 420.574 420.629 421.576 418.11 421.579V421.579ZM375.11 361.579C373.122 361.581 371.216 362.372 369.81 363.778C368.403 365.184 367.613 367.091 367.61 369.079V412.079C367.613 414.068 368.403 415.974 369.81 417.38C371.216 418.786 373.122 419.577 375.11 419.579H418.11C420.099 419.577 422.005 418.786 423.411 417.38C424.817 415.974 425.608 414.068 425.61 412.079V369.079C425.608 367.091 424.817 365.184 423.411 363.778C422.005 362.372 420.099 361.581 418.11 361.579H375.11Z" fill="#CCCCCC"/>
<path d="M410.61 401.579H382.61C381.815 401.578 381.052 401.262 380.49 400.699C379.928 400.137 379.611 399.374 379.61 398.579V382.579C379.611 381.784 379.928 381.021 380.49 380.459C381.052 379.896 381.815 379.58 382.61 379.579H410.61C411.406 379.58 412.168 379.896 412.731 380.459C413.293 381.021 413.609 381.784 413.61 382.579V398.579C413.609 399.374 413.293 400.137 412.731 400.699C412.168 401.262 411.406 401.578 410.61 401.579V401.579ZM382.61 381.579C382.345 381.579 382.091 381.685 381.904 381.872C381.716 382.06 381.611 382.314 381.61 382.579V398.579C381.611 398.844 381.716 399.098 381.904 399.286C382.091 399.473 382.345 399.579 382.61 399.579H410.61C410.875 399.579 411.13 399.473 411.317 399.286C411.505 399.098 411.61 398.844 411.61 398.579V382.579C411.61 382.314 411.505 382.06 411.317 381.872C411.13 381.685 410.875 381.579 410.61 381.579H382.61Z" fill="#CCCCCC"/>
<path d="M406.172 401.579H386.048C385.697 401.579 385.352 401.487 385.048 401.311C384.744 401.136 384.491 400.883 384.316 400.579C384.14 400.275 384.048 399.93 384.048 399.579C384.048 399.228 384.14 398.883 384.316 398.579L390.378 388.079C390.553 387.775 390.806 387.523 391.11 387.347C391.414 387.172 391.759 387.079 392.11 387.079C392.461 387.079 392.806 387.172 393.11 387.347C393.414 387.523 393.666 387.775 393.842 388.079L397.757 394.86L400.025 390.932C400.201 390.628 400.453 390.375 400.757 390.2C401.061 390.024 401.406 389.932 401.757 389.932C402.108 389.932 402.453 390.024 402.757 390.2C403.061 390.375 403.314 390.628 403.489 390.932L407.904 398.579C408.08 398.883 408.172 399.228 408.172 399.579C408.172 399.93 408.08 400.275 407.904 400.579C407.729 400.883 407.476 401.136 407.172 401.311C406.868 401.487 406.523 401.579 406.172 401.579H406.172ZM406.172 399.579L401.757 391.932L398.623 397.36C398.535 397.512 398.409 397.639 398.257 397.726C398.105 397.814 397.933 397.86 397.757 397.86V397.86C397.581 397.86 397.409 397.814 397.257 397.726C397.105 397.639 396.979 397.512 396.891 397.36L392.11 389.079L386.048 399.579H406.172Z" fill="#CCCCCC"/>
<path d="M407.61 387.579C408.715 387.579 409.61 386.683 409.61 385.579C409.61 384.474 408.715 383.579 407.61 383.579C406.506 383.579 405.61 384.474 405.61 385.579C405.61 386.683 406.506 387.579 407.61 387.579Z" fill="#CCCCCC"/>
<path d="M782.434 308.973H478.434C474.059 308.968 469.865 307.228 466.772 304.134C463.679 301.041 461.939 296.847 461.934 292.473V227.473C461.939 223.098 463.679 218.904 466.772 215.811C469.865 212.718 474.059 210.978 478.434 210.973H782.434C786.808 210.978 791.002 212.718 794.095 215.811C797.189 218.904 798.929 223.098 798.934 227.473V292.473C798.929 296.847 797.189 301.041 794.095 304.134C791.002 307.228 786.808 308.968 782.434 308.973V308.973Z" fill="white"/>
<path d="M782.433 309.473H478.433C473.926 309.468 469.605 307.675 466.418 304.488C463.231 301.301 461.438 296.98 461.433 292.473V227.473C461.438 222.966 463.231 218.645 466.418 215.458C469.605 212.271 473.926 210.478 478.433 210.473H782.433C786.94 210.478 791.261 212.271 794.448 215.458C797.635 218.645 799.428 222.966 799.433 227.473V292.473C799.428 296.98 797.635 301.301 794.448 304.488C791.261 307.675 786.94 309.468 782.433 309.473ZM478.433 212.473C474.456 212.477 470.644 214.059 467.831 216.871C465.019 219.683 463.438 223.496 463.433 227.473V292.473C463.438 296.45 465.019 300.262 467.831 303.074C470.644 305.887 474.456 307.468 478.433 307.473H782.433C786.41 307.468 790.223 305.887 793.035 303.074C795.847 300.262 797.429 296.45 797.433 292.473V227.473C797.429 223.496 795.847 219.683 793.035 216.871C790.223 214.059 786.41 212.477 782.433 212.473H478.433Z" fill="#3F3D56"/>
<path d="M745.433 292.973H515.433C511.059 292.968 506.865 291.228 503.771 288.135C500.678 285.041 498.938 280.847 498.933 276.473V242.473C498.938 238.098 500.678 233.904 503.771 230.811C506.865 227.718 511.059 225.978 515.433 225.973H745.433C749.808 225.978 754.002 227.718 757.095 230.811C760.188 233.904 761.928 238.098 761.933 242.473V276.473C761.928 280.847 760.188 285.041 757.095 288.135C754.002 291.228 749.808 292.968 745.433 292.973V292.973Z" fill="#F2F2F2"/>
<path d="M564.928 274.647C575.826 274.647 584.66 265.813 584.66 254.915C584.66 244.017 575.826 235.183 564.928 235.183C554.03 235.183 545.196 244.017 545.196 254.915C545.196 265.813 554.03 274.647 564.928 274.647Z" fill="#FF6584"/>
<path d="M731.14 290.981L703.287 267.622L675.916 244.665C675.193 244.06 674.28 243.728 673.337 243.73C672.395 243.732 671.483 244.067 670.763 244.675L643.48 267.737L636.816 273.37L626.767 264.943L596.23 239.332C595.508 238.726 594.595 238.395 593.652 238.397C592.709 238.399 591.798 238.733 591.078 239.342L560.64 265.07L529.723 291.204C529.566 291.336 529.454 291.514 529.401 291.712C529.349 291.91 529.359 292.12 529.429 292.312C529.5 292.505 529.628 292.671 529.797 292.788C529.965 292.905 530.165 292.968 530.37 292.968L593.757 292.845L613.821 292.807L613.625 292.973L673.432 292.858L730.499 292.748C730.704 292.747 730.904 292.684 731.072 292.566C731.24 292.448 731.368 292.281 731.437 292.089C731.507 291.896 731.516 291.686 731.463 291.488C731.41 291.29 731.297 291.113 731.14 290.981Z" fill="#3F3D56"/>
<path d="M721.056 131.912C720.257 130.614 719.202 129.493 717.956 128.616C716.709 127.739 715.297 127.125 713.806 126.812C713.259 126.697 712.704 126.627 712.146 126.602L635.956 58.4823C634.459 56.944 632.463 55.9902 630.326 55.7923C629.905 55.7438 629.48 55.7305 629.056 55.7523C627.298 55.8322 625.602 56.4225 624.174 57.4512C622.746 58.4798 621.649 59.9022 621.017 61.5444C620.384 63.1866 620.244 64.9774 620.614 66.698C620.983 68.4185 621.846 69.9941 623.096 71.2323L652.266 96.6623L700.166 138.412C700.205 139.199 700.323 139.979 700.516 140.742C701.089 142.953 702.321 144.938 704.048 146.432C705.775 147.927 707.916 148.862 710.186 149.112C712.256 149.354 714.353 149.008 716.236 148.112C717.729 147.414 719.052 146.401 720.116 145.142C720.226 145.012 720.326 144.892 720.426 144.752C721.824 142.93 722.634 140.725 722.746 138.431C722.859 136.137 722.269 133.863 721.056 131.912H721.056Z" fill="#FFB8B8"/>
<path d="M590.736 197.562L590.026 168.702L589.426 144.752L589.016 127.992L588.206 95.3223C588.046 93.5732 587.38 91.9085 586.289 90.5315C585.199 89.1545 583.731 88.1248 582.065 87.5681C580.399 87.0114 578.607 86.9517 576.908 87.3964C575.208 87.8411 573.675 88.7709 572.496 90.0723C572.218 90.3697 571.967 90.6909 571.746 91.0323C570.515 92.7956 569.961 94.9436 570.186 97.0823L571.966 144.752L572.856 168.702L573.996 199.252C573.667 199.701 573.37 200.172 573.106 200.662C572.395 202.011 571.965 203.49 571.843 205.009C571.721 206.529 571.909 208.058 572.396 209.502C572.904 211.017 573.727 212.408 574.812 213.581C575.896 214.755 577.217 215.686 578.687 216.312C580.157 216.939 581.743 217.247 583.341 217.216C584.938 217.185 586.511 216.815 587.956 216.132C589.634 215.339 591.09 214.145 592.197 212.655C593.304 211.165 594.027 209.425 594.302 207.589C594.576 205.754 594.395 203.879 593.773 202.13C593.151 200.381 592.108 198.812 590.736 197.562H590.736Z" fill="#FFB8B8"/>
<path d="M659.337 115.812L652.266 96.6623L640.826 65.6423C640.001 63.3853 638.678 61.3432 636.955 59.6674C635.233 57.9916 633.155 56.7253 630.876 55.9623C630.697 55.9023 630.507 55.8423 630.326 55.7923C628.119 55.1222 625.793 54.938 623.507 55.2521C621.222 55.5663 619.031 56.3714 617.087 57.6122L578.556 82.0522C575.028 84.2854 572.505 87.8027 571.522 91.8613C570.539 95.9198 571.171 100.202 573.286 103.802C578.105 112.134 583.355 120.208 589.016 127.992C593.507 134.102 601.866 134.752 603.317 144.752H631.726L660.487 118.932L659.337 115.812Z" fill="#CCCCCC"/>
<path d="M101.165 293.381C113.962 293.381 124.336 283.007 124.336 270.21C124.336 257.412 113.962 247.038 101.165 247.038C88.3675 247.038 77.9932 257.412 77.9932 270.21C77.9932 283.007 88.3675 293.381 101.165 293.381Z" fill="#A0616A"/>
<path d="M158.051 254.259C158.28 254.441 158.501 254.634 158.715 254.837C159.78 255.84 160.621 257.056 161.182 258.407C161.744 259.757 162.014 261.211 161.974 262.672C161.935 264.134 161.587 265.571 160.954 266.889C160.32 268.208 159.415 269.377 158.298 270.321C158.038 270.539 157.766 270.744 157.485 270.934L159.053 323.879C159.097 325.612 158.582 327.314 157.583 328.731C156.584 330.148 155.155 331.206 153.508 331.746L153.412 331.767L110.424 336.345C109.255 336.469 108.073 336.361 106.946 336.026C105.82 335.691 104.771 335.136 103.86 334.393C102.949 333.651 102.194 332.735 101.639 331.699C101.084 330.663 100.739 329.527 100.626 328.357C100.512 327.187 100.631 326.007 100.976 324.883C101.321 323.76 101.886 322.716 102.637 321.811C103.387 320.907 104.31 320.161 105.351 319.615C106.392 319.069 107.531 318.735 108.701 318.632L139.346 315.933L144.645 270.082C144.299 269.775 143.974 269.444 143.674 269.092C142.012 267.126 141.141 264.612 141.228 262.039C141.316 259.465 142.357 257.017 144.149 255.168C145.941 253.32 148.356 252.203 150.925 252.035C153.494 251.867 156.034 252.66 158.051 254.259H158.051Z" fill="#A0616A"/>
<path d="M139.328 592.701H150.895L156.397 548.088H139.326L139.328 592.701Z" fill="#A0616A"/>
<path d="M136.378 588.925L159.156 588.924H159.157C161.063 588.924 162.951 589.3 164.712 590.029C166.473 590.758 168.073 591.828 169.421 593.176C170.769 594.524 171.839 596.124 172.568 597.885C173.298 599.646 173.673 601.534 173.673 603.44V603.912L136.379 603.913L136.378 588.925Z" fill="#2F2E41"/>
<path d="M24.3662 576.709L34.3042 582.626L61.8572 547.109L47.1892 538.376L24.3662 576.709Z" fill="#A0616A"/>
<path d="M23.7633 571.956L43.3349 583.608L43.3357 583.609C44.9736 584.584 46.4034 585.872 47.5434 587.4C48.6835 588.928 49.5114 590.666 49.9799 592.513C50.4485 594.361 50.5485 596.283 50.2742 598.169C50 600.056 49.3568 601.87 48.3815 603.508L48.1402 603.913L16.0957 584.834L23.7633 571.956Z" fill="#2F2E41"/>
<path d="M153.624 576.944H140.673C139.624 576.946 138.612 576.558 137.832 575.857C137.052 575.156 136.56 574.19 136.451 573.147L123.394 450.41C123.361 450.101 123.227 449.811 123.013 449.586C122.8 449.36 122.518 449.212 122.211 449.162C121.904 449.113 121.59 449.166 121.316 449.313C121.042 449.46 120.825 449.694 120.697 449.977L97.1413 502.135L55.4377 570.138C54.898 571.01 54.0623 571.658 53.0836 571.964C52.105 572.27 51.049 572.213 50.1088 571.804L33.4486 564.474C32.8977 564.231 32.4047 563.874 32.0022 563.427C31.5997 562.979 31.297 562.451 31.114 561.878C30.9311 561.305 30.8721 560.699 30.941 560.101C31.0099 559.503 31.2052 558.926 31.5138 558.41L69.8509 494.218L81.6085 440.132C77.9106 416.677 93.7635 381.806 93.9243 381.456L94.0028 381.286L137.67 364.218L137.889 364.486C155.111 421 165.604 481.818 157.856 573.054C157.76 574.112 157.274 575.097 156.492 575.817C155.709 576.536 154.687 576.938 153.624 576.944V576.944Z" fill="#2F2E41"/>
<path d="M92.2433 387.001L92.0399 386.573C91.9427 386.369 82.2329 365.89 74.7479 344.002C73.3094 339.769 72.7656 335.284 73.1509 330.83C73.5363 326.376 74.8424 322.051 76.9865 318.128C79.1585 314.165 82.1299 310.696 85.7125 307.941C89.2952 305.186 93.4109 303.205 97.7991 302.124V302.124C105.417 300.298 113.437 301.27 120.399 304.862C127.361 308.454 132.8 314.427 135.727 321.694C141.664 336.541 139.772 352.388 137.991 364.851L137.956 365.101L137.729 365.209L92.2433 387.001Z" fill="#CCCCCC"/>
<path d="M129.26 257.12H92.4658V241.082C100.542 237.874 108.444 235.145 113.221 241.082C117.475 241.082 121.554 242.772 124.562 245.78C127.57 248.787 129.26 252.867 129.26 257.12V257.12Z" fill="#2F2E41"/>
<path d="M90.4286 238.252C68.4326 238.252 62.2759 265.823 62.2759 281.377C62.2759 290.052 66.1989 293.154 72.3634 294.204L74.5405 282.593L79.6395 294.704C81.3711 294.712 83.1903 294.679 85.0762 294.644L86.8051 291.084L90.6604 294.58C106.101 294.603 118.581 296.854 118.581 281.377C118.581 265.823 113.182 238.252 90.4286 238.252Z" fill="#2F2E41"/>
<path d="M193 605H1C0.734784 605 0.480429 604.895 0.292892 604.707C0.105356 604.52 0 604.265 0 604C0 603.735 0.105356 603.48 0.292892 603.293C0.480429 603.105 0.734784 603 1 603H193C193.265 603 193.52 603.105 193.707 603.293C193.895 603.48 194 603.735 194 604C194 604.265 193.895 604.52 193.707 604.707C193.52 604.895 193.265 605 193 605Z" fill="#CCCCCC"/>
<path d="M196.61 276H153.61C151.092 275.997 148.677 274.995 146.896 273.214C145.115 271.433 144.113 269.019 144.11 266.5V223.5C144.113 220.981 145.115 218.567 146.896 216.786C148.677 215.005 151.092 214.003 153.61 214H196.61C199.129 214.003 201.544 215.005 203.325 216.786C205.106 218.567 206.107 220.981 206.11 223.5V266.5C206.107 269.019 205.106 271.433 203.325 273.214C201.544 274.995 199.129 275.997 196.61 276V276Z" fill="white"/>
<path d="M196.61 276H153.61C151.092 275.997 148.677 274.995 146.896 273.214C145.115 271.433 144.113 269.019 144.11 266.5V223.5C144.113 220.981 145.115 218.567 146.896 216.786C148.677 215.005 151.092 214.003 153.61 214H196.61C199.129 214.003 201.544 215.005 203.325 216.786C205.106 218.567 206.107 220.981 206.11 223.5V266.5C206.107 269.019 205.106 271.433 203.325 273.214C201.544 274.995 199.129 275.997 196.61 276V276ZM153.61 216C151.622 216.002 149.716 216.793 148.31 218.199C146.903 219.605 146.113 221.512 146.11 223.5V266.5C146.113 268.488 146.903 270.395 148.31 271.801C149.716 273.207 151.622 273.998 153.61 274H196.61C198.599 273.998 200.505 273.207 201.911 271.801C203.317 270.395 204.108 268.488 204.11 266.5V223.5C204.108 221.512 203.317 219.605 201.911 218.199C200.505 216.793 198.599 216.002 196.61 216H153.61Z" fill="#3F3D56"/>
<path d="M189.11 258.5H161.11C160.315 258.499 159.552 258.183 158.99 257.62C158.428 257.058 158.111 256.295 158.11 255.5V234.5C158.111 233.705 158.428 232.942 158.99 232.38C159.552 231.817 160.315 231.501 161.11 231.5H168.993C169.505 231.498 170.01 231.628 170.457 231.878C170.905 232.128 171.281 232.49 171.548 232.927L173.746 236.5H189.11C189.906 236.501 190.668 236.817 191.231 237.38C191.793 237.942 192.109 238.705 192.11 239.5V255.5C192.109 256.295 191.793 257.058 191.231 257.62C190.668 258.183 189.906 258.499 189.11 258.5V258.5Z" fill="var(--primary-color)"/>
<path d="M188.2 269.109C188.34 269.365 188.469 269.629 188.587 269.899C189.179 271.237 189.482 272.684 189.476 274.146C189.469 275.609 189.154 277.053 188.551 278.385C187.947 279.717 187.069 280.907 185.973 281.876C184.878 282.845 183.59 283.571 182.195 284.008C181.87 284.108 181.54 284.192 181.207 284.257L162.107 333.662C161.476 335.277 160.341 336.645 158.87 337.564C157.399 338.482 155.672 338.902 153.944 338.761L153.848 338.743L112.451 326.281C111.326 325.942 110.279 325.384 109.37 324.638C108.462 323.892 107.71 322.973 107.158 321.935C106.607 320.897 106.267 319.76 106.157 318.59C106.047 317.42 106.171 316.239 106.52 315.117C106.869 313.995 107.437 312.953 108.191 312.051C108.945 311.149 109.87 310.406 110.913 309.864C111.956 309.322 113.097 308.992 114.268 308.893C115.439 308.794 116.618 308.928 117.737 309.288L147.028 318.692L169.704 278.49C169.504 278.073 169.333 277.642 169.193 277.2C168.425 274.743 168.597 272.088 169.677 269.751C170.756 267.414 172.666 265.561 175.034 264.553C177.403 263.544 180.062 263.452 182.495 264.294C184.928 265.136 186.961 266.852 188.2 269.109H188.2Z" fill="#A0616A"/>
<path d="M558.038 48.9773L566.83 44.8459L565.605 32.1625L571.484 42.6588L575.686 40.6841L574.972 33.2855L578.402 39.4082L609.626 24.7357C606.693 18.4947 601.402 13.6744 594.915 11.3351C588.428 8.99583 581.278 9.32917 575.037 12.2618L570.512 14.3883C564.271 17.321 559.45 22.6127 557.111 29.0994C554.772 35.5861 555.105 42.7364 558.038 48.9773V48.9773Z" fill="#2F2E41"/>
</svg>
