<svg id="eqzhkcu87hmh1" xmlns="http://www.w3.org/2000/svg" xmlns:xlink="http://www.w3.org/1999/xlink" viewBox="0 0 795.630000 536.570000" shape-rendering="geometricPrecision" text-rendering="geometricPrecision"><style><![CDATA[#eqzhkcu87hmh10_ts {animation: eqzhkcu87hmh10_ts__ts 3200ms linear infinite normal backwards}@keyframes eqzhkcu87hmh10_ts__ts { 0% {transform: translate(680.604466px,83.752906px) scale(1,1)} 6.250000% {transform: translate(680.604466px,83.752906px) scale(1,1)} 9.375000% {transform: translate(680.604466px,83.752906px) scale(1.221436,1.221436)} 12.500000% {transform: translate(680.604466px,83.752906px) scale(1.023440,1.023440)} 100% {transform: translate(680.604466px,83.752906px) scale(1.023440,1.023440)} }#eqzhkcu87hmh53 {animation: eqzhkcu87hmh53_c_o 3200ms linear infinite normal backwards}@keyframes eqzhkcu87hmh53_c_o { 0% {opacity: 0} 12.500000% {opacity: 0.010000} 18.750000% {opacity: 1} 100% {opacity: 1} }#eqzhkcu87hmh54 {animation: eqzhkcu87hmh54_c_o 3200ms linear infinite normal backwards}@keyframes eqzhkcu87hmh54_c_o { 0% {opacity: 0} 12.500000% {opacity: 0.010000} 18.750000% {opacity: 1} 100% {opacity: 1} }#eqzhkcu87hmh55_ts {animation: eqzhkcu87hmh55_ts__ts 3200ms linear infinite normal backwards}@keyframes eqzhkcu87hmh55_ts__ts { 0% {transform: translate(156.880154px,198.055563px) scale(1.147667,1.092720)} 50% {transform: translate(156.880154px,198.055563px) scale(1.147667,1.092720)} 53.125000% {transform: translate(156.880154px,198.055563px) scale(1.411702,1.344113)} 56.250000% {transform: translate(156.880154px,198.055563px) scale(1.280392,1.219090)} 100% {transform: translate(156.880154px,198.055563px) scale(1.280392,1.219090)} }#eqzhkcu87hmh55 {animation: eqzhkcu87hmh55_c_o 3200ms linear infinite normal backwards}@keyframes eqzhkcu87hmh55_c_o { 0% {opacity: 0} 21.875000% {opacity: 0.010000} 25% {opacity: 1} 100% {opacity: 1} }#eqzhkcu87hmh56 {animation: eqzhkcu87hmh56_c_o 3200ms linear infinite normal backwards}@keyframes eqzhkcu87hmh56_c_o { 0% {opacity: 0} 12.500000% {opacity: 0.010000} 18.750000% {opacity: 1} 100% {opacity: 1} }#eqzhkcu87hmh57 {animation: eqzhkcu87hmh57_c_o 3200ms linear infinite normal backwards}@keyframes eqzhkcu87hmh57_c_o { 0% {opacity: 0} 12.500000% {opacity: 0.010000} 18.750000% {opacity: 1} 100% {opacity: 1} }#eqzhkcu87hmh58 {animation: eqzhkcu87hmh58_c_o 3200ms linear infinite normal backwards}@keyframes eqzhkcu87hmh58_c_o { 0% {opacity: 0} 12.500000% {opacity: 0.010000} 18.750000% {opacity: 1} 59.375000% {opacity: 0.010000} 62.500000% {opacity: 1} 100% {opacity: 1} }#eqzhkcu87hmh59 {animation: eqzhkcu87hmh59_c_o 3200ms linear infinite normal backwards}@keyframes eqzhkcu87hmh59_c_o { 0% {opacity: 0} 56.250000% {opacity: 0.010000} 59.375000% {opacity: 1} 100% {opacity: 1} }#eqzhkcu87hmh60 {animation: eqzhkcu87hmh60_c_o 3200ms linear infinite normal backwards}@keyframes eqzhkcu87hmh60_c_o { 0% {opacity: 0} 56.250000% {opacity: 0.010000} 59.375000% {opacity: 1} 100% {opacity: 1} }#eqzhkcu87hmh61_ts {animation: eqzhkcu87hmh61_ts__ts 3200ms linear infinite normal backwards}@keyframes eqzhkcu87hmh61_ts__ts { 0% {transform: translate(-6654.113142px,634.697493px) scale(1.871452,0.123934)} 59.375000% {transform: translate(-6654.113142px,634.697493px) scale(1.871452,0.123934)} 62.500000% {transform: translate(-6654.113142px,634.697493px) scale(25.933146,1.717378)} 100% {transform: translate(-6654.113142px,634.697493px) scale(25.933146,1.717378)} }#eqzhkcu87hmh61 {animation: eqzhkcu87hmh61_c_o 3200ms linear infinite normal backwards}@keyframes eqzhkcu87hmh61_c_o { 0% {opacity: 0} 56.250000% {opacity: 0.010000} 59.375000% {opacity: 1} 100% {opacity: 1} }#eqzhkcu87hmh62 {animation: eqzhkcu87hmh62_c_o 3200ms linear infinite normal backwards}@keyframes eqzhkcu87hmh62_c_o { 0% {opacity: 0} 56.250000% {opacity: 0.010000} 59.375000% {opacity: 1} 100% {opacity: 1} }#eqzhkcu87hmh63_to {animation: eqzhkcu87hmh63_to__to 3200ms linear infinite normal backwards}@keyframes eqzhkcu87hmh63_to__to { 0% {transform: translate(-10910.172094px,-3923.667599px)} 59.375000% {transform: translate(-10910.172094px,-3923.667599px)} 62.500000% {transform: translate(-8187.598487px,-3923.667599px)} 100% {transform: translate(-8187.598487px,-3923.667599px)} }#eqzhkcu87hmh63 {animation: eqzhkcu87hmh63_c_o 3200ms linear infinite normal backwards}@keyframes eqzhkcu87hmh63_c_o { 0% {opacity: 0} 56.250000% {opacity: 0.010000} 59.375000% {opacity: 1} 100% {opacity: 1} }#eqzhkcu87hmh64_to {animation: eqzhkcu87hmh64_to__to 3200ms linear infinite normal backwards}@keyframes eqzhkcu87hmh64_to__to { 0% {transform: translate(-10910.172094px,-3864.407337px)} 59.375000% {transform: translate(-10910.172094px,-3864.407337px)} 62.500000% {transform: translate(-3779.659350px,-3909.611256px)} 100% {transform: translate(-3779.659350px,-3909.611256px)} }#eqzhkcu87hmh64 {animation: eqzhkcu87hmh64_c_o 3200ms linear infinite normal backwards}@keyframes eqzhkcu87hmh64_c_o { 0% {opacity: 0} 56.250000% {opacity: 0.010000} 59.375000% {opacity: 1} 100% {opacity: 1} }#eqzhkcu87hmh65_to {animation: eqzhkcu87hmh65_to__to 3200ms linear infinite normal backwards}@keyframes eqzhkcu87hmh65_to__to { 0% {transform: translate(-161860.988555px,-28249.705445px)} 68.750000% {transform: translate(-161860.988555px,-28249.705445px)} 81.250000% {transform: translate(-161822.577021px,-21407.396215px)} 100% {transform: translate(-161822.577021px,-21407.396215px)} }#eqzhkcu87hmh66 {animation: eqzhkcu87hmh66_c_o 3200ms linear infinite normal backwards}@keyframes eqzhkcu87hmh66_c_o { 0% {opacity: 0} 56.250000% {opacity: 0.010000} 59.375000% {opacity: 1} 100% {opacity: 1} }#eqzhkcu87hmh67 {animation: eqzhkcu87hmh67_c_o 3200ms linear infinite normal backwards}@keyframes eqzhkcu87hmh67_c_o { 0% {opacity: 0} 56.250000% {opacity: 0.010000} 59.375000% {opacity: 1} 100% {opacity: 1} }#eqzhkcu87hmh68 {animation: eqzhkcu87hmh68_c_o 3200ms linear infinite normal backwards}@keyframes eqzhkcu87hmh68_c_o { 0% {opacity: 0} 56.250000% {opacity: 0.010000} 59.375000% {opacity: 1} 100% {opacity: 1} }#eqzhkcu87hmh69 {animation: eqzhkcu87hmh69_c_o 3200ms linear infinite normal backwards}@keyframes eqzhkcu87hmh69_c_o { 0% {opacity: 0} 56.250000% {opacity: 0.010000} 59.375000% {opacity: 1} 100% {opacity: 1} }#eqzhkcu87hmh70 {animation: eqzhkcu87hmh70_c_o 3200ms linear infinite normal backwards}@keyframes eqzhkcu87hmh70_c_o { 0% {opacity: 0} 56.250000% {opacity: 0.010000} 59.375000% {opacity: 1} 100% {opacity: 1} }#eqzhkcu87hmh71 {animation: eqzhkcu87hmh71_c_o 3200ms linear infinite normal backwards}@keyframes eqzhkcu87hmh71_c_o { 0% {opacity: 0} 56.250000% {opacity: 0.010000} 59.375000% {opacity: 1} 100% {opacity: 1} }#eqzhkcu87hmh72 {animation: eqzhkcu87hmh72_c_o 3200ms linear infinite normal backwards}@keyframes eqzhkcu87hmh72_c_o { 0% {opacity: 0} 56.250000% {opacity: 0.010000} 59.375000% {opacity: 1} 100% {opacity: 1} }#eqzhkcu87hmh73 {animation: eqzhkcu87hmh73_c_o 3200ms linear infinite normal backwards}@keyframes eqzhkcu87hmh73_c_o { 0% {opacity: 0} 56.250000% {opacity: 0.010000} 59.375000% {opacity: 1} 65.625000% {opacity: 1} 100% {opacity: 1} }#eqzhkcu87hmh74 {animation: eqzhkcu87hmh74_c_o 3200ms linear infinite normal backwards}@keyframes eqzhkcu87hmh74_c_o { 0% {opacity: 0} 56.250000% {opacity: 0.010000} 59.375000% {opacity: 1} 100% {opacity: 1} }#eqzhkcu87hmh75 {animation: eqzhkcu87hmh75_c_o 3200ms linear infinite normal backwards}@keyframes eqzhkcu87hmh75_c_o { 0% {opacity: 0} 56.250000% {opacity: 0.010000} 59.375000% {opacity: 1} 100% {opacity: 1} }#eqzhkcu87hmh76 {animation: eqzhkcu87hmh76_c_o 3200ms linear infinite normal backwards}@keyframes eqzhkcu87hmh76_c_o { 0% {opacity: 0} 56.250000% {opacity: 0.010000} 59.375000% {opacity: 1} 100% {opacity: 1} }#eqzhkcu87hmh77 {animation: eqzhkcu87hmh77_c_o 3200ms linear infinite normal backwards}@keyframes eqzhkcu87hmh77_c_o { 0% {opacity: 0} 56.250000% {opacity: 0.010000} 59.375000% {opacity: 1} 100% {opacity: 1} }#eqzhkcu87hmh78 {animation: eqzhkcu87hmh78_c_o 3200ms linear infinite normal backwards}@keyframes eqzhkcu87hmh78_c_o { 0% {opacity: 0} 56.250000% {opacity: 0.010000} 59.375000% {opacity: 1} 100% {opacity: 1} }#eqzhkcu87hmh79 {animation: eqzhkcu87hmh79_c_o 3200ms linear infinite normal backwards}@keyframes eqzhkcu87hmh79_c_o { 0% {opacity: 0} 56.250000% {opacity: 0.010000} 59.375000% {opacity: 1} 100% {opacity: 1} }#eqzhkcu87hmh80_to {animation: eqzhkcu87hmh80_to__to 3200ms linear infinite normal backwards}@keyframes eqzhkcu87hmh80_to__to { 0% {transform: translate(525.074950px,157.325013px)} 3.125000% {transform: translate(679.409013px,87.620170px)} 37.500000% {transform: translate(677.660939px,87.620170px)} 43.750000% {transform: translate(217.310012px,189.626383px)} 100% {transform: translate(217.310012px,189.626383px)} }]]></style><defs><filter id="eqzhkcu87hmh80-filter" x="-400%" width="600%" y="-400%" height="600%"><feGaussianBlur id="eqzhkcu87hmh80-filter-drop-shadow-0-blur" in="SourceAlpha" stdDeviation="1,1"/><feOffset id="eqzhkcu87hmh80-filter-drop-shadow-0-offset" dx="0" dy="0" result="tmp"/><feFlood id="eqzhkcu87hmh80-filter-drop-shadow-0-flood" flood-color="rgb(0,0,0)"/><feComposite id="eqzhkcu87hmh80-filter-drop-shadow-0-composite" operator="in" in2="tmp"/><feMerge id="eqzhkcu87hmh80-filter-drop-shadow-0-merge"><feMergeNode id="eqzhkcu87hmh80-filter-drop-shadow-0-merge-node-1"/><feMergeNode id="eqzhkcu87hmh80-filter-drop-shadow-0-merge-node-2" in="SourceGraphic"/></feMerge></filter></defs><g id="eqzhkcu87hmh2" transform="matrix(1 0 0 1 -0.50000000499972 0.49999267999993)"><path id="eqzhkcu87hmh3" d="M13.250000,0.500000L782.380000,0.500000C789.421631,0.500000,795.130000,6.208369,795.130000,13.250000L795.130000,536.070000L0.500000,536.070000L0.500000,13.250000C0.500000,6.208369,6.208369,0.500000,13.250000,0.500000Z" transform="matrix(1 0 0 1 -1.72499999999985 0.00000732000001)" fill="rgb(255,255,255)" stroke="rgb(128,130,133)" stroke-width="1" stroke-opacity="0" stroke-miterlimit="10"/><path id="eqzhkcu87hmh4" d="M11.454493,0.500000L783.849436,0.500000C790.852126,0.500000,796.528929,6.154644,796.528929,13.130000L796.528929,60.900000L-1.225000,60.900000L-1.225000,13.130000C-1.225000,9.780316,0.110871,6.567826,2.488737,4.199241C4.866603,1.830657,8.091682,0.500000,11.454493,0.500000Z" fill="rgb(51,143,255)" stroke="none" stroke-width="1"/><rect id="eqzhkcu87hmh5" width="796.418929" height="41.610000" rx="0" ry="0" transform="matrix(1 0 0 1 1.11000000000001 60.90000000000000)" fill="rgb(236,246,255)" stroke="none" stroke-width="1"/><rect id="eqzhkcu87hmh6" width="58.390000" height="13.160000" rx="1.510000" ry="1.510000" transform="matrix(1 0 0 1 19.90000000000000 72.31000000000000)" fill="rgb(221,221,221)" stroke="none" stroke-width="1"/><rect id="eqzhkcu87hmh7" width="58.390000" height="13.160000" rx="1.760000" ry="1.760000" transform="matrix(1 0 0 1 101.59999999999999 72.31000000000000)" fill="rgb(221,221,221)" stroke="none" stroke-width="1"/><rect id="eqzhkcu87hmh8" width="58.390000" height="13.160000" rx="2.160000" ry="2.160000" transform="matrix(1 0 0 1 182.75999999999999 72.31000000000000)" fill="rgb(221,221,221)" stroke="none" stroke-width="1"/><rect id="eqzhkcu87hmh9" width="58.390000" height="13.160000" rx="1.070000" ry="1.070000" transform="matrix(1 0 0 1 265.88000000000000 72.31000000000000)" fill="rgb(221,221,221)" stroke="none" stroke-width="1"/><g id="eqzhkcu87hmh10_ts" transform="translate(680.604466,83.752906) scale(1,1)"><rect id="eqzhkcu87hmh10" width="65.580000" height="18.780000" rx="0" ry="0" transform="translate(-32.790000,-9.390000)" fill="rgb(255,255,255)" stroke="rgb(209,211,212)" stroke-width="1" stroke-miterlimit="10"/></g><rect id="eqzhkcu87hmh11" width="65.580000" height="18.780000" rx="0" ry="0" transform="matrix(1.01576997664676 0 0 1.01576997664676 724.45580493549699 74.36290609741309)" fill="rgb(15,83,165)" stroke="none" stroke-width="1"/><rect id="eqzhkcu87hmh12" display="none" width="297.380000" height="105.520000" rx="10.380000" ry="10.380000" transform="matrix(1 0 0 1 44.97841736999999 162.76499999999999)" fill="rgb(233,248,245)" stroke="none" stroke-width="1"/><rect id="eqzhkcu87hmh13" width="297.380000" height="105.520000" rx="10.380000" ry="10.380000" transform="matrix(1 0 0 1 44.97841736999999 162.76499999999999)" fill="rgb(233,248,245)" stroke="none" stroke-width="1"/><rect id="eqzhkcu87hmh14" display="none" width="297.380000" height="105.520000" rx="12.930000" ry="12.930000" transform="matrix(1 0 0 1 450.92000000000002 161.27000000000001)" fill="rgb(233,248,245)" stroke="none" stroke-width="1"/><rect id="eqzhkcu87hmh15" width="17.860000" height="17.860000" rx="0" ry="0" transform="matrix(1 0 0 1 199.94999999999999 245.22999999999999)" opacity="0" fill="rgb(53,255,104)" stroke="none" stroke-width="1"/><rect id="eqzhkcu87hmh16" width="17.860000" height="17.860000" rx="0" ry="0" transform="matrix(1 0 0 1 223.30000000000001 245.22999999999999)" opacity="0" fill="rgb(255,173,255)" stroke="none" stroke-width="1"/><rect id="eqzhkcu87hmh17" width="17.860000" height="17.860000" rx="0" ry="0" transform="matrix(1 0 0 1 248.02000000000001 245.22999999999999)" opacity="0" fill="rgb(134,211,247)" stroke="none" stroke-width="1"/><rect id="eqzhkcu87hmh18" width="17.860000" height="17.860000" rx="0" ry="0" transform="matrix(1 0 0 1 273.16000000000003 245.22999999999999)" opacity="0" fill="rgb(255,192,21)" stroke="none" stroke-width="1"/><rect id="eqzhkcu87hmh19" width="17.860000" height="17.860000" rx="0" ry="0" transform="matrix(1 0 0 1 299.77999999999997 245.22999999999999)" opacity="0" fill="rgb(121,53,255)" stroke="none" stroke-width="1"/><rect id="eqzhkcu87hmh20" display="none" width="297.380000" height="105.520000" rx="10.380000" ry="10.380000" transform="matrix(1 0 0 1 34.07999999999998 370.14999999999998)" fill="rgb(233,248,245)" stroke="none" stroke-width="1"/><rect id="eqzhkcu87hmh21" display="none" width="297.380000" height="105.520000" rx="10.380000" ry="10.380000" transform="matrix(1 0 0 1 450.92000000000002 370.14999999999998)" fill="rgb(233,248,245)" stroke="none" stroke-width="1"/><rect id="eqzhkcu87hmh22" width="80.060000" height="4.610000" rx="0" ry="0" transform="matrix(1 0 0 1 90.76500000000003 96.20500000000004)" opacity="0" fill="rgb(37,154,226)" stroke="none" stroke-width="1"/><rect id="eqzhkcu87hmh23" width="80.060000" height="4.610000" rx="0" ry="0" transform="matrix(1 0 0 1 5.76500000000003 96.20500000000004)" fill="rgb(37,154,226)" stroke="none" stroke-width="1"/><rect id="eqzhkcu87hmh24" width="80.060000" height="4.610000" rx="0" ry="0" transform="matrix(1 0 0 1 252.76500000000004 96.20500000000004)" opacity="0" fill="rgb(37,154,226)" stroke="none" stroke-width="1"/><rect id="eqzhkcu87hmh25" width="80.060000" height="4.610000" rx="0" ry="0" transform="matrix(1 0 0 1 169.76500000000004 96.20500000000004)" opacity="0" fill="rgb(37,154,226)" stroke="none" stroke-width="1"/><rect id="eqzhkcu87hmh26" width="692.010935" height="442.322256" rx="0" ry="0" transform="matrix(1 0 0 1 45.79500000076472 54.89000000000021)" opacity="0" fill="rgb(255,255,255)" stroke="rgb(165,165,165)" stroke-width="1"/><rect id="eqzhkcu87hmh27" width="80.060000" height="4.610000" rx="1" ry="1" transform="matrix(3.23760040450849 0 0 5.33468294575832 118.27907302075940 127.59095452298575)" opacity="0" fill="rgb(244,244,244)" stroke="none" stroke-width="1"/><rect id="eqzhkcu87hmh28" width="80.060000" height="4.610000" rx="1" ry="1" transform="matrix(3.23760040450849 0 0 5.33468294575832 118.27907302075963 185.25912663298575)" opacity="0" fill="rgb(244,244,244)" stroke="none" stroke-width="1"/><rect id="eqzhkcu87hmh29" width="80.060000" height="4.610000" rx="1" ry="1" transform="matrix(3.23760040450849 0 0 5.33468294575832 410.02863860575968 185.75911931298569)" opacity="0" fill="rgb(244,244,244)" stroke="none" stroke-width="1"/><rect id="eqzhkcu87hmh30" width="80.060000" height="4.610000" rx="1" ry="1" transform="matrix(3.23760040450849 0 0 5.33468294575832 410.02863860575957 127.59095452298570)" opacity="0" fill="rgb(244,244,244)" stroke="none" stroke-width="1"/><rect id="eqzhkcu87hmh31" width="80.060000" height="4.610000" rx="1" ry="1" transform="matrix(6.81455115929422 0 0 5.33468294575832 118.27907302033151 238.49711162298649)" opacity="0" fill="rgb(244,244,244)" stroke="none" stroke-width="1"/><rect id="eqzhkcu87hmh32" width="80.060000" height="4.610000" rx="1" ry="1" transform="matrix(6.81455115929422 0 0 5.33468294575832 118.27907302033151 287.74380625298653)" opacity="0" fill="rgb(244,244,244)" stroke="none" stroke-width="1"/><rect id="eqzhkcu87hmh33" width="80.060000" height="4.610000" rx="1" ry="1" transform="matrix(1.08262968509301 0 0 6.12278364995839 280.93233370735499 423.73497697674992)" opacity="0" fill="rgb(253,237,237)" stroke="none" stroke-width="1"/><rect id="eqzhkcu87hmh34" width="80.060000" height="4.610000" rx="1" ry="1" transform="matrix(1.17112819317395 0 0 6.62328462991924 425.32978778878459 421.75634432649554)" opacity="0" fill="rgb(231,252,253)" stroke="none" stroke-width="1"/><rect id="eqzhkcu87hmh35" width="17.860000" height="17.860000" rx="0" ry="0" transform="matrix(1 0 0 1 607.98099218500283 72.77000000000024)" fill="rgb(136,232,204)" stroke="none" stroke-width="1"/><g id="eqzhkcu87hmh36" transform="matrix(1.00686286735443 0 0 0.75828624171321 -3.30170459585641 315.18003351552204)" opacity="0"><rect id="eqzhkcu87hmh37" width="692.010935" height="442.322256" rx="3" ry="3" transform="matrix(0.17859512280203 0 0 0.17859512280203 81.03556993351422 161.31620893337811)" fill="rgb(239,239,239)" stroke="rgb(165,165,165)" stroke-width="1"/><rect id="eqzhkcu87hmh38" width="692.010935" height="442.322256" rx="3" ry="3" transform="matrix(0.17859512280203 0 0 0.17859512280203 242.50022208851448 161.27000000337813)" fill="rgb(239,239,239)" stroke="rgb(165,165,165)" stroke-width="1"/><rect id="eqzhkcu87hmh39" width="692.010935" height="442.322256" rx="3" ry="3" transform="matrix(0.17859512280203 0 0 0.17859512280203 409.47068793351423 161.76999268337804)" fill="rgb(239,239,239)" stroke="rgb(165,165,165)" stroke-width="1"/><rect id="eqzhkcu87hmh40" width="692.010935" height="442.322256" rx="3" ry="3" transform="matrix(0.17859512280203 0 0 0.17859512280203 563.05951493351415 161.76999268337798)" fill="rgb(239,239,239)" stroke="rgb(165,165,165)" stroke-width="1"/></g><g id="eqzhkcu87hmh41" transform="matrix(1 0 0 1 0.94447235000001 -42.71102684499994)" opacity="0.02"><rect id="eqzhkcu87hmh42" width="692.010935" height="442.322256" rx="3" ry="3" transform="matrix(0.18025060085103 0 0 0.18025060085103 78.29000169725006 160.53774522051981)" fill="rgb(239,239,239)" stroke="rgb(165,165,165)" stroke-width="1"/><rect id="eqzhkcu87hmh43" width="692.010935" height="442.322256" rx="5" ry="5" transform="matrix(0.15447580321685 0 0 0.02265707283528 85.82500000739121 98.50999999958117)" fill="rgb(193,193,193)" stroke="rgb(165,165,165)" stroke-width="1"/><rect id="eqzhkcu87hmh44" width="692.010935" height="442.322256" rx="5" ry="5" transform="matrix(0.15447580321685 0 0 0.02265707283528 77.34552749739119 417.89913621458140)" fill="rgb(193,193,193)" stroke="rgb(165,165,165)" stroke-width="1"/><rect id="eqzhkcu87hmh45" width="692.010935" height="442.322256" rx="3" ry="3" transform="matrix(0.17859512280203 0 0 0.17859512280203 237.04063869851444 160.53774522337812)" fill="rgb(239,239,239)" stroke="rgb(165,165,165)" stroke-width="1"/><rect id="eqzhkcu87hmh46" width="692.010935" height="442.322256" rx="3" ry="3" transform="matrix(0.17859512280203 0 0 0.17859512280203 409.47068793351423 161.76999268337804)" fill="rgb(239,239,239)" stroke="rgb(165,165,165)" stroke-width="1"/><rect id="eqzhkcu87hmh47" width="692.010935" height="442.322256" rx="3" ry="3" transform="matrix(0.17859512280203 0 0 0.17859512280203 563.10163087851402 161.76999268337798)" fill="rgb(239,239,239)" stroke="rgb(165,165,165)" stroke-width="1"/></g><g id="eqzhkcu87hmh48" transform="matrix(1 0 0 1 -1.80109588999977 72.07009697000035)" opacity="0"><rect id="eqzhkcu87hmh49" width="692.010935" height="442.322256" rx="3" ry="3" transform="matrix(0.17859512280203 0 0 0.17859512280203 81.03556993351422 161.31620893337811)" fill="rgb(239,239,239)" stroke="rgb(165,165,165)" stroke-width="1"/><rect id="eqzhkcu87hmh50" width="692.010935" height="442.322256" rx="3" ry="3" transform="matrix(0.17859512280203 0 0 0.17859512280203 242.50022208851448 161.27000000337813)" fill="rgb(239,239,239)" stroke="rgb(165,165,165)" stroke-width="1"/><rect id="eqzhkcu87hmh51" width="692.010935" height="442.322256" rx="3" ry="3" transform="matrix(0.17859512280203 0 0 0.17859512280203 410.78022224351423 164.48273228837806)" fill="rgb(239,239,239)" stroke="rgb(165,165,165)" stroke-width="1"/><rect id="eqzhkcu87hmh52" width="692.010935" height="442.322256" rx="3" ry="3" transform="matrix(0.17859512280203 0 0 0.17859512280203 563.05951493351415 161.76999268337798)" fill="rgb(239,239,239)" stroke="rgb(165,165,165)" stroke-width="1"/></g></g><g id="eqzhkcu87hmh53" opacity="0"><rect id="eqzhkcu87hmh54" width="694.277334" height="442.322256" rx="0" ry="0" transform="matrix(1.14766681069724 0 0 1.09271993430954 -1.16905401791774 61.39999267994386)" opacity="0" fill="rgb(255,255,255)" stroke="rgb(165,165,165)" stroke-width="1"/><g id="eqzhkcu87hmh55_ts" transform="translate(156.880154,198.055563) scale(1.147667,1.092720)"><rect id="eqzhkcu87hmh55" width="164.586193" height="102.950690" rx="0" ry="0" transform="translate(-82.293096,-51.475345)" opacity="0" fill="rgb(224,237,251)" stroke="none" stroke-width="1"/></g><rect id="eqzhkcu87hmh56" width="63.107369" height="16.303443" rx="0" ry="0" transform="matrix(1.14766681069724 0 0 1.09271993430954 701.09281836368154 74.84535761762301)" opacity="0" fill="rgb(244,244,244)" stroke="none" stroke-width="1"/><rect id="eqzhkcu87hmh57" width="63.107369" height="16.303443" rx="0" ry="0" transform="matrix(1.14766681069724 0 0 1.09271993430954 616.09281836368154 74.84535761762301)" opacity="0" fill="rgb(232,232,232)" stroke="none" stroke-width="1"/></g><g id="eqzhkcu87hmh58" transform="matrix(0.04424395132638 0 0 0.04424395132638 379.95223093413881 284.78294131696748)" opacity="0"><rect id="eqzhkcu87hmh59" width="692.010935" height="442.322256" rx="0" ry="0" transform="matrix(26.09556931513094 0 0 24.84619100423060 -8631.66865177509135 -5197.04549193101502)" opacity="0" fill="rgb(255,255,255)" stroke="rgb(165,165,165)" stroke-width="1"/><rect id="eqzhkcu87hmh60" width="692.449678" height="442.322256" rx="0" ry="0" transform="matrix(26.03732397483301 0 0 1.72427669340772 -8625.38790006634554 -5184.17189750335183)" opacity="0" fill="rgb(246,253,255)" stroke="rgb(165,165,165)" stroke-width="1"/><g id="eqzhkcu87hmh61_ts" transform="translate(-6654.113142,634.697493) scale(1.871452,0.123934)"><rect id="eqzhkcu87hmh61" width="145.342806" height="5864.700778" rx="0" ry="0" transform="translate(-72.671403,-2932.350389)" opacity="0" fill="rgb(255,255,255)" stroke="rgb(183,229,255)" stroke-width="1"/></g><rect id="eqzhkcu87hmh62" width="111.370364" height="5864.700778" rx="0" ry="0" transform="matrix(26.03732397483301 0 0 1.71813605855217 6526.96441880247676 -4402.15634919520562)" opacity="0" fill="rgb(255,255,255)" stroke="rgb(183,229,255)" stroke-width="1"/><g id="eqzhkcu87hmh63_to" transform="translate(-10910.172094,-3923.667599)"><rect id="eqzhkcu87hmh63" width="692.010935" height="442.322256" rx="0" ry="0" transform="scale(3.292583,0.729923) translate(0,-0)" opacity="0" fill="rgb(234,234,234)" stroke="rgb(165,165,165)" stroke-width="1"/></g><g id="eqzhkcu87hmh64_to" transform="translate(-10910.172094,-3864.407337)"><rect id="eqzhkcu87hmh64" width="692.010935" height="442.322256" rx="0" ry="0" transform="scale(3.292583,0.729923) translate(0,-0)" opacity="0" fill="rgb(234,234,234)" stroke="rgb(165,165,165)" stroke-width="1"/></g><g id="eqzhkcu87hmh65_to" transform="translate(-161860.988555,-28249.705445)"><g id="eqzhkcu87hmh65" transform="translate(161877.520927,21329.671931)"><rect id="eqzhkcu87hmh66" width="692.010935" height="442.322256" rx="0" ry="0" transform="matrix(3.29258300323154 0 0 0.43202467590311 -8204.13056354597757 -2907.97437357700710)" opacity="0" fill="rgb(225,246,245)" stroke="rgb(165,165,165)" stroke-width="1"/><rect id="eqzhkcu87hmh67" width="692.010935" height="442.322256" rx="0" ry="0" transform="matrix(2.20870168731114 0 0 0.43202467590311 -8187.59848745486124 -2196.14539614979185)" opacity="0" fill="rgb(225,246,245)" stroke="rgb(165,165,165)" stroke-width="1"/><rect id="eqzhkcu87hmh68" width="692.010935" height="442.322256" rx="0" ry="0" transform="matrix(2.50111480050132 0 0 0.43202467590311 -8187.59848745424824 -1472.88268925596071)" opacity="0" fill="rgb(225,246,245)" stroke="rgb(165,165,165)" stroke-width="1"/><rect id="eqzhkcu87hmh69" width="692.010935" height="442.322256" rx="0" ry="0" transform="matrix(2.50111480050132 0 0 0.43202467590311 -8187.59848745424824 -801.86338673052319)" opacity="0" fill="rgb(225,246,245)" stroke="rgb(165,165,165)" stroke-width="1"/><rect id="eqzhkcu87hmh70" width="692.010935" height="442.322256" rx="0" ry="0" transform="matrix(2.86344397677054 0 0 0.43202467590311 -8187.59848745348791 -24.89507898582045)" opacity="0" fill="rgb(225,246,245)" stroke="rgb(165,165,165)" stroke-width="1"/><rect id="eqzhkcu87hmh71" width="692.010935" height="442.322256" rx="0" ry="0" transform="matrix(1.61456228596053 0 0 0.43202467590311 -8187.59848745610725 720.96958749844509)" opacity="0" fill="rgb(225,246,245)" stroke="rgb(165,165,165)" stroke-width="1"/><rect id="eqzhkcu87hmh72" width="692.010935" height="442.322256" rx="0" ry="0" transform="matrix(4.08581911605399 0 0 0.43202467590311 -8187.59848745092495 1399.02837521141328)" opacity="0" fill="rgb(225,246,245)" stroke="rgb(165,165,165)" stroke-width="1"/></g></g><rect id="eqzhkcu87hmh73" width="692.010935" height="608.822441" rx="0" ry="0" transform="matrix(3.39696311268782 0 0 0.85720160845608 -3851.89152719713184 -3071.96574558192106)" opacity="0" fill="rgb(245,225,246)" stroke="rgb(165,165,165)" stroke-width="1"/><rect id="eqzhkcu87hmh74" width="692.010935" height="608.822441" rx="0" ry="0" transform="matrix(3.39696311268782 0 0 0.95658984125091 -873.05111276958598 -3086.94731538631322)" opacity="0" fill="rgb(225,246,245)" stroke="rgb(165,165,165)" stroke-width="1"/><rect id="eqzhkcu87hmh75" width="692.010935" height="608.822441" rx="0" ry="0" transform="matrix(3.39696311268782 0 0 0.95658984125091 2041.44932038005254 -3071.96574558685006)" opacity="0" fill="rgb(255,251,224)" stroke="rgb(165,165,165)" stroke-width="1"/><rect id="eqzhkcu87hmh76" width="692.010935" height="608.822441" rx="0" ry="0" transform="matrix(3.39696311268782 0 0 0.95658984125091 -3876.45075749697753 -2060.17359167711629)" opacity="0" fill="rgb(255,251,224)" stroke="rgb(165,165,165)" stroke-width="1"/><rect id="eqzhkcu87hmh77" width="692.010935" height="608.822441" rx="0" ry="0" transform="matrix(3.39696311268782 0 0 0.95658984125091 -821.92358534077027 -2077.74389579088984)" opacity="0" fill="rgb(199,255,235)" stroke="rgb(165,165,165)" stroke-width="1"/><rect id="eqzhkcu87hmh78" width="692.010935" height="608.822441" rx="0" ry="0" transform="matrix(3.39696311268782 0 0 0.95658984125091 2014.14067560991748 -1964.09083499382041)" opacity="0" fill="rgb(255,238,242)" stroke="rgb(165,165,165)" stroke-width="1"/><rect id="eqzhkcu87hmh79" width="431.373816" height="4.969766" rx="0" ry="0" transform="matrix(26.03732397483301 0 0 1.72427669340772 -4739.34232026144855 4139.25334792713875)" opacity="0" fill="rgb(183,229,255)" stroke="rgb(183,229,255)" stroke-width="1"/></g><g id="eqzhkcu87hmh80_to" transform="translate(525.074950,157.325013)"><rect id="eqzhkcu87hmh80" width="10.125465" height="10.125465" rx="50" ry="50" transform="translate(-8.930012,-8.929996)" filter="url(#eqzhkcu87hmh80-filter)" fill="rgb(255,255,255)" stroke="rgb(204,0,255)" stroke-width="2"/></g></svg>