<svg id="exzpjs926w51" xmlns="http://www.w3.org/2000/svg" xmlns:xlink="http://www.w3.org/1999/xlink" viewBox="0 0 795.630000 536.570000" shape-rendering="geometricPrecision" text-rendering="geometricPrecision"><style><![CDATA[#exzpjs926w52_ts {animation: exzpjs926w52_ts__ts 1000ms linear infinite normal backwards}@keyframes exzpjs926w52_ts__ts { 0% {transform: translate(-1.725000px,210.852000px) scale(1,1)} 20% {transform: translate(-1.725000px,210.852000px) scale(1.376042,1.376042)} 100% {transform: translate(-1.725000px,210.852000px) scale(1.376042,1.376042)} }#exzpjs926w515 {animation: exzpjs926w515_c_o 1000ms linear infinite normal backwards}@keyframes exzpjs926w515_c_o { 0% {opacity: 0} 30% {opacity: 0.010000} 40% {opacity: 1} 100% {opacity: 1} }#exzpjs926w516 {animation: exzpjs926w516_c_o 1000ms linear infinite normal backwards}@keyframes exzpjs926w516_c_o { 0% {opacity: 0} 70% {opacity: 0.010000} 80% {opacity: 1} 100% {opacity: 1} }#exzpjs926w517 {animation: exzpjs926w517_c_o 1000ms linear infinite normal backwards}@keyframes exzpjs926w517_c_o { 0% {opacity: 0} 60% {opacity: 0.010000} 70% {opacity: 1} 100% {opacity: 1} }#exzpjs926w518 {animation: exzpjs926w518_c_o 1000ms linear infinite normal backwards}@keyframes exzpjs926w518_c_o { 0% {opacity: 0} 50% {opacity: 0.010000} 60% {opacity: 1} 100% {opacity: 1} }#exzpjs926w519 {animation: exzpjs926w519_c_o 1000ms linear infinite normal backwards}@keyframes exzpjs926w519_c_o { 0% {opacity: 0} 40% {opacity: 0.010000} 50% {opacity: 1} 100% {opacity: 1} }#exzpjs926w583_to {animation: exzpjs926w583_to__to 1000ms linear infinite normal backwards}@keyframes exzpjs926w583_to__to { 0% {transform: translate(203.741131px,401.360552px)} 30% {transform: translate(203.741131px,402.360552px)} 40% {transform: translate(295.486821px,202.861578px)} 100% {transform: translate(295.486821px,202.861578px)} }]]></style><defs><filter id="exzpjs926w583-filter" x="-400%" width="600%" y="-400%" height="600%"><feGaussianBlur id="exzpjs926w583-filter-drop-shadow-0-blur" in="SourceAlpha" stdDeviation="1,1"/><feOffset id="exzpjs926w583-filter-drop-shadow-0-offset" dx="0" dy="0" result="tmp"/><feFlood id="exzpjs926w583-filter-drop-shadow-0-flood" flood-color="rgb(0,0,0)"/><feComposite id="exzpjs926w583-filter-drop-shadow-0-composite" operator="in" in2="tmp"/><feMerge id="exzpjs926w583-filter-drop-shadow-0-merge"><feMergeNode id="exzpjs926w583-filter-drop-shadow-0-merge-node-1"/><feMergeNode id="exzpjs926w583-filter-drop-shadow-0-merge-node-2" in="SourceGraphic"/></feMerge></filter></defs><g id="exzpjs926w52_ts" transform="translate(-1.725000,210.852000) scale(1,1)"><g id="exzpjs926w52" transform="translate(1.225000,-210.352008)"><path id="exzpjs926w53" d="M13.250000,0.500000L782.380000,0.500000C789.421631,0.500000,795.130000,6.208369,795.130000,13.250000L795.130000,536.070000L0.500000,536.070000L0.500000,13.250000C0.500000,6.208369,6.208369,0.500000,13.250000,0.500000Z" transform="matrix(1 0 0 1 0.00000000770984 0.00000732158907)" opacity="0" fill="rgb(255,255,255)" stroke="rgb(128,130,133)" stroke-width="1" stroke-opacity="0" stroke-miterlimit="10"/><path id="exzpjs926w54" d="M11.454493,0.500000L783.849436,0.500000C790.852126,0.500000,796.528929,6.154644,796.528929,13.130000L796.528929,60.900000L-1.225000,60.900000L-1.225000,13.130000C-1.225000,9.780316,0.110871,6.567826,2.488737,4.199241C4.866603,1.830657,8.091682,0.500000,11.454493,0.500000Z" transform="matrix(0.99795128790127 0 0 1 1.81476292726666 0)" fill="rgb(51,143,255)" stroke="none" stroke-width="1"/><rect id="exzpjs926w55" width="796.511201" height="41.610000" rx="0" ry="0" transform="matrix(1 0 0 1 0.50000000499915 60.90000000000000)" fill="rgb(236,246,255)" stroke="none" stroke-width="1"/><rect id="exzpjs926w56" width="58.390000" height="13.160000" rx="1.510000" ry="1.510000" transform="matrix(1 0 0 1 19.90000000000000 72.31000000000000)" fill="rgb(221,221,221)" stroke="none" stroke-width="1"/><rect id="exzpjs926w57" width="58.390000" height="13.160000" rx="1.760000" ry="1.760000" transform="matrix(1 0 0 1 101.59999999999999 72.31000000000000)" fill="rgb(221,221,221)" stroke="none" stroke-width="1"/><rect id="exzpjs926w58" width="58.390000" height="13.160000" rx="2.160000" ry="2.160000" transform="matrix(1 0 0 1 182.75999999999999 72.31000000000000)" fill="rgb(221,221,221)" stroke="none" stroke-width="1"/><rect id="exzpjs926w59" width="58.390000" height="13.160000" rx="1.070000" ry="1.070000" transform="matrix(1 0 0 1 265.88000000000000 72.31000000000000)" fill="rgb(221,221,221)" stroke="none" stroke-width="1"/><rect id="exzpjs926w510" width="65.580000" height="18.780000" rx="0" ry="0" transform="matrix(1 0 0 1 647.81446599999992 74.36290610000000)" opacity="0.99" fill="rgb(255,255,255)" stroke="rgb(209,211,212)" stroke-width="1" stroke-miterlimit="10"/><rect id="exzpjs926w511" width="65.580000" height="18.780000" rx="0" ry="0" transform="matrix(1.01576997664676 0 0 1.01576997664676 726.79080493689469 74.36290610126792)" opacity="0.99" fill="rgb(15,83,165)" stroke="none" stroke-width="1"/><rect id="exzpjs926w512" display="none" width="297.380000" height="105.520000" rx="10.380000" ry="10.380000" transform="matrix(1 0 0 1 44.97841736999999 162.76499999999999)" fill="rgb(233,248,245)" stroke="none" stroke-width="1"/><rect id="exzpjs926w513" width="297.380000" height="105.520000" rx="10.380000" ry="10.380000" transform="matrix(1 0 0 1 44.97841736999999 162.76499999999999)" fill="rgb(233,248,245)" stroke="none" stroke-width="1"/><rect id="exzpjs926w514" display="none" width="297.380000" height="105.520000" rx="12.930000" ry="12.930000" transform="matrix(1 0 0 1 450.92000000000002 161.27000000000001)" fill="rgb(233,248,245)" stroke="none" stroke-width="1"/><rect id="exzpjs926w515" width="17.860000" height="17.860000" rx="0" ry="0" transform="matrix(1 0 0 1 199.94999999999999 238.68949991543366)" opacity="0" fill="rgb(53,255,104)" stroke="none" stroke-width="1"/><rect id="exzpjs926w516" width="17.860000" height="17.860000" rx="0" ry="0" transform="matrix(1 0 0 1 223.30000000000001 238.68949991543366)" opacity="0" fill="rgb(255,173,255)" stroke="none" stroke-width="1"/><rect id="exzpjs926w517" width="17.860000" height="17.860000" rx="0" ry="0" transform="matrix(1 0 0 1 248.02000000000001 238.68949991543366)" opacity="0" fill="rgb(134,211,247)" stroke="none" stroke-width="1"/><rect id="exzpjs926w518" width="17.860000" height="17.860000" rx="0" ry="0" transform="matrix(1 0 0 1 273.16000000000003 238.68949991543366)" opacity="0" fill="rgb(250,242,132)" stroke="none" stroke-width="1"/><rect id="exzpjs926w519" width="17.860000" height="17.860000" rx="0" ry="0" transform="matrix(1 0 0 1 299.77999999999997 238.68949991543366)" opacity="0" fill="rgb(121,53,255)" stroke="none" stroke-width="1"/><rect id="exzpjs926w520" display="none" width="297.380000" height="105.520000" rx="10.380000" ry="10.380000" transform="matrix(1 0 0 1 34.07999999999998 370.14999999999998)" fill="rgb(233,248,245)" stroke="none" stroke-width="1"/><rect id="exzpjs926w521" display="none" width="297.380000" height="105.520000" rx="10.380000" ry="10.380000" transform="matrix(1 0 0 1 450.92000000000002 370.14999999999998)" fill="rgb(233,248,245)" stroke="none" stroke-width="1"/><rect id="exzpjs926w522" width="80.060000" height="4.610000" rx="0" ry="0" transform="matrix(1 0 0 1 90.76500000000003 96.20500000000004)" opacity="0" fill="rgb(37,154,226)" stroke="none" stroke-width="1"/><rect id="exzpjs926w523" width="80.060000" height="4.610000" rx="0" ry="0" transform="matrix(1 0 0 1 5.76500000000003 96.20500000000004)" fill="rgb(37,154,226)" stroke="none" stroke-width="1"/><rect id="exzpjs926w524" width="80.060000" height="4.610000" rx="0" ry="0" transform="matrix(1 0 0 1 252.76500000000004 96.20500000000004)" opacity="0" fill="rgb(37,154,226)" stroke="none" stroke-width="1"/><rect id="exzpjs926w525" width="80.060000" height="4.610000" rx="0" ry="0" transform="matrix(1 0 0 1 169.76500000000004 96.20500000000004)" opacity="0" fill="rgb(37,154,226)" stroke="none" stroke-width="1"/><rect id="exzpjs926w526" width="692.010935" height="442.322256" rx="0" ry="0" transform="matrix(1 0 0 1 45.79500000076472 54.89000000000021)" opacity="0" fill="rgb(255,255,255)" stroke="rgb(165,165,165)" stroke-width="1"/><rect id="exzpjs926w527" width="80.060000" height="4.610000" rx="1" ry="1" transform="matrix(3.23760040450849 0 0 5.33468294575832 118.27907302075940 127.59095452298575)" opacity="0" fill="rgb(244,244,244)" stroke="none" stroke-width="1"/><rect id="exzpjs926w528" width="80.060000" height="4.610000" rx="1" ry="1" transform="matrix(3.23760040450849 0 0 5.33468294575832 118.27907302075963 185.25912663298575)" opacity="0" fill="rgb(244,244,244)" stroke="none" stroke-width="1"/><rect id="exzpjs926w529" width="80.060000" height="4.610000" rx="1" ry="1" transform="matrix(3.23760040450849 0 0 5.33468294575832 410.02863860575968 185.75911931298569)" opacity="0" fill="rgb(244,244,244)" stroke="none" stroke-width="1"/><rect id="exzpjs926w530" width="80.060000" height="4.610000" rx="1" ry="1" transform="matrix(3.23760040450849 0 0 5.33468294575832 410.02863860575957 127.59095452298570)" opacity="0" fill="rgb(244,244,244)" stroke="none" stroke-width="1"/><rect id="exzpjs926w531" width="80.060000" height="4.610000" rx="1" ry="1" transform="matrix(6.81455115929422 0 0 5.33468294575832 118.27907302033151 238.49711162298649)" opacity="0" fill="rgb(244,244,244)" stroke="none" stroke-width="1"/><rect id="exzpjs926w532" width="80.060000" height="4.610000" rx="1" ry="1" transform="matrix(6.81455115929422 0 0 5.33468294575832 118.27907302033151 287.74380625298653)" opacity="0" fill="rgb(244,244,244)" stroke="none" stroke-width="1"/><rect id="exzpjs926w533" width="80.060000" height="4.610000" rx="1" ry="1" transform="matrix(1.08262968509301 0 0 6.12278364995839 280.93233370735499 423.73497697674992)" opacity="0" fill="rgb(253,237,237)" stroke="none" stroke-width="1"/><rect id="exzpjs926w534" width="80.060000" height="4.610000" rx="1" ry="1" transform="matrix(1.17112819317395 0 0 6.62328462991924 425.32978778878459 421.75634432649554)" opacity="0" fill="rgb(231,252,253)" stroke="none" stroke-width="1"/><rect id="exzpjs926w535" width="17.860000" height="17.860000" rx="0" ry="0" transform="matrix(0.82965768260651 0 0 0.82965768260651 615.71123100254715 76.29115689432405)" fill="rgb(136,232,204)" stroke="none" stroke-width="1"/><rect id="exzpjs926w536" width="2.771275" height="9.795877" rx="0" ry="0" transform="matrix(4.35485116944364 0 0 0.82965768260651 597.60585077727990 79.63638784432406)" opacity="0" fill="rgb(246,246,246)" stroke="none" stroke-width="1"/><rect id="exzpjs926w537" width="2.771275" height="9.795877" rx="0" ry="0" transform="matrix(4.35485116944364 0 0 0.82965768260651 579.57160529228054 79.69017380432408)" opacity="0" fill="rgb(246,246,246)" stroke="none" stroke-width="1"/><rect id="exzpjs926w538" width="2.771275" height="9.795877" rx="0" ry="0" transform="matrix(4.35485116944364 0 0 0.82965768260651 561.57160529228054 79.69017380432408)" opacity="0" fill="rgb(246,246,246)" stroke="none" stroke-width="1"/><g id="exzpjs926w539" transform="matrix(1.00686286735443 0 0 0.75828624171321 -3.30170459585641 315.18003351552204)" opacity="0"><rect id="exzpjs926w540" width="692.010935" height="442.322256" rx="3" ry="3" transform="matrix(0.17859512280203 0 0 0.17859512280203 81.03556993351422 161.31620893337811)" fill="rgb(239,239,239)" stroke="rgb(165,165,165)" stroke-width="1"/><rect id="exzpjs926w541" width="692.010935" height="442.322256" rx="3" ry="3" transform="matrix(0.17859512280203 0 0 0.17859512280203 242.50022208851448 161.27000000337813)" fill="rgb(239,239,239)" stroke="rgb(165,165,165)" stroke-width="1"/><rect id="exzpjs926w542" width="692.010935" height="442.322256" rx="3" ry="3" transform="matrix(0.17859512280203 0 0 0.17859512280203 409.47068793351423 161.76999268337804)" fill="rgb(239,239,239)" stroke="rgb(165,165,165)" stroke-width="1"/><rect id="exzpjs926w543" width="692.010935" height="442.322256" rx="3" ry="3" transform="matrix(0.17859512280203 0 0 0.17859512280203 563.05951493351415 161.76999268337798)" fill="rgb(239,239,239)" stroke="rgb(165,165,165)" stroke-width="1"/></g><g id="exzpjs926w544" transform="matrix(1 0 0 1 0.94447235000001 -42.71102684499994)" opacity="0.02"><rect id="exzpjs926w545" width="692.010935" height="442.322256" rx="3" ry="3" transform="matrix(0.18025060085103 0 0 0.18025060085103 78.29000169725006 160.53774522051981)" fill="rgb(239,239,239)" stroke="rgb(165,165,165)" stroke-width="1"/><rect id="exzpjs926w546" width="692.010935" height="442.322256" rx="5" ry="5" transform="matrix(0.15447580321685 0 0 0.02265707283528 85.82500000739121 98.50999999958117)" fill="rgb(193,193,193)" stroke="rgb(165,165,165)" stroke-width="1"/><rect id="exzpjs926w547" width="692.010935" height="442.322256" rx="5" ry="5" transform="matrix(0.15447580321685 0 0 0.02265707283528 77.34552749739119 417.89913621458140)" fill="rgb(193,193,193)" stroke="rgb(165,165,165)" stroke-width="1"/><rect id="exzpjs926w548" width="692.010935" height="442.322256" rx="3" ry="3" transform="matrix(0.17859512280203 0 0 0.17859512280203 237.04063869851444 160.53774522337812)" fill="rgb(239,239,239)" stroke="rgb(165,165,165)" stroke-width="1"/><rect id="exzpjs926w549" width="692.010935" height="442.322256" rx="3" ry="3" transform="matrix(0.17859512280203 0 0 0.17859512280203 409.47068793351423 161.76999268337804)" fill="rgb(239,239,239)" stroke="rgb(165,165,165)" stroke-width="1"/><rect id="exzpjs926w550" width="692.010935" height="442.322256" rx="3" ry="3" transform="matrix(0.17859512280203 0 0 0.17859512280203 563.10163087851402 161.76999268337798)" fill="rgb(239,239,239)" stroke="rgb(165,165,165)" stroke-width="1"/></g><g id="exzpjs926w551" transform="matrix(1 0 0 1 -1.80109588999977 72.07009697000035)" opacity="0"><rect id="exzpjs926w552" width="692.010935" height="442.322256" rx="3" ry="3" transform="matrix(0.17859512280203 0 0 0.17859512280203 81.03556993351422 161.31620893337811)" fill="rgb(239,239,239)" stroke="rgb(165,165,165)" stroke-width="1"/><rect id="exzpjs926w553" width="692.010935" height="442.322256" rx="3" ry="3" transform="matrix(0.17859512280203 0 0 0.17859512280203 242.50022208851448 161.27000000337813)" fill="rgb(239,239,239)" stroke="rgb(165,165,165)" stroke-width="1"/><rect id="exzpjs926w554" width="692.010935" height="442.322256" rx="3" ry="3" transform="matrix(0.17859512280203 0 0 0.17859512280203 410.78022224351423 164.48273228837806)" fill="rgb(239,239,239)" stroke="rgb(165,165,165)" stroke-width="1"/><rect id="exzpjs926w555" width="692.010935" height="442.322256" rx="3" ry="3" transform="matrix(0.17859512280203 0 0 0.17859512280203 563.05951493351415 161.76999268337798)" fill="rgb(239,239,239)" stroke="rgb(165,165,165)" stroke-width="1"/></g></g></g><g id="exzpjs926w556" display="none" opacity="0"><rect id="exzpjs926w557" width="694.277334" height="442.322256" rx="0" ry="0" transform="matrix(1.14766681069724 0 0 1.09271993430954 -2.80952700791778 61.39999267994386)" opacity="0" fill="rgb(255,255,255)" stroke="rgb(165,165,165)" stroke-width="1"/><rect id="exzpjs926w558" width="164.586193" height="102.950690" rx="0" ry="0" transform="matrix(1.14766681069724 0 0 1.09271993430954 62.43509884368186 141.80742786319269)" opacity="0" fill="rgb(224,237,251)" stroke="none" stroke-width="1"/><rect id="exzpjs926w559" width="63.107369" height="16.303443" rx="0" ry="0" transform="matrix(1.14766681069724 0 0 1.09271993430954 701.09281836368154 74.84535761762301)" opacity="0" fill="rgb(244,244,244)" stroke="none" stroke-width="1"/><rect id="exzpjs926w560" width="63.107369" height="16.303443" rx="0" ry="0" transform="matrix(1.14766681069724 0 0 1.09271993430954 616.09281836368154 74.84535761762301)" opacity="0" fill="rgb(232,232,232)" stroke="none" stroke-width="1"/></g><g id="exzpjs926w561" display="none" transform="matrix(0.04424395132638 0 0 0.04424395132638 379.95223093413881 284.78294131696748)" opacity="0"><rect id="exzpjs926w562" width="692.010935" height="442.322256" rx="0" ry="0" transform="matrix(26.09556931513094 0 0 24.84619100423060 -8631.66865177509135 -5197.04549193101502)" opacity="0" fill="rgb(255,255,255)" stroke="rgb(165,165,165)" stroke-width="1"/><rect id="exzpjs926w563" width="692.449678" height="442.322256" rx="0" ry="0" transform="matrix(26.03732397483301 0 0 1.72427669340772 -8625.38790006634554 -5184.17189750335183)" opacity="0" fill="rgb(246,253,255)" stroke="rgb(165,165,165)" stroke-width="1"/><rect id="exzpjs926w564" width="145.342806" height="5864.700778" rx="0" ry="0" transform="matrix(1.87145217572818 0 0 0.12393367968822 -6790.11419663295510 271.28051892578941)" opacity="0" fill="rgb(255,255,255)" stroke="rgb(183,229,255)" stroke-width="1"/><rect id="exzpjs926w565" width="111.370364" height="5864.700778" rx="0" ry="0" transform="matrix(26.03732397483301 0 0 1.71813605855217 6526.96441880247676 -4402.15634919520562)" opacity="0" fill="rgb(255,255,255)" stroke="rgb(183,229,255)" stroke-width="1"/><rect id="exzpjs926w566" width="692.010935" height="442.322256" rx="0" ry="0" transform="matrix(3.29258300323154 0 0 0.72992306764137 -10910.17209443884894 -3923.66759894349661)" opacity="0" fill="rgb(234,234,234)" stroke="rgb(165,165,165)" stroke-width="1"/><rect id="exzpjs926w567" width="692.010935" height="442.322256" rx="0" ry="0" transform="matrix(3.29258300323154 0 0 0.72992306764137 -10910.17209432584241 -3864.40733733941488)" opacity="0" fill="rgb(234,234,234)" stroke="rgb(165,165,165)" stroke-width="1"/><g id="exzpjs926w568" transform="matrix(1 0 0 1 16.53237195304246 -6920.03351466975437)"><rect id="exzpjs926w569" width="692.010935" height="442.322256" rx="0" ry="0" transform="matrix(3.29258300323154 0 0 0.43202467590311 -8204.13056354597757 -2907.97437357700710)" opacity="0" fill="rgb(225,246,245)" stroke="rgb(165,165,165)" stroke-width="1"/><rect id="exzpjs926w570" width="692.010935" height="442.322256" rx="0" ry="0" transform="matrix(2.20870168731114 0 0 0.43202467590311 -8187.59848745486124 -2196.14539614979185)" opacity="0" fill="rgb(225,246,245)" stroke="rgb(165,165,165)" stroke-width="1"/><rect id="exzpjs926w571" width="692.010935" height="442.322256" rx="0" ry="0" transform="matrix(2.50111480050132 0 0 0.43202467590311 -8187.59848745424824 -1472.88268925596071)" opacity="0" fill="rgb(225,246,245)" stroke="rgb(165,165,165)" stroke-width="1"/><rect id="exzpjs926w572" width="692.010935" height="442.322256" rx="0" ry="0" transform="matrix(2.50111480050132 0 0 0.43202467590311 -8187.59848745424824 -801.86338673052319)" opacity="0" fill="rgb(225,246,245)" stroke="rgb(165,165,165)" stroke-width="1"/><rect id="exzpjs926w573" width="692.010935" height="442.322256" rx="0" ry="0" transform="matrix(2.86344397677054 0 0 0.43202467590311 -8187.59848745348791 -24.89507898582045)" opacity="0" fill="rgb(225,246,245)" stroke="rgb(165,165,165)" stroke-width="1"/><rect id="exzpjs926w574" width="692.010935" height="442.322256" rx="0" ry="0" transform="matrix(1.61456228596053 0 0 0.43202467590311 -8187.59848745610725 720.96958749844509)" opacity="0" fill="rgb(225,246,245)" stroke="rgb(165,165,165)" stroke-width="1"/><rect id="exzpjs926w575" width="692.010935" height="442.322256" rx="0" ry="0" transform="matrix(4.08581911605399 0 0 0.43202467590311 -8187.59848745092495 1399.02837521141328)" opacity="0" fill="rgb(225,246,245)" stroke="rgb(165,165,165)" stroke-width="1"/></g><rect id="exzpjs926w576" width="692.010935" height="608.822441" rx="0" ry="0" transform="matrix(3.39696311268782 0 0 0.85720160845608 -3851.89152719713184 -5309.83416616203431)" opacity="0" fill="rgb(245,225,246)" stroke="rgb(165,165,165)" stroke-width="1"/><rect id="exzpjs926w577" width="692.010935" height="608.822441" rx="0" ry="0" transform="matrix(3.39696311268782 0 0 0.95658984125091 -1076.46874908347672 -6436.65253173796918)" opacity="0" fill="rgb(225,246,245)" stroke="rgb(165,165,165)" stroke-width="1"/><rect id="exzpjs926w578" width="692.010935" height="608.822441" rx="0" ry="0" transform="matrix(3.39696311268782 0 0 0.95658984125091 1789.26039499024614 -7019.04589382526683)" opacity="0" fill="rgb(255,251,224)" stroke="rgb(165,165,165)" stroke-width="1"/><rect id="exzpjs926w579" width="692.010935" height="608.822441" rx="0" ry="0" transform="matrix(3.39696311268782 0 0 0.95658984125091 -3877.86863051960654 -7140.57821008096016)" opacity="0" fill="rgb(255,251,224)" stroke="rgb(165,165,165)" stroke-width="1"/><rect id="exzpjs926w580" width="692.010935" height="608.822441" rx="0" ry="0" transform="matrix(3.39696311268782 0 0 0.95658984125091 -561.47522472773642 -6849.38152909380824)" opacity="0" fill="rgb(199,255,235)" stroke="rgb(165,165,165)" stroke-width="1"/><rect id="exzpjs926w581" width="692.010935" height="608.822441" rx="0" ry="0" transform="matrix(3.39696311268782 0 0 0.95658984125091 2014.14067560991748 -1964.09083499382041)" opacity="0" fill="rgb(255,238,242)" stroke="rgb(165,165,165)" stroke-width="1"/><rect id="exzpjs926w582" width="431.373816" height="4.969766" rx="0" ry="0" transform="matrix(26.03732397483301 0 0 1.72427669340772 -4739.34232026144855 4139.25334792713875)" opacity="0" fill="rgb(183,229,255)" stroke="rgb(183,229,255)" stroke-width="1"/></g><g id="exzpjs926w583_to" transform="translate(203.741131,401.360552)"><rect id="exzpjs926w583" width="10.125465" height="10.125465" rx="50" ry="50" transform="translate(-8.930012,-8.929996)" filter="url(#exzpjs926w583-filter)" fill="rgb(255,255,255)" stroke="rgb(204,0,255)" stroke-width="2"/></g></svg>