<svg id="Layer_1" data-name="Layer 1" xmlns="http://www.w3.org/2000/svg" viewBox="0 0 795.63 536.57"><defs><style>.cls-1,.cls-5{fill:#fff;stroke-miterlimit:10;}.cls-1{stroke:#808285;}.cls-2{fill:#0a2f3b;}.cls-3{fill:#f5f7f9;}.cls-4{fill:#ddd;}.cls-5{stroke:#d1d3d4;}.cls-6{fill:#e9f8f5;}.cls-7{fill:#35ff68;}.cls-8{fill:#ffadff;}.cls-9{fill:#86d3f7;}.cls-10{fill:#ffc015;}.cls-11{fill:#7935ff;}.cls-12{fill:#259ae2;}</style></defs><path class="cls-1" d="M13.25.5H782.38a12.75,12.75,0,0,1,12.75,12.75V536.07a0,0,0,0,1,0,0H.5a0,0,0,0,1,0,0V13.25A12.75,12.75,0,0,1,13.25.5Z"/><path class="cls-2" d="M13.13.5H782.51a12.63,12.63,0,0,1,12.63,12.63V60.9a0,0,0,0,1,0,0H.5a0,0,0,0,1,0,0V13.13A12.63,12.63,0,0,1,13.13.5Z"/><rect class="cls-3" x="3.11" y="60.9" width="789.96" height="41.61"/><rect class="cls-4" x="19.9" y="72.31" width="58.39" height="13.16" rx="1.51"/><rect class="cls-4" x="101.6" y="72.31" width="58.39" height="13.16" rx="1.76"/><rect class="cls-4" x="182.76" y="72.31" width="58.39" height="13.16" rx="2.16"/><rect class="cls-4" x="265.88" y="72.31" width="58.39" height="13.16" rx="1.07"/><rect class="cls-5" x="642.15" y="72.31" width="65.58" height="18.78"/><rect class="cls-2" x="723.32" y="72.31" width="65.58" height="18.78"/><rect class="cls-6" x="38.93" y="162.76" width="297.38" height="105.52" rx="10.38"/><rect class="cls-6" x="450.92" y="161.27" width="297.38" height="105.52" rx="12.93"/><rect class="cls-7" x="199.95" y="245.23" width="17.86" height="17.86"/><rect class="cls-8" x="223.3" y="245.23" width="17.86" height="17.86"/><rect class="cls-9" x="248.02" y="245.23" width="17.86" height="17.86"/><rect class="cls-10" x="273.16" y="245.23" width="17.86" height="17.86"/><rect class="cls-11" x="299.78" y="245.23" width="17.86" height="17.86"/><rect class="cls-6" x="34.08" y="370.15" width="297.38" height="105.52" rx="10.38"/><rect class="cls-6" x="450.92" y="370.15" width="297.38" height="105.52" rx="10.38"/><rect class="cls-12" x="7.7" y="97.9" width="80.06" height="4.61"/></svg>