<svg id="etsl5a13u5pb1" xmlns="http://www.w3.org/2000/svg" xmlns:xlink="http://www.w3.org/1999/xlink" viewBox="0 0 795.630000 536.570000" shape-rendering="geometricPrecision" text-rendering="geometricPrecision"><style><![CDATA[#etsl5a13u5pb2_ts {animation: etsl5a13u5pb2_ts__ts 2000ms linear infinite normal forwards}@keyframes etsl5a13u5pb2_ts__ts { 0% {transform: translate(797.028929px,1px) scale(1,1)} 5% {transform: translate(797.028929px,1px) scale(2.594142,2.594142)} 100% {transform: translate(797.028929px,1px) scale(2.594142,2.594142)} }#etsl5a13u5pb5 {animation: etsl5a13u5pb5_c_o 2000ms linear infinite normal forwards}@keyframes etsl5a13u5pb5_c_o { 0% {opacity: 1} 85% {opacity: 0.990000} 90% {opacity: 1} 100% {opacity: 1} }#etsl5a13u5pb10 {animation: etsl5a13u5pb10_c_o 2000ms linear infinite normal forwards}@keyframes etsl5a13u5pb10_c_o { 0% {opacity: 0.990000} 85% {opacity: 0.990000} 90% {opacity: 1} 100% {opacity: 1} }#etsl5a13u5pb11 {animation: etsl5a13u5pb11_c_o 2000ms linear infinite normal forwards}@keyframes etsl5a13u5pb11_c_o { 0% {opacity: 0.990000} 85% {opacity: 0.990000} 90% {opacity: 1} 100% {opacity: 1} }#etsl5a13u5pb35_ts {animation: etsl5a13u5pb35_ts__ts 2000ms linear infinite normal forwards}@keyframes etsl5a13u5pb35_ts__ts { 0% {transform: translate(630.528917px,76.291157px) scale(0.829658,0.829658)} 45% {transform: translate(630.528917px,76.291157px) scale(0.829658,0.829658)} 55% {transform: translate(630.528917px,76.291157px) scale(4.354851,0.829658)} 100% {transform: translate(630.528917px,76.291157px) scale(4.354851,0.829658)} }#etsl5a13u5pb36 {animation: etsl5a13u5pb36_c_o 2000ms linear infinite normal forwards}@keyframes etsl5a13u5pb36_c_o { 0% {opacity: 0} 55% {opacity: 0.010000} 60% {opacity: 1} 100% {opacity: 1} }#etsl5a13u5pb37 {animation: etsl5a13u5pb37_c_o 2000ms linear infinite normal forwards}@keyframes etsl5a13u5pb37_c_o { 0% {opacity: 0} 65% {opacity: 0.010000} 70% {opacity: 1} 100% {opacity: 1} }#etsl5a13u5pb38 {animation: etsl5a13u5pb38_c_o 2000ms linear infinite normal forwards}@keyframes etsl5a13u5pb38_c_o { 0% {opacity: 0} 75% {opacity: 0.010000} 80% {opacity: 1} 100% {opacity: 1} }#etsl5a13u5pb83_to {animation: etsl5a13u5pb83_to__to 2000ms linear infinite normal forwards}@keyframes etsl5a13u5pb83_to__to { 0% {transform: translate(277.204540px,305.221280px)} 15% {transform: translate(277.204540px,305.221280px)} 25% {transform: translate(347.912413px,230.354258px)} 100% {transform: translate(347.912413px,230.354258px)} }#etsl5a13u5pb83 {animation: etsl5a13u5pb83_c_o 2000ms linear infinite normal forwards}@keyframes etsl5a13u5pb83_c_o { 0% {opacity: 1} 25% {opacity: 0.990000} 35% {opacity: 0} 45% {opacity: 1} 100% {opacity: 1} }]]></style><defs><filter id="etsl5a13u5pb83-filter" x="-400%" width="600%" y="-400%" height="600%"><feGaussianBlur id="etsl5a13u5pb83-filter-drop-shadow-0-blur" in="SourceAlpha" stdDeviation="1,1"/><feOffset id="etsl5a13u5pb83-filter-drop-shadow-0-offset" dx="0" dy="0" result="tmp"/><feFlood id="etsl5a13u5pb83-filter-drop-shadow-0-flood" flood-color="rgb(0,0,0)"/><feComposite id="etsl5a13u5pb83-filter-drop-shadow-0-composite" operator="in" in2="tmp"/><feMerge id="etsl5a13u5pb83-filter-drop-shadow-0-merge"><feMergeNode id="etsl5a13u5pb83-filter-drop-shadow-0-merge-node-1"/><feMergeNode id="etsl5a13u5pb83-filter-drop-shadow-0-merge-node-2" in="SourceGraphic"/></feMerge></filter></defs><g id="etsl5a13u5pb2_ts" transform="translate(797.028929,1) scale(1,1)"><g id="etsl5a13u5pb2" transform="translate(-797.528929,-0.500007)"><path id="etsl5a13u5pb3" d="M13.250000,0.500000L782.380000,0.500000C789.421631,0.500000,795.130000,6.208369,795.130000,13.250000L795.130000,536.070000L0.500000,536.070000L0.500000,13.250000C0.500000,6.208369,6.208369,0.500000,13.250000,0.500000Z" transform="matrix(1 0 0 1 -1.72499999229018 0.00000000158911)" fill="rgb(255,255,255)" stroke="rgb(128,130,133)" stroke-width="1" stroke-opacity="0" stroke-miterlimit="10"/><path id="etsl5a13u5pb4" d="M11.454493,0.500000L783.849436,0.500000C790.852126,0.500000,796.528929,6.154644,796.528929,13.130000L796.528929,60.900000L-1.225000,60.900000L-1.225000,13.130000C-1.225000,9.780316,0.110871,6.567826,2.488737,4.199241C4.866603,1.830657,8.091682,0.500000,11.454493,0.500000Z" fill="rgb(51,143,255)" stroke="none" stroke-width="1"/><rect id="etsl5a13u5pb5" width="796.418929" height="41.610000" rx="0" ry="0" transform="matrix(1 0 0 1 1.11000000000001 60.90000000000000)" fill="rgb(236,246,255)" stroke="none" stroke-width="1"/><rect id="etsl5a13u5pb6" width="58.390000" height="13.160000" rx="1.510000" ry="1.510000" transform="matrix(1 0 0 1 19.90000000000000 72.31000000000000)" fill="rgb(221,221,221)" stroke="none" stroke-width="1"/><rect id="etsl5a13u5pb7" width="58.390000" height="13.160000" rx="1.760000" ry="1.760000" transform="matrix(1 0 0 1 101.59999999999999 72.31000000000000)" fill="rgb(221,221,221)" stroke="none" stroke-width="1"/><rect id="etsl5a13u5pb8" width="58.390000" height="13.160000" rx="2.160000" ry="2.160000" transform="matrix(1 0 0 1 182.75999999999999 72.31000000000000)" fill="rgb(221,221,221)" stroke="none" stroke-width="1"/><rect id="etsl5a13u5pb9" width="58.390000" height="13.160000" rx="1.070000" ry="1.070000" transform="matrix(1 0 0 1 265.88000000000000 72.31000000000000)" fill="rgb(221,221,221)" stroke="none" stroke-width="1"/><rect id="etsl5a13u5pb10" width="65.580000" height="18.780000" rx="0" ry="0" transform="matrix(1 0 0 1 647.81446599999992 74.36290610000000)" opacity="0.99" fill="rgb(255,255,255)" stroke="rgb(209,211,212)" stroke-width="1" stroke-miterlimit="10"/><rect id="etsl5a13u5pb11" width="65.580000" height="18.780000" rx="0" ry="0" transform="matrix(1.01576997664676 0 0 1.01576997664676 726.79080493689469 74.36290610126792)" opacity="0.99" fill="rgb(15,83,165)" stroke="none" stroke-width="1"/><rect id="etsl5a13u5pb12" display="none" width="297.380000" height="105.520000" rx="10.380000" ry="10.380000" transform="matrix(1 0 0 1 44.97841736999999 162.76499999999999)" fill="rgb(233,248,245)" stroke="none" stroke-width="1"/><rect id="etsl5a13u5pb13" width="297.380000" height="105.520000" rx="10.380000" ry="10.380000" transform="matrix(1 0 0 1 44.97841736999999 162.76499999999999)" fill="rgb(233,248,245)" stroke="none" stroke-width="1"/><rect id="etsl5a13u5pb14" display="none" width="297.380000" height="105.520000" rx="12.930000" ry="12.930000" transform="matrix(1 0 0 1 450.92000000000002 161.27000000000001)" fill="rgb(233,248,245)" stroke="none" stroke-width="1"/><rect id="etsl5a13u5pb15" width="17.860000" height="17.860000" rx="0" ry="0" transform="matrix(1 0 0 1 199.94999999999999 245.22999999999999)" opacity="0" fill="rgb(53,255,104)" stroke="none" stroke-width="1"/><rect id="etsl5a13u5pb16" width="17.860000" height="17.860000" rx="0" ry="0" transform="matrix(1 0 0 1 223.30000000000001 245.22999999999999)" opacity="0" fill="rgb(255,173,255)" stroke="none" stroke-width="1"/><rect id="etsl5a13u5pb17" width="17.860000" height="17.860000" rx="0" ry="0" transform="matrix(1 0 0 1 248.02000000000001 245.22999999999999)" opacity="0" fill="rgb(134,211,247)" stroke="none" stroke-width="1"/><rect id="etsl5a13u5pb18" width="17.860000" height="17.860000" rx="0" ry="0" transform="matrix(1 0 0 1 273.16000000000003 245.22999999999999)" opacity="0" fill="rgb(255,192,21)" stroke="none" stroke-width="1"/><rect id="etsl5a13u5pb19" width="17.860000" height="17.860000" rx="0" ry="0" transform="matrix(1 0 0 1 299.77999999999997 245.22999999999999)" opacity="0" fill="rgb(121,53,255)" stroke="none" stroke-width="1"/><rect id="etsl5a13u5pb20" display="none" width="297.380000" height="105.520000" rx="10.380000" ry="10.380000" transform="matrix(1 0 0 1 34.07999999999998 370.14999999999998)" fill="rgb(233,248,245)" stroke="none" stroke-width="1"/><rect id="etsl5a13u5pb21" display="none" width="297.380000" height="105.520000" rx="10.380000" ry="10.380000" transform="matrix(1 0 0 1 450.92000000000002 370.14999999999998)" fill="rgb(233,248,245)" stroke="none" stroke-width="1"/><rect id="etsl5a13u5pb22" width="80.060000" height="4.610000" rx="0" ry="0" transform="matrix(1 0 0 1 90.76500000000003 96.20500000000004)" opacity="0" fill="rgb(37,154,226)" stroke="none" stroke-width="1"/><rect id="etsl5a13u5pb23" width="80.060000" height="4.610000" rx="0" ry="0" transform="matrix(1 0 0 1 5.76500000000003 96.20500000000004)" fill="rgb(37,154,226)" stroke="none" stroke-width="1"/><rect id="etsl5a13u5pb24" width="80.060000" height="4.610000" rx="0" ry="0" transform="matrix(1 0 0 1 252.76500000000004 96.20500000000004)" opacity="0" fill="rgb(37,154,226)" stroke="none" stroke-width="1"/><rect id="etsl5a13u5pb25" width="80.060000" height="4.610000" rx="0" ry="0" transform="matrix(1 0 0 1 169.76500000000004 96.20500000000004)" opacity="0" fill="rgb(37,154,226)" stroke="none" stroke-width="1"/><rect id="etsl5a13u5pb26" width="692.010935" height="442.322256" rx="0" ry="0" transform="matrix(1 0 0 1 45.79500000076472 54.89000000000021)" opacity="0" fill="rgb(255,255,255)" stroke="rgb(165,165,165)" stroke-width="1"/><rect id="etsl5a13u5pb27" width="80.060000" height="4.610000" rx="1" ry="1" transform="matrix(3.23760040450849 0 0 5.33468294575832 118.27907302075940 127.59095452298575)" opacity="0" fill="rgb(244,244,244)" stroke="none" stroke-width="1"/><rect id="etsl5a13u5pb28" width="80.060000" height="4.610000" rx="1" ry="1" transform="matrix(3.23760040450849 0 0 5.33468294575832 118.27907302075963 185.25912663298575)" opacity="0" fill="rgb(244,244,244)" stroke="none" stroke-width="1"/><rect id="etsl5a13u5pb29" width="80.060000" height="4.610000" rx="1" ry="1" transform="matrix(3.23760040450849 0 0 5.33468294575832 410.02863860575968 185.75911931298569)" opacity="0" fill="rgb(244,244,244)" stroke="none" stroke-width="1"/><rect id="etsl5a13u5pb30" width="80.060000" height="4.610000" rx="1" ry="1" transform="matrix(3.23760040450849 0 0 5.33468294575832 410.02863860575957 127.59095452298570)" opacity="0" fill="rgb(244,244,244)" stroke="none" stroke-width="1"/><rect id="etsl5a13u5pb31" width="80.060000" height="4.610000" rx="1" ry="1" transform="matrix(6.81455115929422 0 0 5.33468294575832 118.27907302033151 238.49711162298649)" opacity="0" fill="rgb(244,244,244)" stroke="none" stroke-width="1"/><rect id="etsl5a13u5pb32" width="80.060000" height="4.610000" rx="1" ry="1" transform="matrix(6.81455115929422 0 0 5.33468294575832 118.27907302033151 287.74380625298653)" opacity="0" fill="rgb(244,244,244)" stroke="none" stroke-width="1"/><rect id="etsl5a13u5pb33" width="80.060000" height="4.610000" rx="1" ry="1" transform="matrix(1.08262968509301 0 0 6.12278364995839 280.93233370735499 423.73497697674992)" opacity="0" fill="rgb(253,237,237)" stroke="none" stroke-width="1"/><rect id="etsl5a13u5pb34" width="80.060000" height="4.610000" rx="1" ry="1" transform="matrix(1.17112819317395 0 0 6.62328462991924 425.32978778878459 421.75634432649554)" opacity="0" fill="rgb(231,252,253)" stroke="none" stroke-width="1"/><g id="etsl5a13u5pb35_ts" transform="translate(630.528917,76.291157) scale(0.829658,0.829658)"><rect id="etsl5a13u5pb35" width="17.860000" height="17.860000" rx="0" ry="0" transform="translate(-17.860000,0)" fill="rgb(136,232,204)" stroke="none" stroke-width="1"/></g><rect id="etsl5a13u5pb36" width="2.771275" height="9.795877" rx="0" ry="0" transform="matrix(4.35485116944364 0 0 0.82965768260651 597.60585077727990 79.63638784432406)" opacity="0" fill="rgb(246,246,246)" stroke="none" stroke-width="1"/><rect id="etsl5a13u5pb37" width="2.771275" height="9.795877" rx="0" ry="0" transform="matrix(4.35485116944364 0 0 0.82965768260651 579.57160529228054 79.69017380432408)" opacity="0" fill="rgb(246,246,246)" stroke="none" stroke-width="1"/><rect id="etsl5a13u5pb38" width="2.771275" height="9.795877" rx="0" ry="0" transform="matrix(4.35485116944364 0 0 0.82965768260651 561.57160529228054 79.69017380432408)" opacity="0" fill="rgb(246,246,246)" stroke="none" stroke-width="1"/><g id="etsl5a13u5pb39" transform="matrix(1.00686286735443 0 0 0.75828624171321 -3.30170459585641 315.18003351552204)" opacity="0"><rect id="etsl5a13u5pb40" width="692.010935" height="442.322256" rx="3" ry="3" transform="matrix(0.17859512280203 0 0 0.17859512280203 81.03556993351422 161.31620893337811)" fill="rgb(239,239,239)" stroke="rgb(165,165,165)" stroke-width="1"/><rect id="etsl5a13u5pb41" width="692.010935" height="442.322256" rx="3" ry="3" transform="matrix(0.17859512280203 0 0 0.17859512280203 242.50022208851448 161.27000000337813)" fill="rgb(239,239,239)" stroke="rgb(165,165,165)" stroke-width="1"/><rect id="etsl5a13u5pb42" width="692.010935" height="442.322256" rx="3" ry="3" transform="matrix(0.17859512280203 0 0 0.17859512280203 409.47068793351423 161.76999268337804)" fill="rgb(239,239,239)" stroke="rgb(165,165,165)" stroke-width="1"/><rect id="etsl5a13u5pb43" width="692.010935" height="442.322256" rx="3" ry="3" transform="matrix(0.17859512280203 0 0 0.17859512280203 563.05951493351415 161.76999268337798)" fill="rgb(239,239,239)" stroke="rgb(165,165,165)" stroke-width="1"/></g><g id="etsl5a13u5pb44" transform="matrix(1 0 0 1 0.94447235000001 -42.71102684499994)" opacity="0.02"><rect id="etsl5a13u5pb45" width="692.010935" height="442.322256" rx="3" ry="3" transform="matrix(0.18025060085103 0 0 0.18025060085103 78.29000169725006 160.53774522051981)" fill="rgb(239,239,239)" stroke="rgb(165,165,165)" stroke-width="1"/><rect id="etsl5a13u5pb46" width="692.010935" height="442.322256" rx="5" ry="5" transform="matrix(0.15447580321685 0 0 0.02265707283528 85.82500000739121 98.50999999958117)" fill="rgb(193,193,193)" stroke="rgb(165,165,165)" stroke-width="1"/><rect id="etsl5a13u5pb47" width="692.010935" height="442.322256" rx="5" ry="5" transform="matrix(0.15447580321685 0 0 0.02265707283528 77.34552749739119 417.89913621458140)" fill="rgb(193,193,193)" stroke="rgb(165,165,165)" stroke-width="1"/><rect id="etsl5a13u5pb48" width="692.010935" height="442.322256" rx="3" ry="3" transform="matrix(0.17859512280203 0 0 0.17859512280203 237.04063869851444 160.53774522337812)" fill="rgb(239,239,239)" stroke="rgb(165,165,165)" stroke-width="1"/><rect id="etsl5a13u5pb49" width="692.010935" height="442.322256" rx="3" ry="3" transform="matrix(0.17859512280203 0 0 0.17859512280203 409.47068793351423 161.76999268337804)" fill="rgb(239,239,239)" stroke="rgb(165,165,165)" stroke-width="1"/><rect id="etsl5a13u5pb50" width="692.010935" height="442.322256" rx="3" ry="3" transform="matrix(0.17859512280203 0 0 0.17859512280203 563.10163087851402 161.76999268337798)" fill="rgb(239,239,239)" stroke="rgb(165,165,165)" stroke-width="1"/></g><g id="etsl5a13u5pb51" transform="matrix(1 0 0 1 -1.80109588999977 72.07009697000035)" opacity="0"><rect id="etsl5a13u5pb52" width="692.010935" height="442.322256" rx="3" ry="3" transform="matrix(0.17859512280203 0 0 0.17859512280203 81.03556993351422 161.31620893337811)" fill="rgb(239,239,239)" stroke="rgb(165,165,165)" stroke-width="1"/><rect id="etsl5a13u5pb53" width="692.010935" height="442.322256" rx="3" ry="3" transform="matrix(0.17859512280203 0 0 0.17859512280203 242.50022208851448 161.27000000337813)" fill="rgb(239,239,239)" stroke="rgb(165,165,165)" stroke-width="1"/><rect id="etsl5a13u5pb54" width="692.010935" height="442.322256" rx="3" ry="3" transform="matrix(0.17859512280203 0 0 0.17859512280203 410.78022224351423 164.48273228837806)" fill="rgb(239,239,239)" stroke="rgb(165,165,165)" stroke-width="1"/><rect id="etsl5a13u5pb55" width="692.010935" height="442.322256" rx="3" ry="3" transform="matrix(0.17859512280203 0 0 0.17859512280203 563.05951493351415 161.76999268337798)" fill="rgb(239,239,239)" stroke="rgb(165,165,165)" stroke-width="1"/></g></g></g><g id="etsl5a13u5pb56" display="none" opacity="0"><rect id="etsl5a13u5pb57" width="694.277334" height="442.322256" rx="0" ry="0" transform="matrix(1.14766681069724 0 0 1.09271993430954 -2.80952700791778 61.39999267994386)" opacity="0" fill="rgb(255,255,255)" stroke="rgb(165,165,165)" stroke-width="1"/><rect id="etsl5a13u5pb58" width="164.586193" height="102.950690" rx="0" ry="0" transform="matrix(1.14766681069724 0 0 1.09271993430954 62.43509884368186 141.80742786319269)" opacity="0" fill="rgb(224,237,251)" stroke="none" stroke-width="1"/><rect id="etsl5a13u5pb59" width="63.107369" height="16.303443" rx="0" ry="0" transform="matrix(1.14766681069724 0 0 1.09271993430954 701.09281836368154 74.84535761762301)" opacity="0" fill="rgb(244,244,244)" stroke="none" stroke-width="1"/><rect id="etsl5a13u5pb60" width="63.107369" height="16.303443" rx="0" ry="0" transform="matrix(1.14766681069724 0 0 1.09271993430954 616.09281836368154 74.84535761762301)" opacity="0" fill="rgb(232,232,232)" stroke="none" stroke-width="1"/></g><g id="etsl5a13u5pb61" display="none" transform="matrix(0.04424395132638 0 0 0.04424395132638 379.95223093413881 284.78294131696748)" opacity="0"><rect id="etsl5a13u5pb62" width="692.010935" height="442.322256" rx="0" ry="0" transform="matrix(26.09556931513094 0 0 24.84619100423060 -8631.66865177509135 -5197.04549193101502)" opacity="0" fill="rgb(255,255,255)" stroke="rgb(165,165,165)" stroke-width="1"/><rect id="etsl5a13u5pb63" width="692.449678" height="442.322256" rx="0" ry="0" transform="matrix(26.03732397483301 0 0 1.72427669340772 -8625.38790006634554 -5184.17189750335183)" opacity="0" fill="rgb(246,253,255)" stroke="rgb(165,165,165)" stroke-width="1"/><rect id="etsl5a13u5pb64" width="145.342806" height="5864.700778" rx="0" ry="0" transform="matrix(1.87145217572818 0 0 0.12393367968822 -6790.11419663295510 271.28051892578941)" opacity="0" fill="rgb(255,255,255)" stroke="rgb(183,229,255)" stroke-width="1"/><rect id="etsl5a13u5pb65" width="111.370364" height="5864.700778" rx="0" ry="0" transform="matrix(26.03732397483301 0 0 1.71813605855217 6526.96441880247676 -4402.15634919520562)" opacity="0" fill="rgb(255,255,255)" stroke="rgb(183,229,255)" stroke-width="1"/><rect id="etsl5a13u5pb66" width="692.010935" height="442.322256" rx="0" ry="0" transform="matrix(3.29258300323154 0 0 0.72992306764137 -10910.17209443884894 -3923.66759894349661)" opacity="0" fill="rgb(234,234,234)" stroke="rgb(165,165,165)" stroke-width="1"/><rect id="etsl5a13u5pb67" width="692.010935" height="442.322256" rx="0" ry="0" transform="matrix(3.29258300323154 0 0 0.72992306764137 -10910.17209432584241 -3864.40733733941488)" opacity="0" fill="rgb(234,234,234)" stroke="rgb(165,165,165)" stroke-width="1"/><g id="etsl5a13u5pb68" transform="matrix(1 0 0 1 16.53237195304246 -6920.03351466975437)"><rect id="etsl5a13u5pb69" width="692.010935" height="442.322256" rx="0" ry="0" transform="matrix(3.29258300323154 0 0 0.43202467590311 -8204.13056354597757 -2907.97437357700710)" opacity="0" fill="rgb(225,246,245)" stroke="rgb(165,165,165)" stroke-width="1"/><rect id="etsl5a13u5pb70" width="692.010935" height="442.322256" rx="0" ry="0" transform="matrix(2.20870168731114 0 0 0.43202467590311 -8187.59848745486124 -2196.14539614979185)" opacity="0" fill="rgb(225,246,245)" stroke="rgb(165,165,165)" stroke-width="1"/><rect id="etsl5a13u5pb71" width="692.010935" height="442.322256" rx="0" ry="0" transform="matrix(2.50111480050132 0 0 0.43202467590311 -8187.59848745424824 -1472.88268925596071)" opacity="0" fill="rgb(225,246,245)" stroke="rgb(165,165,165)" stroke-width="1"/><rect id="etsl5a13u5pb72" width="692.010935" height="442.322256" rx="0" ry="0" transform="matrix(2.50111480050132 0 0 0.43202467590311 -8187.59848745424824 -801.86338673052319)" opacity="0" fill="rgb(225,246,245)" stroke="rgb(165,165,165)" stroke-width="1"/><rect id="etsl5a13u5pb73" width="692.010935" height="442.322256" rx="0" ry="0" transform="matrix(2.86344397677054 0 0 0.43202467590311 -8187.59848745348791 -24.89507898582045)" opacity="0" fill="rgb(225,246,245)" stroke="rgb(165,165,165)" stroke-width="1"/><rect id="etsl5a13u5pb74" width="692.010935" height="442.322256" rx="0" ry="0" transform="matrix(1.61456228596053 0 0 0.43202467590311 -8187.59848745610725 720.96958749844509)" opacity="0" fill="rgb(225,246,245)" stroke="rgb(165,165,165)" stroke-width="1"/><rect id="etsl5a13u5pb75" width="692.010935" height="442.322256" rx="0" ry="0" transform="matrix(4.08581911605399 0 0 0.43202467590311 -8187.59848745092495 1399.02837521141328)" opacity="0" fill="rgb(225,246,245)" stroke="rgb(165,165,165)" stroke-width="1"/></g><rect id="etsl5a13u5pb76" width="692.010935" height="608.822441" rx="0" ry="0" transform="matrix(3.39696311268782 0 0 0.85720160845608 -3851.89152719713184 -5309.83416616203431)" opacity="0" fill="rgb(245,225,246)" stroke="rgb(165,165,165)" stroke-width="1"/><rect id="etsl5a13u5pb77" width="692.010935" height="608.822441" rx="0" ry="0" transform="matrix(3.39696311268782 0 0 0.95658984125091 -1076.46874908347672 -6436.65253173796918)" opacity="0" fill="rgb(225,246,245)" stroke="rgb(165,165,165)" stroke-width="1"/><rect id="etsl5a13u5pb78" width="692.010935" height="608.822441" rx="0" ry="0" transform="matrix(3.39696311268782 0 0 0.95658984125091 1789.26039499024614 -7019.04589382526683)" opacity="0" fill="rgb(255,251,224)" stroke="rgb(165,165,165)" stroke-width="1"/><rect id="etsl5a13u5pb79" width="692.010935" height="608.822441" rx="0" ry="0" transform="matrix(3.39696311268782 0 0 0.95658984125091 -3877.86863051960654 -7140.57821008096016)" opacity="0" fill="rgb(255,251,224)" stroke="rgb(165,165,165)" stroke-width="1"/><rect id="etsl5a13u5pb80" width="692.010935" height="608.822441" rx="0" ry="0" transform="matrix(3.39696311268782 0 0 0.95658984125091 -561.47522472773642 -6849.38152909380824)" opacity="0" fill="rgb(199,255,235)" stroke="rgb(165,165,165)" stroke-width="1"/><rect id="etsl5a13u5pb81" width="692.010935" height="608.822441" rx="0" ry="0" transform="matrix(3.39696311268782 0 0 0.95658984125091 2014.14067560991748 -1964.09083499382041)" opacity="0" fill="rgb(255,238,242)" stroke="rgb(165,165,165)" stroke-width="1"/><rect id="etsl5a13u5pb82" width="431.373816" height="4.969766" rx="0" ry="0" transform="matrix(26.03732397483301 0 0 1.72427669340772 -4739.34232026144855 4139.25334792713875)" opacity="0" fill="rgb(183,229,255)" stroke="rgb(183,229,255)" stroke-width="1"/></g><g id="etsl5a13u5pb83_to" transform="translate(277.204540,305.221280)"><rect id="etsl5a13u5pb83" width="10.125465" height="10.125465" rx="50" ry="50" transform="translate(-8.930012,-8.929996)" filter="url(#etsl5a13u5pb83-filter)" fill="rgb(255,255,255)" stroke="rgb(204,0,255)" stroke-width="2"/></g></svg>