<svg width="650" height="724" viewBox="0 0 650 724" fill="none" xmlns="http://www.w3.org/2000/svg">
<g filter="url(#filter0_i)">
<path d="M626.425 424.747C626.425 493.592 596.842 539.942 547.034 570.164C495.848 601.222 422.076 615.838 334.372 615.838C324.293 615.838 314.413 615.88 304.726 615.921C270.886 616.065 239.402 616.198 210.06 614.501C172.416 612.323 140.313 607.192 113.829 596.136C87.8787 585.302 67.0412 568.674 51.6376 542.44C35.9716 515.759 25.2014 477.888 22.0365 423.584C15.9174 318.59 56.1507 250.059 123.978 191.164C158.405 161.27 199.891 133.96 246.385 105.857C266.031 93.9827 287.098 81.6662 308.855 68.9466C332.603 55.0632 357.172 40.6994 381.611 25.9057C412.528 61.5137 441.086 92.4275 466.808 120.272C471.162 124.984 475.434 129.609 479.623 134.154C511.667 168.921 538.555 198.724 560.383 227.987C603.221 285.419 626.425 340.505 626.425 424.747Z" stroke="url(#paint0_radial)" stroke-width="40"/>
</g>
<g filter="url(#filter1_i)">
<path d="M553.806 485.5C553.806 616.944 450.593 723.5 320.806 723.5C191.019 723.5 85.8058 616.944 85.8058 485.5C85.8058 354.056 203.044 278.685 364.425 118C428.425 310.775 553.806 331.315 553.806 485.5Z" fill="url(#paint1_radial)"/>
</g>
<path d="M553.306 485.5C553.306 616.679 450.305 723 320.806 723C191.301 723 86.3058 616.674 86.3058 485.5C86.3058 419.954 115.526 368.366 164.97 313.049C189.695 285.387 219.465 256.808 253.151 225.091C258.691 219.875 264.337 214.574 270.083 209.179C299.109 181.926 330.703 152.261 364.206 118.924C393.847 207.772 436.533 259.994 473.831 305.626C476.835 309.3 479.803 312.932 482.727 316.536C522.054 365.019 553.306 408.586 553.306 485.5Z" stroke="#506E87"/>
<path d="M111.973 599.415C97.2685 599.148 82.7592 596.071 69.2733 590.361C55.7875 584.65 43.5893 576.418 33.3753 566.134C23.1612 555.85 15.1313 543.716 9.74407 530.424C4.35679 517.132 1.71765 502.943 1.97731 488.667C2.23698 474.391 5.39037 460.307 11.2574 447.22C17.1245 434.132 25.5904 422.298 36.1716 412.393C46.7529 402.487 59.2424 394.704 72.927 389.488C86.6115 384.271 101.223 381.724 115.928 381.992L113.95 490.703L111.973 599.415Z" fill="#A9C9E3"/>
<path d="M537.417 380C552.124 380 566.687 382.812 580.274 388.277C593.862 393.741 606.207 401.75 616.607 411.846C627.006 421.943 635.255 433.929 640.883 447.121C646.512 460.312 649.408 474.451 649.408 488.73C649.408 503.008 646.512 517.147 640.883 530.339C635.255 543.53 627.006 555.517 616.607 565.613C606.207 575.71 593.862 583.719 580.274 589.183C566.687 594.647 552.124 597.459 537.417 597.459L537.417 488.73V380Z" fill="#A9C9E3"/>
<path d="M274.425 612C290.425 621.333 330.825 634.4 364.425 612" stroke="black" stroke-width="2"/>
<g filter="url(#filter2_i)">
<rect x="139.425" y="474" width="119" height="73" fill="#2A7ABB"/>
</g>
<g filter="url(#filter3_i)">
<path d="M362.425 474H481.425V547H362.425V474Z" fill="#2A7ABB"/>
</g>
<path d="M234.416 389.348C234.416 386.581 233.439 384.465 231.486 383C229.533 381.503 226.018 379.94 220.939 378.312C215.861 376.652 211.841 375.025 208.879 373.43C200.806 369.068 196.77 363.192 196.77 355.803C196.77 351.962 197.844 348.544 199.992 345.549C202.173 342.521 205.282 340.161 209.318 338.469C213.387 336.776 217.945 335.93 222.99 335.93C228.068 335.93 232.593 336.857 236.564 338.713C240.536 340.536 243.612 343.124 245.793 346.477C248.007 349.829 249.113 353.638 249.113 357.902H234.465C234.465 354.647 233.439 352.124 231.389 350.334C229.338 348.511 226.457 347.6 222.746 347.6C219.165 347.6 216.382 348.365 214.396 349.895C212.411 351.392 211.418 353.378 211.418 355.852C211.418 358.163 212.574 360.1 214.885 361.662C217.229 363.225 220.663 364.689 225.188 366.057C233.521 368.563 239.592 371.672 243.4 375.383C247.209 379.094 249.113 383.716 249.113 389.25C249.113 395.402 246.786 400.236 242.131 403.752C237.476 407.235 231.21 408.977 223.332 408.977C217.863 408.977 212.883 407.984 208.391 405.998C203.898 403.98 200.464 401.229 198.088 397.746C195.744 394.263 194.572 390.227 194.572 385.637H209.27C209.27 393.482 213.957 397.404 223.332 397.404C226.815 397.404 229.533 396.704 231.486 395.305C233.439 393.872 234.416 391.887 234.416 389.348ZM273.039 408H258.879V355.168H273.039V408ZM258.049 341.496C258.049 339.38 258.749 337.639 260.148 336.271C261.581 334.904 263.518 334.221 265.959 334.221C268.368 334.221 270.288 334.904 271.721 336.271C273.153 337.639 273.869 339.38 273.869 341.496C273.869 343.645 273.137 345.402 271.672 346.77C270.24 348.137 268.335 348.82 265.959 348.82C263.583 348.82 261.662 348.137 260.197 346.77C258.765 345.402 258.049 343.645 258.049 341.496ZM314.396 368.4C312.476 368.14 310.783 368.01 309.318 368.01C303.98 368.01 300.48 369.816 298.82 373.43V408H284.709V355.168H298.039L298.43 361.467C301.262 356.617 305.184 354.191 310.197 354.191C311.76 354.191 313.225 354.403 314.592 354.826L314.396 368.4ZM336.125 408H321.965V355.168H336.125V408ZM321.135 341.496C321.135 339.38 321.835 337.639 323.234 336.271C324.667 334.904 326.604 334.221 329.045 334.221C331.454 334.221 333.374 334.904 334.807 336.271C336.239 337.639 336.955 339.38 336.955 341.496C336.955 343.645 336.223 345.402 334.758 346.77C333.326 348.137 331.421 348.82 329.045 348.82C326.669 348.82 324.748 348.137 323.283 346.77C321.851 345.402 321.135 343.645 321.135 341.496ZM379.436 402.629C375.952 406.861 371.135 408.977 364.982 408.977C359.318 408.977 354.989 407.349 351.994 404.094C349.032 400.839 347.518 396.07 347.453 389.787V355.168H361.564V389.299C361.564 394.8 364.071 397.551 369.084 397.551C373.869 397.551 377.157 395.891 378.947 392.57V355.168H393.107V408H379.826L379.436 402.629ZM432.365 393.4C432.365 391.675 431.503 390.324 429.777 389.348C428.085 388.339 425.35 387.443 421.574 386.662C409.009 384.025 402.727 378.687 402.727 370.646C402.727 365.959 404.663 362.053 408.537 358.928C412.443 355.77 417.538 354.191 423.82 354.191C430.526 354.191 435.881 355.77 439.885 358.928C443.921 362.085 445.939 366.187 445.939 371.232H431.828C431.828 369.214 431.177 367.554 429.875 366.252C428.573 364.917 426.538 364.25 423.771 364.25C421.395 364.25 419.556 364.787 418.254 365.861C416.952 366.936 416.301 368.303 416.301 369.963C416.301 371.525 417.033 372.795 418.498 373.771C419.995 374.715 422.502 375.546 426.018 376.262C429.533 376.945 432.495 377.727 434.904 378.605C442.359 381.34 446.086 386.076 446.086 392.814C446.086 397.632 444.019 401.538 439.885 404.533C435.751 407.495 430.412 408.977 423.869 408.977C419.442 408.977 415.503 408.195 412.053 406.633C408.635 405.038 405.949 402.873 403.996 400.139C402.043 397.372 401.066 394.393 401.066 391.203H414.445C414.576 393.71 415.503 395.63 417.229 396.965C418.954 398.299 421.265 398.967 424.162 398.967C426.864 398.967 428.898 398.462 430.266 397.453C431.665 396.411 432.365 395.061 432.365 393.4Z" fill="#2A7ABB"/>
<rect x="98.425" y="381" width="16" height="222" rx="5" fill="#2A7ABB"/>
<rect x="528.425" y="378" width="16" height="222" rx="5" fill="#2A7ABB"/>
<defs>
<filter id="filter0_i" x="1.42529" y="0" width="645" height="640" filterUnits="userSpaceOnUse" color-interpolation-filters="sRGB">
<feFlood flood-opacity="0" result="BackgroundImageFix"/>
<feBlend mode="normal" in="SourceGraphic" in2="BackgroundImageFix" result="shape"/>
<feColorMatrix in="SourceAlpha" type="matrix" values="0 0 0 0 0 0 0 0 0 0 0 0 0 0 0 0 0 0 127 0" result="hardAlpha"/>
<feOffset dy="4"/>
<feGaussianBlur stdDeviation="2"/>
<feComposite in2="hardAlpha" operator="arithmetic" k2="-1" k3="1"/>
<feColorMatrix type="matrix" values="0 0 0 0 0 0 0 0 0 0 0 0 0 0 0 0 0 0 0.25 0"/>
<feBlend mode="normal" in2="shape" result="effect1_innerShadow"/>
</filter>
<filter id="filter1_i" x="85.8058" y="118" width="468" height="609.5" filterUnits="userSpaceOnUse" color-interpolation-filters="sRGB">
<feFlood flood-opacity="0" result="BackgroundImageFix"/>
<feBlend mode="normal" in="SourceGraphic" in2="BackgroundImageFix" result="shape"/>
<feColorMatrix in="SourceAlpha" type="matrix" values="0 0 0 0 0 0 0 0 0 0 0 0 0 0 0 0 0 0 127 0" result="hardAlpha"/>
<feOffset dy="4"/>
<feGaussianBlur stdDeviation="2"/>
<feComposite in2="hardAlpha" operator="arithmetic" k2="-1" k3="1"/>
<feColorMatrix type="matrix" values="0 0 0 0 0 0 0 0 0 0 0 0 0 0 0 0 0 0 0.25 0"/>
<feBlend mode="normal" in2="shape" result="effect1_innerShadow"/>
</filter>
<filter id="filter2_i" x="139.425" y="474" width="119" height="77" filterUnits="userSpaceOnUse" color-interpolation-filters="sRGB">
<feFlood flood-opacity="0" result="BackgroundImageFix"/>
<feBlend mode="normal" in="SourceGraphic" in2="BackgroundImageFix" result="shape"/>
<feColorMatrix in="SourceAlpha" type="matrix" values="0 0 0 0 0 0 0 0 0 0 0 0 0 0 0 0 0 0 127 0" result="hardAlpha"/>
<feOffset dy="4"/>
<feGaussianBlur stdDeviation="2"/>
<feComposite in2="hardAlpha" operator="arithmetic" k2="-1" k3="1"/>
<feColorMatrix type="matrix" values="0 0 0 0 0 0 0 0 0 0 0 0 0 0 0 0 0 0 0.25 0"/>
<feBlend mode="normal" in2="shape" result="effect1_innerShadow"/>
</filter>
<filter id="filter3_i" x="362.425" y="474" width="119" height="77" filterUnits="userSpaceOnUse" color-interpolation-filters="sRGB">
<feFlood flood-opacity="0" result="BackgroundImageFix"/>
<feBlend mode="normal" in="SourceGraphic" in2="BackgroundImageFix" result="shape"/>
<feColorMatrix in="SourceAlpha" type="matrix" values="0 0 0 0 0 0 0 0 0 0 0 0 0 0 0 0 0 0 127 0" result="hardAlpha"/>
<feOffset dy="4"/>
<feGaussianBlur stdDeviation="2"/>
<feComposite in2="hardAlpha" operator="arithmetic" k2="-1" k3="1"/>
<feColorMatrix type="matrix" values="0 0 0 0 0 0 0 0 0 0 0 0 0 0 0 0 0 0 0.25 0"/>
<feBlend mode="normal" in2="shape" result="effect1_innerShadow"/>
</filter>
<radialGradient id="paint0_radial" cx="0" cy="0" r="1" gradientUnits="userSpaceOnUse" gradientTransform="translate(976.94 301.923) rotate(90) scale(349.911 322.177)">
<stop offset="0.0572917" stop-color="#0B2841"/>
<stop offset="1" stop-color="#2A7ABB" stop-opacity="0.4"/>
</radialGradient>
<radialGradient id="paint1_radial" cx="0" cy="0" r="1" gradientUnits="userSpaceOnUse" gradientTransform="translate(340.425 666) rotate(-85.4095) scale(549.764 424.921)">
<stop stop-color="#F5F7F9"/>
<stop offset="0.59375" stop-color="#F5F7F9"/>
<stop offset="0.75" stop-color="#D9ECFF"/>
<stop offset="1" stop-color="#073D73"/>
</radialGradient>
</defs>
</svg>
