<svg width="650" height="724" viewBox="0 0 650 724" fill="none" xmlns="http://www.w3.org/2000/svg">
<g filter="url(#filter0_i)">
<path d="M627 424.747C627 493.592 597.417 539.942 547.609 570.164C496.423 601.222 422.65 615.838 334.946 615.838C324.868 615.838 314.988 615.88 305.301 615.921C271.461 616.065 239.977 616.198 210.635 614.501C172.991 612.323 140.888 607.192 114.403 596.136C88.4534 585.302 67.6159 568.674 52.2123 542.44C36.5463 515.759 25.7761 477.888 22.6112 423.584C16.4921 318.59 56.7254 250.059 124.553 191.164C158.98 161.27 200.465 133.96 246.96 105.857C266.606 93.9827 287.673 81.6662 309.43 68.9466C333.177 55.0632 357.747 40.6994 382.186 25.9057C413.102 61.5137 441.66 92.4275 467.383 120.272C471.736 124.984 476.009 129.609 480.197 134.154C512.242 168.921 539.13 198.724 560.958 227.987C603.796 285.419 627 340.505 627 424.747Z" stroke="url(#paint0_radial)" stroke-width="40"/>
</g>
<g filter="url(#filter1_i)">
<path d="M554.38 485.5C554.38 616.944 451.167 723.5 321.38 723.5C191.593 723.5 86.3804 616.944 86.3804 485.5C86.3804 354.056 203.619 278.685 365 118C429 310.775 554.38 331.315 554.38 485.5Z" fill="url(#paint1_radial)"/>
</g>
<path d="M553.88 485.5C553.88 616.679 450.88 723 321.38 723C191.876 723 86.8804 616.674 86.8804 485.5C86.8804 419.954 116.1 368.366 165.545 313.049C190.27 285.387 220.039 256.808 253.725 225.091C259.265 219.875 264.911 214.574 270.657 209.179C299.683 181.926 331.278 152.261 364.78 118.924C394.422 207.772 437.107 259.994 474.406 305.626C477.409 309.3 480.378 312.932 483.302 316.536C522.629 365.019 553.88 408.586 553.88 485.5Z" stroke="#506E87"/>
<path d="M112.548 599.415C97.8434 599.148 83.334 596.071 69.8482 590.361C56.3623 584.65 44.1642 576.418 33.9501 566.134C23.7361 555.85 15.7062 543.716 10.3189 530.424C4.93162 517.132 2.29248 502.943 2.55214 488.667C2.81181 474.391 5.9652 460.307 11.8323 447.22C17.6993 434.132 26.1652 422.298 36.7465 412.393C47.3277 402.487 59.8172 394.704 73.5018 389.488C87.1864 384.271 101.798 381.724 116.503 381.992L114.525 490.703L112.548 599.415Z" fill="#A9C9E3"/>
<path d="M537.992 380C552.699 380 567.261 382.812 580.849 388.277C594.436 393.741 606.782 401.75 617.182 411.846C627.581 421.943 635.83 433.929 641.458 447.121C647.086 460.312 649.983 474.451 649.983 488.73C649.983 503.008 647.086 517.147 641.458 530.339C635.83 543.53 627.581 555.517 617.182 565.613C606.782 575.71 594.436 583.719 580.849 589.183C567.261 594.647 552.699 597.459 537.992 597.459L537.992 488.73V380Z" fill="#A9C9E3"/>
<path d="M275 612C291 621.333 331.4 634.4 365 612" stroke="black" stroke-width="2"/>
<g filter="url(#filter2_i)">
<rect x="140" y="474" width="119" height="73" fill="#2A7ABB"/>
</g>
<g filter="url(#filter3_i)">
<path d="M363 474H482V547H363V474Z" fill="#2A7ABB"/>
</g>
<g filter="url(#filter4_i)">
<path d="M250.633 411.078C250.633 408.865 249.852 407.172 248.289 406C246.727 404.802 243.914 403.552 239.852 402.25C235.789 400.922 232.573 399.62 230.203 398.344C223.745 394.854 220.516 390.154 220.516 384.242C220.516 381.169 221.375 378.435 223.094 376.039C224.839 373.617 227.326 371.729 230.555 370.375C233.81 369.021 237.456 368.344 241.492 368.344C245.555 368.344 249.174 369.086 252.352 370.57C255.529 372.029 257.99 374.099 259.734 376.781C261.505 379.464 262.391 382.51 262.391 385.922H250.672C250.672 383.318 249.852 381.299 248.211 379.867C246.57 378.409 244.266 377.68 241.297 377.68C238.432 377.68 236.206 378.292 234.617 379.516C233.029 380.714 232.234 382.302 232.234 384.281C232.234 386.13 233.159 387.68 235.008 388.93C236.883 390.18 239.63 391.352 243.25 392.445C249.917 394.451 254.773 396.938 257.82 399.906C260.867 402.875 262.391 406.573 262.391 411C262.391 415.922 260.529 419.789 256.805 422.602C253.081 425.388 248.068 426.781 241.766 426.781C237.391 426.781 233.406 425.987 229.812 424.398C226.219 422.784 223.471 420.583 221.57 417.797C219.695 415.01 218.758 411.781 218.758 408.109H230.516C230.516 414.385 234.266 417.523 241.766 417.523C244.552 417.523 246.727 416.964 248.289 415.844C249.852 414.698 250.633 413.109 250.633 411.078ZM281.531 426H270.203V383.734H281.531V426ZM269.539 372.797C269.539 371.104 270.099 369.711 271.219 368.617C272.365 367.523 273.914 366.977 275.867 366.977C277.794 366.977 279.331 367.523 280.477 368.617C281.622 369.711 282.195 371.104 282.195 372.797C282.195 374.516 281.609 375.922 280.438 377.016C279.292 378.109 277.768 378.656 275.867 378.656C273.966 378.656 272.43 378.109 271.258 377.016C270.112 375.922 269.539 374.516 269.539 372.797ZM314.617 394.32C313.081 394.112 311.727 394.008 310.555 394.008C306.284 394.008 303.484 395.453 302.156 398.344V426H290.867V383.734H301.531L301.844 388.773C304.109 384.893 307.247 382.953 311.258 382.953C312.508 382.953 313.68 383.122 314.773 383.461L314.617 394.32ZM332 426H320.672V383.734H332V426ZM320.008 372.797C320.008 371.104 320.568 369.711 321.688 368.617C322.833 367.523 324.383 366.977 326.336 366.977C328.263 366.977 329.799 367.523 330.945 368.617C332.091 369.711 332.664 371.104 332.664 372.797C332.664 374.516 332.078 375.922 330.906 377.016C329.76 378.109 328.237 378.656 326.336 378.656C324.435 378.656 322.898 378.109 321.727 377.016C320.581 375.922 320.008 374.516 320.008 372.797ZM366.648 421.703C363.862 425.089 360.008 426.781 355.086 426.781C350.555 426.781 347.091 425.479 344.695 422.875C342.326 420.271 341.115 416.456 341.062 411.43V383.734H352.352V411.039C352.352 415.44 354.357 417.641 358.367 417.641C362.195 417.641 364.826 416.312 366.258 413.656V383.734H377.586V426H366.961L366.648 421.703ZM408.992 414.32C408.992 412.94 408.302 411.859 406.922 411.078C405.568 410.271 403.38 409.555 400.359 408.93C390.307 406.82 385.281 402.549 385.281 396.117C385.281 392.367 386.831 389.242 389.93 386.742C393.055 384.216 397.13 382.953 402.156 382.953C407.521 382.953 411.805 384.216 415.008 386.742C418.237 389.268 419.852 392.549 419.852 396.586H408.562C408.562 394.971 408.042 393.643 407 392.602C405.958 391.534 404.331 391 402.117 391C400.216 391 398.745 391.43 397.703 392.289C396.661 393.148 396.141 394.242 396.141 395.57C396.141 396.82 396.727 397.836 397.898 398.617C399.096 399.372 401.102 400.036 403.914 400.609C406.727 401.156 409.096 401.781 411.023 402.484C416.987 404.672 419.969 408.461 419.969 413.852C419.969 417.706 418.315 420.831 415.008 423.227C411.701 425.596 407.43 426.781 402.195 426.781C398.654 426.781 395.503 426.156 392.742 424.906C390.008 423.63 387.859 421.898 386.297 419.711C384.734 417.497 383.953 415.115 383.953 412.562H394.656C394.76 414.568 395.503 416.104 396.883 417.172C398.263 418.24 400.112 418.773 402.43 418.773C404.591 418.773 406.219 418.37 407.312 417.562C408.432 416.729 408.992 415.648 408.992 414.32Z" fill="#CDCDCD"/>
</g>
<rect x="98.9995" y="381" width="16" height="222" rx="5" fill="#2A7ABB"/>
<rect x="529" y="378" width="16" height="222" rx="5" fill="#2A7ABB"/>
<defs>
<filter id="filter0_i" x="2" y="0" width="645" height="640" filterUnits="userSpaceOnUse" color-interpolation-filters="sRGB">
<feFlood flood-opacity="0" result="BackgroundImageFix"/>
<feBlend mode="normal" in="SourceGraphic" in2="BackgroundImageFix" result="shape"/>
<feColorMatrix in="SourceAlpha" type="matrix" values="0 0 0 0 0 0 0 0 0 0 0 0 0 0 0 0 0 0 127 0" result="hardAlpha"/>
<feOffset dy="4"/>
<feGaussianBlur stdDeviation="2"/>
<feComposite in2="hardAlpha" operator="arithmetic" k2="-1" k3="1"/>
<feColorMatrix type="matrix" values="0 0 0 0 0 0 0 0 0 0 0 0 0 0 0 0 0 0 0.25 0"/>
<feBlend mode="normal" in2="shape" result="effect1_innerShadow"/>
</filter>
<filter id="filter1_i" x="86.3804" y="118" width="468" height="609.5" filterUnits="userSpaceOnUse" color-interpolation-filters="sRGB">
<feFlood flood-opacity="0" result="BackgroundImageFix"/>
<feBlend mode="normal" in="SourceGraphic" in2="BackgroundImageFix" result="shape"/>
<feColorMatrix in="SourceAlpha" type="matrix" values="0 0 0 0 0 0 0 0 0 0 0 0 0 0 0 0 0 0 127 0" result="hardAlpha"/>
<feOffset dy="4"/>
<feGaussianBlur stdDeviation="2"/>
<feComposite in2="hardAlpha" operator="arithmetic" k2="-1" k3="1"/>
<feColorMatrix type="matrix" values="0 0 0 0 0 0 0 0 0 0 0 0 0 0 0 0 0 0 0.25 0"/>
<feBlend mode="normal" in2="shape" result="effect1_innerShadow"/>
</filter>
<filter id="filter2_i" x="140" y="474" width="119" height="77" filterUnits="userSpaceOnUse" color-interpolation-filters="sRGB">
<feFlood flood-opacity="0" result="BackgroundImageFix"/>
<feBlend mode="normal" in="SourceGraphic" in2="BackgroundImageFix" result="shape"/>
<feColorMatrix in="SourceAlpha" type="matrix" values="0 0 0 0 0 0 0 0 0 0 0 0 0 0 0 0 0 0 127 0" result="hardAlpha"/>
<feOffset dy="4"/>
<feGaussianBlur stdDeviation="2"/>
<feComposite in2="hardAlpha" operator="arithmetic" k2="-1" k3="1"/>
<feColorMatrix type="matrix" values="0 0 0 0 0 0 0 0 0 0 0 0 0 0 0 0 0 0 0.25 0"/>
<feBlend mode="normal" in2="shape" result="effect1_innerShadow"/>
</filter>
<filter id="filter3_i" x="363" y="474" width="119" height="77" filterUnits="userSpaceOnUse" color-interpolation-filters="sRGB">
<feFlood flood-opacity="0" result="BackgroundImageFix"/>
<feBlend mode="normal" in="SourceGraphic" in2="BackgroundImageFix" result="shape"/>
<feColorMatrix in="SourceAlpha" type="matrix" values="0 0 0 0 0 0 0 0 0 0 0 0 0 0 0 0 0 0 127 0" result="hardAlpha"/>
<feOffset dy="4"/>
<feGaussianBlur stdDeviation="2"/>
<feComposite in2="hardAlpha" operator="arithmetic" k2="-1" k3="1"/>
<feColorMatrix type="matrix" values="0 0 0 0 0 0 0 0 0 0 0 0 0 0 0 0 0 0 0.25 0"/>
<feBlend mode="normal" in2="shape" result="effect1_innerShadow"/>
</filter>
<filter id="filter4_i" x="218.758" y="366.977" width="201.211" height="63.8047" filterUnits="userSpaceOnUse" color-interpolation-filters="sRGB">
<feFlood flood-opacity="0" result="BackgroundImageFix"/>
<feBlend mode="normal" in="SourceGraphic" in2="BackgroundImageFix" result="shape"/>
<feColorMatrix in="SourceAlpha" type="matrix" values="0 0 0 0 0 0 0 0 0 0 0 0 0 0 0 0 0 0 127 0" result="hardAlpha"/>
<feOffset dy="4"/>
<feGaussianBlur stdDeviation="2"/>
<feComposite in2="hardAlpha" operator="arithmetic" k2="-1" k3="1"/>
<feColorMatrix type="matrix" values="0 0 0 0 0 0 0 0 0 0 0 0 0 0 0 0 0 0 0.25 0"/>
<feBlend mode="normal" in2="shape" result="effect1_innerShadow"/>
</filter>
<radialGradient id="paint0_radial" cx="0" cy="0" r="1" gradientUnits="userSpaceOnUse" gradientTransform="translate(977.515 301.923) rotate(90) scale(349.911 322.177)">
<stop offset="0.0572917" stop-color="#0B2841"/>
<stop offset="1" stop-color="#2A7ABB" stop-opacity="0.4"/>
</radialGradient>
<radialGradient id="paint1_radial" cx="0" cy="0" r="1" gradientUnits="userSpaceOnUse" gradientTransform="translate(341 666) rotate(-85.4095) scale(549.764 424.921)">
<stop stop-color="#F5F7F9"/>
<stop offset="0.704659" stop-color="#F5F7F9"/>
<stop offset="0.817708" stop-color="#D9ECFF"/>
<stop offset="1" stop-color="#0B62BA"/>
</radialGradient>
</defs>
</svg>
