<svg width="250" height="250" viewBox="0 0 250 250" fill="none" xmlns="http://www.w3.org/2000/svg">
<g filter="url(#filter0_d)">
<path d="M127.926 46.1165C126.797 44.1326 123.954 44.0866 122.761 46.0328L107.342 71.1904C106.77 72.1237 106.752 73.2944 107.294 74.245L160.051 166.691C160.585 167.626 161.58 168.204 162.657 168.204L192.255 168.204C194.556 168.204 196.001 165.72 194.863 163.72L127.926 46.1165Z" fill="url(#paint0_linear)"/>
</g>
<g filter="url(#filter1_d)">
<path d="M127.607 155.591C124.995 150.957 121.841 146.207 118.488 141.855C115.438 137.89 112.191 134.167 108.845 130.798C107.902 129.845 106.975 128.939 106.524 128.525L105.455 127.512C105.187 127.251 104.967 127.042 104.762 126.86L104.454 126.581C104.119 126.279 103.773 125.965 103.455 125.645C103.43 125.619 103.405 125.594 103.379 125.57C103.233 125.431 103.082 125.294 102.914 125.141C102.695 124.943 102.45 124.722 102.202 124.469C102.171 124.437 102.139 124.407 102.107 124.375C100.473 122.821 99.0379 121.397 97.724 120.025C96.1804 118.409 94.9819 117.056 93.8293 115.625C92.5093 113.996 91.201 112.15 89.9343 110.123C88.7781 108.289 85.8952 90.2798 82.2783 83.9467C83.0779 85.652 79.1388 78.4496 82.2783 83.9467C82.6764 84.8384 81.7496 82.8104 82.2783 83.9467C82.7644 84.3479 81.9677 83.2517 82.2783 83.9467C82.5132 83.7019 81.791 83.5445 82.2783 83.9467C82.5574 83.4253 81.9257 84.3087 82.2783 83.9467C79.7628 84.6723 78.688 90.7274 78.688 90.7274C78.688 90.7274 75.2269 99.5536 76.7148 108.2C77.3387 111.826 78.7299 115.625 81.2146 121.7C83.1157 126.349 84.7144 129.2 88.2144 133.7C89.3809 135.2 92.2148 139.2 98.7265 145.772C100.563 147.877 103.194 150.606 103.642 151.062C104.09 151.517 106.566 153.947 106.579 153.96L106.524 153.96C106.852 154.277 106.333 153.716 106.579 153.96C106.383 153.777 106.805 154.185 106.579 153.96C108.874 156.246 109.714 157.069 112.214 159.7C114.714 162.332 116.331 164.679 116.714 165.2C118.918 168.201 121.184 171.701 121.418 172.201C121.653 172.7 124.955 179.663 125.214 180.7C125.714 182.7 125.918 186.201 125.918 187.201C125.918 188.201 125.418 194.701 125.418 194.701C125.418 194.701 124.428 202.369 124.754 203.2C124.256 202.745 125.031 203.905 124.754 203.2C124.481 203.258 125.158 203.57 124.754 203.2C124.702 203.239 124.819 203.187 124.754 203.2C124.461 203.614 125.134 202.908 124.754 203.2C125.455 202.267 133.885 190.03 134.214 188.5C134.652 186.538 137.274 184.133 136.973 181.345C136.607 177.965 135.653 174.015 134.214 169.926C132.618 165.377 130.332 160.416 127.607 155.591Z" fill="url(#paint1_linear)"/>
<path d="M132.919 142.703C130.565 136.405 123.419 126.2 123.419 126.2C123.419 126.2 122.843 125.199 112.919 110.445C112.013 109.097 109.877 105.791 109.441 105.2C109.64 105.462 109.183 104.83 109.441 105.2C109.747 105.653 109.117 104.768 109.441 105.2C109.466 105.235 109.417 105.164 109.441 105.2C109.604 105.419 109.301 105.004 109.441 105.2C109.229 104.917 107.502 101.969 107.264 101.611C107.234 101.566 107.204 101.523 107.173 101.478C106.639 100.7 104.214 97.2483 102.955 95.3131C101.476 93.0336 100.335 91.1374 99.2481 89.1471C98.0026 86.8812 96.7861 84.3371 95.627 81.5656C94.5677 79.0568 93.9194 76.2004 93.4194 72.2004C92.4717 64.6186 97.618 47.9971 96.9193 45.7006C97.2638 46.8989 96.4581 44.1709 96.9193 45.7006C97.3935 46.28 96.6506 44.7667 96.9193 45.7006C97.1827 45.4166 96.4441 45.1198 96.9193 45.7006C97.25 45.067 96.5246 46.1198 96.9193 45.7006C94.248 46.3039 84.4194 61.7004 84.4194 61.7004C84.4194 61.7004 81.1613 66.55 80.9194 76.7004C81.286 81.4423 81.9371 89.6589 83.4193 95.3133C85.034 101.537 86.7137 104.062 89.4192 110.445C92.0281 116.626 95.9159 122.541 99.2481 128.203C99.2481 128.203 102.515 132.158 103.919 134.203C104.35 134.847 107.161 138.684 107.173 138.703L109.441 141.703C109.205 141.356 109.757 142.152 109.441 141.703C109.659 142.021 115.23 149.939 115.419 150.2C114.058 148.087 117.627 153.439 115.419 150.2C116.92 152.526 118.557 154.375 119.919 156.7C121.374 159.185 122.186 160.294 123.254 162.492C124.466 164.992 125.627 167.722 126.711 170.617C127.67 173.164 128.919 182.701 128.919 182.701C128.919 180.203 128.816 184.199 128.919 182.701C129.919 195.201 126.437 201.091 126.711 202.203C126.229 201.552 126.944 203.144 126.711 202.203C126.422 202.241 127.102 202.731 126.711 202.203C126.654 202.245 126.779 202.194 126.711 202.203C126.374 202.695 127.128 201.876 126.711 202.203C127.512 201.094 136.418 192.7 136.918 190.2C139.419 187.7 140.486 174.7 140.419 172.2C140.302 167.808 140.066 164.2 139.419 161.2C138.114 155.144 135.377 149.261 132.919 142.703Z" fill="url(#paint2_linear)"/>
</g>
<g filter="url(#filter2_d)">
<path d="M71.4316 138.255C72.5983 136.322 75.4017 136.322 76.5684 138.255L91.1721 162.45C92.3789 164.449 90.9391 167 88.6037 167H59.3963C57.0609 167 55.6211 164.449 56.8279 162.45L71.4316 138.255Z" fill="url(#paint3_linear)"/>
</g>
<defs>
<filter id="filter0_d" x="102.9" y="44.6005" width="96.3598" height="131.603" filterUnits="userSpaceOnUse" color-interpolation-filters="sRGB">
<feFlood flood-opacity="0" result="BackgroundImageFix"/>
<feColorMatrix in="SourceAlpha" type="matrix" values="0 0 0 0 0 0 0 0 0 0 0 0 0 0 0 0 0 0 127 0"/>
<feOffset dy="4"/>
<feGaussianBlur stdDeviation="2"/>
<feColorMatrix type="matrix" values="0 0 0 0 0 0 0 0 0 0 0 0 0 0 0 0 0 0 0.25 0"/>
<feBlend mode="normal" in2="BackgroundImageFix" result="effect1_dropShadow"/>
<feBlend mode="normal" in="SourceGraphic" in2="effect1_dropShadow" result="shape"/>
</filter>
<filter id="filter1_d" x="74.3433" y="45.2212" width="72.0791" height="166.213" filterUnits="userSpaceOnUse" color-interpolation-filters="sRGB">
<feFlood flood-opacity="0" result="BackgroundImageFix"/>
<feColorMatrix in="SourceAlpha" type="matrix" values="0 0 0 0 0 0 0 0 0 0 0 0 0 0 0 0 0 0 127 0"/>
<feOffset dx="2" dy="4"/>
<feGaussianBlur stdDeviation="2"/>
<feColorMatrix type="matrix" values="0 0 0 0 0 0 0 0 0 0 0 0 0 0 0 0 0 0 0.25 0"/>
<feBlend mode="normal" in2="BackgroundImageFix" result="effect1_dropShadow"/>
<feBlend mode="normal" in="SourceGraphic" in2="effect1_dropShadow" result="shape"/>
</filter>
<filter id="filter2_d" x="52.3916" y="136.805" width="43.2167" height="38.1946" filterUnits="userSpaceOnUse" color-interpolation-filters="sRGB">
<feFlood flood-opacity="0" result="BackgroundImageFix"/>
<feColorMatrix in="SourceAlpha" type="matrix" values="0 0 0 0 0 0 0 0 0 0 0 0 0 0 0 0 0 0 127 0"/>
<feOffset dy="4"/>
<feGaussianBlur stdDeviation="2"/>
<feColorMatrix type="matrix" values="0 0 0 0 0 0 0 0 0 0 0 0 0 0 0 0 0 0 0.25 0"/>
<feBlend mode="normal" in2="BackgroundImageFix" result="effect1_dropShadow"/>
<feBlend mode="normal" in="SourceGraphic" in2="effect1_dropShadow" result="shape"/>
</filter>
<linearGradient id="paint0_linear" x1="169.841" y1="88" x2="69.5455" y2="142.738" gradientUnits="userSpaceOnUse">
<stop stop-color="#0A2F3B"/>
<stop offset="1" stop-color="#1D586B" stop-opacity="0.65"/>
</linearGradient>
<linearGradient id="paint1_linear" x1="119" y1="142" x2="91.0005" y2="160" gradientUnits="userSpaceOnUse">
<stop stop-color="#2FBBE9"/>
<stop offset="1" stop-color="#4F7683"/>
</linearGradient>
<linearGradient id="paint2_linear" x1="133" y1="100" x2="104.452" y2="128.427" gradientUnits="userSpaceOnUse">
<stop stop-color="#0F3245" stop-opacity="0.75"/>
<stop offset="1" stop-color="#30BBE9"/>
</linearGradient>
<linearGradient id="paint3_linear" x1="58.5" y1="163" x2="97" y2="152" gradientUnits="userSpaceOnUse">
<stop offset="0.209603" stop-color="#0A2F3B"/>
<stop offset="1" stop-color="#52AECD"/>
</linearGradient>
</defs>
</svg>
